<svg width="80" height="80" viewBox="0 0 80 80" fill="none" xmlns="http://www.w3.org/2000/svg">
<circle cx="40" cy="40" r="40" fill="white"/>
<circle cx="40" cy="40" r="30" fill="#F0F5FB"/>
<path d="M58 49.8379C57.9999 50.705 57.668 51.5285 57.0664 52.1572L52.4727 56.9521C51.8347 57.6187 50.9369 58 50.0107 58H25.5938C23.6124 57.9999 22.0002 56.4017 22 54.4365V33.1846H58V49.8379ZM51.5029 49.1807C50.2242 49.1807 49.1777 50.2191 49.1777 51.4873V56.207C49.1777 56.399 49.4142 56.4929 49.5479 56.3535L50.6045 55.2441L55.3428 50.2686L56.0371 49.54C56.1661 49.4045 56.069 49.1807 55.8809 49.1807H51.5029ZM26.8311 27.375C26.8311 27.4756 26.8383 27.5741 26.8496 27.6719C26.9982 28.9488 28.0888 29.9441 29.4102 29.9443H29.5791C30.9007 29.9441 31.9911 28.9489 32.1396 27.6719C32.151 27.5741 32.1582 27.4756 32.1582 27.375V25.1455H47.418V27.375C47.418 27.4755 47.4252 27.5742 47.4365 27.6719C47.5851 28.949 48.6765 29.9443 49.998 29.9443H50.165C51.4869 29.9443 52.578 28.949 52.7266 27.6719C52.7379 27.5741 52.7451 27.4756 52.7451 27.375V25.1455H54.4062C56.3875 25.1455 58 26.751 58 28.7246V31.4365H22V28.7246C22 26.7514 23.612 25.1456 25.5938 25.1455H26.8311V27.375ZM29.6738 22C30.5019 22.0001 31.1752 22.6426 31.1758 23.4326L31.1768 27.5576C31.1765 28.3476 30.502 28.9902 29.6738 28.9902H29.5029C28.6746 28.9902 28.0007 28.3475 28 27.5576V23.4326C28.0003 22.6427 28.6739 22.0001 29.502 22H29.6738ZM50.1445 22C50.9727 22.0002 51.6459 22.6427 51.6465 23.4326L51.6475 27.5576C51.6472 28.3476 50.9729 28.9902 50.1445 28.9902H49.9736C49.1455 28.9902 48.4711 28.3475 48.4707 27.5576V23.4326C48.471 22.6426 49.1453 22 49.9736 22H50.1445Z" fill="white"/>
<path d="M58 49.8379C57.9999 50.705 57.668 51.5285 57.0664 52.1572L52.4727 56.9521C51.8347 57.6187 50.9369 58 50.0107 58H25.5938C23.6124 57.9999 22.0002 56.4017 22 54.4365V33.1846H58V49.8379ZM51.5029 49.1807C50.2242 49.1807 49.1777 50.2191 49.1777 51.4873V56.207C49.1777 56.399 49.4142 56.4929 49.5479 56.3535L50.6045 55.2441L55.3428 50.2686L56.0371 49.54C56.1661 49.4045 56.069 49.1807 55.8809 49.1807H51.5029ZM26.8311 27.375C26.8311 27.4756 26.8383 27.5741 26.8496 27.6719C26.9982 28.9488 28.0888 29.9441 29.4102 29.9443H29.5791C30.9007 29.9441 31.9911 28.9489 32.1396 27.6719C32.151 27.5741 32.1582 27.4756 32.1582 27.375V25.1455H47.418V27.375C47.418 27.4755 47.4252 27.5742 47.4365 27.6719C47.5851 28.949 48.6765 29.9443 49.998 29.9443H50.165C51.4869 29.9443 52.578 28.949 52.7266 27.6719C52.7379 27.5741 52.7451 27.4756 52.7451 27.375V25.1455H54.4062C56.3875 25.1455 58 26.751 58 28.7246V31.4365H22V28.7246C22 26.7514 23.612 25.1456 25.5938 25.1455H26.8311V27.375ZM29.6738 22C30.5019 22.0001 31.1752 22.6426 31.1758 23.4326L31.1768 27.5576C31.1765 28.3476 30.502 28.9902 29.6738 28.9902H29.5029C28.6746 28.9902 28.0007 28.3475 28 27.5576V23.4326C28.0003 22.6427 28.6739 22.0001 29.502 22H29.6738ZM50.1445 22C50.9727 22.0002 51.6459 22.6427 51.6465 23.4326L51.6475 27.5576C51.6472 28.3476 50.9729 28.9902 50.1445 28.9902H49.9736C49.1455 28.9902 48.4711 28.3475 48.4707 27.5576V23.4326C48.471 22.6426 49.1453 22 49.9736 22H50.1445Z" fill="url(#paint0_linear_1_394)"/>
<defs>
<linearGradient id="paint0_linear_1_394" x1="21.0538" y1="70.8047" x2="57.7775" y2="59.9704" gradientUnits="userSpaceOnUse">
<stop stop-color="#0D748B"/>
<stop offset="1" stop-color="#1A0B73"/>
</linearGradient>
</defs>
</svg>
