<svg width="80" height="80" viewBox="0 0 80 80" fill="none" xmlns="http://www.w3.org/2000/svg">
<circle cx="40" cy="40" r="40" fill="white"/>
<circle cx="40" cy="40" r="30" fill="#F0F5FB"/>
<path d="M43.8369 27.7142C46.1071 27.7144 47.9736 29.5925 47.9736 31.8763V48.1234C47.9736 50.4075 46.1068 52.2854 43.8369 52.2855H26.1367C23.8667 52.2855 22 50.4073 22 48.1234V31.8763C22 29.5922 23.8667 27.7143 26.1367 27.7142H43.8369ZM55.1475 31.5267C55.4303 31.5052 55.7095 31.5363 55.9541 31.6166C56.4427 31.7769 56.8117 32.0681 57.0977 32.392C57.6697 33.0395 57.9999 33.8327 58 34.7357V45.2621C57.9999 46.1438 57.6753 46.9379 57.1064 47.5707C56.5374 48.2033 55.4793 48.6913 54.4648 48.3011L50.373 46.7289V33.892L54.3252 31.7601C54.5156 31.6577 54.7239 31.5897 54.9355 31.5531L55.1475 31.5267ZM26.8066 32.7582C26.4886 32.757 26.183 32.8833 25.957 33.1088C25.7314 33.334 25.604 33.6404 25.6025 33.9603V39.9945C25.6012 40.3165 25.728 40.6262 25.9541 40.8539C26.18 41.0811 26.4871 41.2086 26.8066 41.2074C27.1251 41.206 27.4301 41.0774 27.6543 40.85C27.8785 40.6228 28.0043 40.3149 28.0029 39.9945V33.9603C28.0015 33.6419 27.8752 33.3369 27.6514 33.1117C27.4274 32.8864 27.1233 32.7593 26.8066 32.7582Z" fill="white"/>
<path d="M43.8369 27.7142C46.1071 27.7144 47.9736 29.5925 47.9736 31.8763V48.1234C47.9736 50.4075 46.1068 52.2854 43.8369 52.2855H26.1367C23.8667 52.2855 22 50.4073 22 48.1234V31.8763C22 29.5922 23.8667 27.7143 26.1367 27.7142H43.8369ZM55.1475 31.5267C55.4303 31.5052 55.7095 31.5363 55.9541 31.6166C56.4427 31.7769 56.8117 32.0681 57.0977 32.392C57.6697 33.0395 57.9999 33.8327 58 34.7357V45.2621C57.9999 46.1438 57.6753 46.9379 57.1064 47.5707C56.5374 48.2033 55.4793 48.6913 54.4648 48.3011L50.373 46.7289V33.892L54.3252 31.7601C54.5156 31.6577 54.7239 31.5897 54.9355 31.5531L55.1475 31.5267ZM26.8066 32.7582C26.4886 32.757 26.183 32.8833 25.957 33.1088C25.7314 33.334 25.604 33.6404 25.6025 33.9603V39.9945C25.6012 40.3165 25.728 40.6262 25.9541 40.8539C26.18 41.0811 26.4871 41.2086 26.8066 41.2074C27.1251 41.206 27.4301 41.0774 27.6543 40.85C27.8785 40.6228 28.0043 40.3149 28.0029 39.9945V33.9603C28.0015 33.6419 27.8752 33.3369 27.6514 33.1117C27.4274 32.8864 27.1233 32.7593 26.8066 32.7582Z" fill="url(#paint0_linear_1_363)"/>
<defs>
<linearGradient id="paint0_linear_1_363" x1="21.0538" y1="61.0253" x2="54.6895" y2="46.4865" gradientUnits="userSpaceOnUse">
<stop stop-color="#0D748B"/>
<stop offset="1" stop-color="#1A0B73"/>
</linearGradient>
</defs>
</svg>
