<svg width="80" height="80" viewBox="0 0 80 80" fill="none" xmlns="http://www.w3.org/2000/svg">
<circle cx="40" cy="40" r="40" fill="white"/>
<circle cx="40" cy="40" r="30" fill="#F0F5FB"/>
<path d="M39.1973 40.8945L57.8652 42.1885C57.2718 47.0197 54.7339 51.5972 50.46 54.6484C42.3698 60.4245 31.1292 58.5485 25.3525 50.459C19.5762 42.3696 21.451 31.1282 29.541 25.3516C31.3863 24.0344 33.396 23.1167 35.4668 22.5781L39.1973 40.8945ZM37.335 22.1963C43.8111 21.2321 50.5831 23.8472 54.6484 29.541C56.9754 32.8001 58.0599 36.5704 57.9971 40.2891L40.7891 39.0996L37.335 22.1963Z" fill="white"/>
<path d="M39.1973 40.8945L57.8652 42.1885C57.2718 47.0197 54.7339 51.5972 50.46 54.6484C42.3698 60.4245 31.1292 58.5485 25.3525 50.459C19.5762 42.3696 21.451 31.1282 29.541 25.3516C31.3863 24.0344 33.396 23.1167 35.4668 22.5781L39.1973 40.8945ZM37.335 22.1963C43.8111 21.2321 50.5831 23.8472 54.6484 29.541C56.9754 32.8001 58.0599 36.5704 57.9971 40.2891L40.7891 39.0996L37.335 22.1963Z" fill="url(#paint0_linear_1_379)"/>
<defs>
<linearGradient id="paint0_linear_1_379" x1="21.0539" y1="70.8045" x2="57.777" y2="59.9705" gradientUnits="userSpaceOnUse">
<stop stop-color="#0D748B"/>
<stop offset="1" stop-color="#1A0B73"/>
</linearGradient>
</defs>
</svg>
