<svg width="80" height="80" viewBox="0 0 80 80" fill="none" xmlns="http://www.w3.org/2000/svg">
<circle cx="40" cy="40" r="40" fill="white"/>
<circle cx="40" cy="40" r="30" fill="#F0F5FB"/>
<path d="M33.625 26.4121V28.2178C33.6253 28.692 34.0099 29.0762 34.4834 29.0762H46.0098C46.4833 29.0762 46.8679 28.6919 46.8682 28.2178V26.4121H50.9883C52.4071 26.4121 53.5613 27.5681 53.5615 28.9893V55.4229C53.5613 56.8439 52.4072 58 50.9883 58H29.5049C28.0861 58 26.9319 56.844 26.9316 55.4229V28.9893C26.9318 27.5682 28.086 26.4121 29.5049 26.4121H33.625ZM46.7412 46.0576C45.6589 46.0576 44.6423 46.4741 43.8789 47.2305C43.1073 47.9948 42.6817 49.0221 42.6816 50.123V50.3301C42.6816 51.4142 43.0974 52.4326 43.8525 53.1973C44.6159 53.9702 45.642 54.3955 46.7412 54.3955C47.8624 54.3955 48.904 53.9586 49.6738 53.165C50.4281 52.3872 50.8277 51.3582 50.7998 50.2666V50.123C50.7998 49.0393 50.384 48.0208 49.6289 47.2559C48.8656 46.4832 47.8402 46.0577 46.7412 46.0576ZM46.7412 47.7754C48.0554 47.7755 49.085 48.8067 49.085 50.123V50.3027C49.103 50.9311 48.8753 51.5225 48.4434 51.9678C47.9992 52.4253 47.3946 52.6777 46.7412 52.6777C45.427 52.6777 44.3975 51.6464 44.3975 50.3301V50.123C44.3975 48.8067 45.427 47.7757 46.7412 47.7754ZM32.2666 45.5078C31.7927 45.5078 31.4092 45.8925 31.4092 46.3672C31.4093 46.8415 31.7931 47.2265 32.2666 47.2266H38.4443C38.9179 47.2266 39.3026 46.8415 39.3027 46.3672C39.3027 45.8927 38.918 45.5078 38.4443 45.5078H32.2666ZM32.2666 39.3193C31.7927 39.3194 31.4092 39.704 31.4092 40.1787C31.4092 40.6531 31.793 41.0381 32.2666 41.0381H48.2275C48.7012 41.0381 49.0859 40.6531 49.0859 40.1787C49.0859 39.7043 48.7012 39.3193 48.2275 39.3193H32.2666ZM32.2666 33.1309C31.7927 33.1309 31.4093 33.5159 31.4092 33.9902C31.4092 34.4647 31.793 34.8496 32.2666 34.8496H48.2275C48.7012 34.8496 49.0859 34.4646 49.0859 33.9902C49.0858 33.5159 48.7011 33.1309 48.2275 33.1309H32.2666ZM43.4365 22C44.3825 22 45.1523 22.7712 45.1523 23.7188V27.3584H35.3408V23.7188C35.3408 22.7713 36.1098 22.0001 37.0557 22H43.4365Z" fill="white"/>
<path d="M33.625 26.4121V28.2178C33.6253 28.692 34.0099 29.0762 34.4834 29.0762H46.0098C46.4833 29.0762 46.8679 28.6919 46.8682 28.2178V26.4121H50.9883C52.4071 26.4121 53.5613 27.5681 53.5615 28.9893V55.4229C53.5613 56.8439 52.4072 58 50.9883 58H29.5049C28.0861 58 26.9319 56.844 26.9316 55.4229V28.9893C26.9318 27.5682 28.086 26.4121 29.5049 26.4121H33.625ZM46.7412 46.0576C45.6589 46.0576 44.6423 46.4741 43.8789 47.2305C43.1073 47.9948 42.6817 49.0221 42.6816 50.123V50.3301C42.6816 51.4142 43.0974 52.4326 43.8525 53.1973C44.6159 53.9702 45.642 54.3955 46.7412 54.3955C47.8624 54.3955 48.904 53.9586 49.6738 53.165C50.4281 52.3872 50.8277 51.3582 50.7998 50.2666V50.123C50.7998 49.0393 50.384 48.0208 49.6289 47.2559C48.8656 46.4832 47.8402 46.0577 46.7412 46.0576ZM46.7412 47.7754C48.0554 47.7755 49.085 48.8067 49.085 50.123V50.3027C49.103 50.9311 48.8753 51.5225 48.4434 51.9678C47.9992 52.4253 47.3946 52.6777 46.7412 52.6777C45.427 52.6777 44.3975 51.6464 44.3975 50.3301V50.123C44.3975 48.8067 45.427 47.7757 46.7412 47.7754ZM32.2666 45.5078C31.7927 45.5078 31.4092 45.8925 31.4092 46.3672C31.4093 46.8415 31.7931 47.2265 32.2666 47.2266H38.4443C38.9179 47.2266 39.3026 46.8415 39.3027 46.3672C39.3027 45.8927 38.918 45.5078 38.4443 45.5078H32.2666ZM32.2666 39.3193C31.7927 39.3194 31.4092 39.704 31.4092 40.1787C31.4092 40.6531 31.793 41.0381 32.2666 41.0381H48.2275C48.7012 41.0381 49.0859 40.6531 49.0859 40.1787C49.0859 39.7043 48.7012 39.3193 48.2275 39.3193H32.2666ZM32.2666 33.1309C31.7927 33.1309 31.4093 33.5159 31.4092 33.9902C31.4092 34.4647 31.793 34.8496 32.2666 34.8496H48.2275C48.7012 34.8496 49.0859 34.4646 49.0859 33.9902C49.0858 33.5159 48.7011 33.1309 48.2275 33.1309H32.2666ZM43.4365 22C44.3825 22 45.1523 22.7712 45.1523 23.7188V27.3584H35.3408V23.7188C35.3408 22.7713 36.1098 22.0001 37.0557 22H43.4365Z" fill="url(#paint0_linear_1_371)"/>
<defs>
<linearGradient id="paint0_linear_1_371" x1="26.2318" y1="70.8045" x2="54.4189" y2="64.6531" gradientUnits="userSpaceOnUse">
<stop stop-color="#0D748B"/>
<stop offset="1" stop-color="#1A0B73"/>
</linearGradient>
</defs>
</svg>
