<svg width="80" height="80" viewBox="0 0 80 80" fill="none" xmlns="http://www.w3.org/2000/svg">
<circle cx="40" cy="40" r="40" fill="white"/>
<circle cx="40" cy="40" r="30" fill="#F0F5FB"/>
<path d="M43.5137 50.6416C43.7215 50.5319 43.9708 50.5319 44.1787 50.6416L44.4795 50.7686C44.7781 50.9108 45.0692 51.0687 45.3506 51.2422C45.6062 51.4032 45.85 51.5827 46.0791 51.7793C46.8193 52.3671 47.3967 53.1338 47.7568 54.0068C48.0335 54.7007 48.1787 55.4406 48.1846 56.1875L48.1807 56.3066C48.1594 56.5845 48.0565 56.851 47.8838 57.0723C47.6699 57.3321 47.4064 57.547 47.1084 57.7041C46.4798 58.0591 45.8021 58.3203 45.0977 58.4785C43.4964 58.7978 41.8689 58.9724 40.2363 59C38.6037 58.9737 36.9768 58.7991 35.376 58.4785C34.6671 58.3177 33.9849 58.0567 33.3496 57.7041C33.0589 57.5427 32.8005 57.3285 32.5889 57.0723C32.3859 56.8227 32.2791 56.5088 32.2881 56.1875C32.2939 55.4406 32.4392 54.7008 32.7158 54.0068C33.0442 53.2066 33.5539 52.4933 34.2041 51.9219C34.4938 51.6741 34.8012 51.4468 35.123 51.2422L35.7715 50.8789L36.2783 50.6416L36.3584 50.6055C36.5482 50.5336 36.7613 50.5457 36.9434 50.6416C37.3392 50.8824 37.7584 51.0837 38.1943 51.2422C38.8537 51.4573 39.5425 51.5697 40.2363 51.5742C40.925 51.5708 41.6098 51.4587 42.2637 51.2422C42.6992 51.0838 43.1177 50.8823 43.5137 50.6416ZM28.6787 37.2588C28.4832 38.0455 28.3734 38.8506 28.3506 39.6602L28.3467 40.0078C28.3448 42.2382 28.9854 44.4219 30.1924 46.2988C31.3996 48.1757 33.1218 49.6664 35.1543 50.5938L34.6484 50.8945C34.302 51.1097 33.9729 51.3527 33.666 51.6211C31.5753 50.4842 29.8301 48.8046 28.6152 46.7607C27.4005 44.7171 26.761 42.384 26.7637 40.0078C26.7756 39.0821 26.8868 38.1607 27.0957 37.2588H28.6787ZM52.9512 37.3057C53.1399 38.1938 53.2348 39.0998 53.2354 40.0078C53.2359 42.3204 52.6282 44.5928 51.4727 46.5977C50.3167 48.6023 48.6534 50.2698 46.6494 51.4316C46.4017 51.2207 46.1365 51.0298 45.8574 50.8623C45.6273 50.7042 45.3834 50.5673 45.1289 50.4521C47.0821 49.4909 48.7271 48.003 49.877 46.1572C51.0271 44.3116 51.6367 42.1812 51.6367 40.0078C51.6497 39.1314 51.5591 38.2559 51.3672 37.4004L52.9512 37.3057ZM40.9336 43.168C41.6377 43.2925 42.2896 43.6215 42.8076 44.1133C43.3255 44.6049 43.6865 45.2375 43.8467 45.9326C44.0774 46.8745 43.9299 47.8696 43.4355 48.7041C42.9409 49.5387 42.1385 50.1472 41.2002 50.3994C40.2623 50.6516 39.2629 50.5273 38.415 50.0537C37.5673 49.58 36.9386 48.7942 36.6641 47.8643C36.3893 46.9344 36.4897 45.9342 36.9443 45.0771C37.3991 44.2203 38.1724 43.5743 39.0977 43.2783C39.3957 43.2222 39.6972 43.1852 40 43.168H40.9336ZM54.3916 28.6162C54.5998 28.5065 54.8485 28.5065 55.0566 28.6162C55.4641 28.7813 55.8566 28.9823 56.2285 29.2168C57.2996 29.8585 58.1418 30.8203 58.6348 31.9658C58.8888 32.6697 59.0123 33.4143 58.999 34.1621C59.0013 34.4823 58.8954 34.7942 58.6982 35.0469C58.4843 35.3069 58.2208 35.5219 57.9229 35.6787C57.2973 36.0406 56.6179 36.3021 55.9111 36.4531C54.905 36.6727 53.8833 36.8145 52.8555 36.8789C52.2381 36.879 51.6679 36.9746 51.2725 36.9746H51.083C49.4502 36.9484 47.8227 36.7737 46.2217 36.4531C45.5107 36.2995 44.8274 36.0382 44.1953 35.6787C43.9046 35.5174 43.6469 35.303 43.4355 35.0469C43.2437 34.7932 43.1481 34.4797 43.166 34.1621C43.1729 33.4103 43.3182 32.6657 43.5938 31.9658C43.971 31.0722 44.5702 30.2886 45.335 29.6904C45.5433 29.5148 45.7659 29.3566 46 29.2168C46.287 29.0433 46.583 28.8845 46.8867 28.7422L47.1562 28.6162C47.3641 28.5065 47.6131 28.5065 47.8213 28.6162C48.221 28.8601 48.6457 29.0616 49.0879 29.2168C50.4022 29.6597 51.8263 29.6597 53.1406 29.2168C53.5779 29.0615 53.9974 28.8602 54.3916 28.6162ZM32.2412 28.5205C32.4493 28.4111 32.6981 28.4112 32.9062 28.5205L33.2549 28.6787C33.5338 28.8072 33.8042 28.955 34.0625 29.1211C34.3204 29.2728 34.5637 29.4477 34.79 29.6426C35.5232 30.2376 36.0997 31.002 36.4688 31.8701C36.7225 32.5737 36.8462 33.3183 36.833 34.0664C36.8354 34.3866 36.7294 34.6984 36.5322 34.9512C36.321 35.2073 36.063 35.4217 35.7725 35.583C35.1371 35.9359 34.454 36.1966 33.7451 36.3574C32.1533 36.6642 30.537 36.8286 28.916 36.8477H28.7578C28.3145 36.8477 27.7444 36.8478 27.1748 36.7529C26.1637 36.6954 25.1585 36.5627 24.167 36.3574C23.435 36.2067 22.7295 35.9455 22.0762 35.583C21.7782 35.4262 21.5147 35.2112 21.3008 34.9512C21.1036 34.6984 20.9976 34.3867 21 34.0664C21.0072 33.3143 21.1522 32.5698 21.4277 31.8701C21.921 30.7244 22.7627 29.7627 23.834 29.1211C24.206 28.8869 24.5981 28.6856 25.0059 28.5205C25.2137 28.4111 25.463 28.4111 25.6709 28.5205C26.0635 28.7674 26.4836 28.9693 26.9219 29.1211C28.2365 29.5642 29.66 29.5643 30.9746 29.1211C31.4167 28.9661 31.8414 28.7645 32.2412 28.5205ZM40 26.8301C42.211 26.8129 44.3902 27.3565 46.333 28.4102C46.012 28.5625 45.7043 28.7425 45.4141 28.9473C45.1821 29.0847 44.9598 29.2386 44.749 29.4062C43.2539 28.7458 41.635 28.411 40 28.4258C38.4176 28.4436 36.8552 28.7828 35.4082 29.4219C35.1441 29.2131 34.8692 29.0173 34.585 28.8369C34.3317 28.679 34.094 28.5365 33.8408 28.4102C35.734 27.3902 37.8488 26.8476 40 26.8301ZM29.1855 21.0479H29.6445C30.3526 21.1748 31.0078 21.508 31.5264 22.0059C32.0447 22.5034 32.404 23.1429 32.5586 23.8438C32.7893 24.7859 32.6408 25.7807 32.1465 26.6152C31.6519 27.4497 30.8502 28.0582 29.9121 28.3105C28.9741 28.5628 27.9739 28.4386 27.126 27.9648C26.2783 27.4911 25.6495 26.7053 25.375 25.7754C25.1003 24.8452 25.2015 23.8451 25.6562 22.9883C26.111 22.1314 26.8834 21.4855 27.8086 21.1895C28.0695 21.1232 28.3341 21.0702 28.6006 21.0312H29.1543L29.1855 21.0479ZM51.2881 21.0479H51.7471C52.4511 21.1726 53.1031 21.5004 53.6211 21.9922C54.1393 22.4839 54.5 23.1173 54.6602 23.8125C54.8909 24.7544 54.7434 25.7492 54.249 26.584C53.7544 27.4186 52.952 28.027 52.0137 28.2793C51.0758 28.5314 50.0763 28.4074 49.2285 27.9336C48.3809 27.4599 47.7521 26.6742 47.4775 25.7441C47.2027 24.8141 47.303 23.8129 47.7578 22.9561C48.2126 22.0993 48.986 21.4542 49.9111 21.1582C50.1714 21.0904 50.4356 21.0376 50.7021 21H51.2568L51.2881 21.0479Z" fill="white"/>
<path d="M43.5137 50.6416C43.7215 50.5319 43.9708 50.5319 44.1787 50.6416L44.4795 50.7686C44.7781 50.9108 45.0692 51.0687 45.3506 51.2422C45.6062 51.4032 45.85 51.5827 46.0791 51.7793C46.8193 52.3671 47.3967 53.1338 47.7568 54.0068C48.0335 54.7007 48.1787 55.4406 48.1846 56.1875L48.1807 56.3066C48.1594 56.5845 48.0565 56.851 47.8838 57.0723C47.6699 57.3321 47.4064 57.547 47.1084 57.7041C46.4798 58.0591 45.8021 58.3203 45.0977 58.4785C43.4964 58.7978 41.8689 58.9724 40.2363 59C38.6037 58.9737 36.9768 58.7991 35.376 58.4785C34.6671 58.3177 33.9849 58.0567 33.3496 57.7041C33.0589 57.5427 32.8005 57.3285 32.5889 57.0723C32.3859 56.8227 32.2791 56.5088 32.2881 56.1875C32.2939 55.4406 32.4392 54.7008 32.7158 54.0068C33.0442 53.2066 33.5539 52.4933 34.2041 51.9219C34.4938 51.6741 34.8012 51.4468 35.123 51.2422L35.7715 50.8789L36.2783 50.6416L36.3584 50.6055C36.5482 50.5336 36.7613 50.5457 36.9434 50.6416C37.3392 50.8824 37.7584 51.0837 38.1943 51.2422C38.8537 51.4573 39.5425 51.5697 40.2363 51.5742C40.925 51.5708 41.6098 51.4587 42.2637 51.2422C42.6992 51.0838 43.1177 50.8823 43.5137 50.6416ZM28.6787 37.2588C28.4832 38.0455 28.3734 38.8506 28.3506 39.6602L28.3467 40.0078C28.3448 42.2382 28.9854 44.4219 30.1924 46.2988C31.3996 48.1757 33.1218 49.6664 35.1543 50.5938L34.6484 50.8945C34.302 51.1097 33.9729 51.3527 33.666 51.6211C31.5753 50.4842 29.8301 48.8046 28.6152 46.7607C27.4005 44.7171 26.761 42.384 26.7637 40.0078C26.7756 39.0821 26.8868 38.1607 27.0957 37.2588H28.6787ZM52.9512 37.3057C53.1399 38.1938 53.2348 39.0998 53.2354 40.0078C53.2359 42.3204 52.6282 44.5928 51.4727 46.5977C50.3167 48.6023 48.6534 50.2698 46.6494 51.4316C46.4017 51.2207 46.1365 51.0298 45.8574 50.8623C45.6273 50.7042 45.3834 50.5673 45.1289 50.4521C47.0821 49.4909 48.7271 48.003 49.877 46.1572C51.0271 44.3116 51.6367 42.1812 51.6367 40.0078C51.6497 39.1314 51.5591 38.2559 51.3672 37.4004L52.9512 37.3057ZM40.9336 43.168C41.6377 43.2925 42.2896 43.6215 42.8076 44.1133C43.3255 44.6049 43.6865 45.2375 43.8467 45.9326C44.0774 46.8745 43.9299 47.8696 43.4355 48.7041C42.9409 49.5387 42.1385 50.1472 41.2002 50.3994C40.2623 50.6516 39.2629 50.5273 38.415 50.0537C37.5673 49.58 36.9386 48.7942 36.6641 47.8643C36.3893 46.9344 36.4897 45.9342 36.9443 45.0771C37.3991 44.2203 38.1724 43.5743 39.0977 43.2783C39.3957 43.2222 39.6972 43.1852 40 43.168H40.9336ZM54.3916 28.6162C54.5998 28.5065 54.8485 28.5065 55.0566 28.6162C55.4641 28.7813 55.8566 28.9823 56.2285 29.2168C57.2996 29.8585 58.1418 30.8203 58.6348 31.9658C58.8888 32.6697 59.0123 33.4143 58.999 34.1621C59.0013 34.4823 58.8954 34.7942 58.6982 35.0469C58.4843 35.3069 58.2208 35.5219 57.9229 35.6787C57.2973 36.0406 56.6179 36.3021 55.9111 36.4531C54.905 36.6727 53.8833 36.8145 52.8555 36.8789C52.2381 36.879 51.6679 36.9746 51.2725 36.9746H51.083C49.4502 36.9484 47.8227 36.7737 46.2217 36.4531C45.5107 36.2995 44.8274 36.0382 44.1953 35.6787C43.9046 35.5174 43.6469 35.303 43.4355 35.0469C43.2437 34.7932 43.1481 34.4797 43.166 34.1621C43.1729 33.4103 43.3182 32.6657 43.5938 31.9658C43.971 31.0722 44.5702 30.2886 45.335 29.6904C45.5433 29.5148 45.7659 29.3566 46 29.2168C46.287 29.0433 46.583 28.8845 46.8867 28.7422L47.1562 28.6162C47.3641 28.5065 47.6131 28.5065 47.8213 28.6162C48.221 28.8601 48.6457 29.0616 49.0879 29.2168C50.4022 29.6597 51.8263 29.6597 53.1406 29.2168C53.5779 29.0615 53.9974 28.8602 54.3916 28.6162ZM32.2412 28.5205C32.4493 28.4111 32.6981 28.4112 32.9062 28.5205L33.2549 28.6787C33.5338 28.8072 33.8042 28.955 34.0625 29.1211C34.3204 29.2728 34.5637 29.4477 34.79 29.6426C35.5232 30.2376 36.0997 31.002 36.4688 31.8701C36.7225 32.5737 36.8462 33.3183 36.833 34.0664C36.8354 34.3866 36.7294 34.6984 36.5322 34.9512C36.321 35.2073 36.063 35.4217 35.7725 35.583C35.1371 35.9359 34.454 36.1966 33.7451 36.3574C32.1533 36.6642 30.537 36.8286 28.916 36.8477H28.7578C28.3145 36.8477 27.7444 36.8478 27.1748 36.7529C26.1637 36.6954 25.1585 36.5627 24.167 36.3574C23.435 36.2067 22.7295 35.9455 22.0762 35.583C21.7782 35.4262 21.5147 35.2112 21.3008 34.9512C21.1036 34.6984 20.9976 34.3867 21 34.0664C21.0072 33.3143 21.1522 32.5698 21.4277 31.8701C21.921 30.7244 22.7627 29.7627 23.834 29.1211C24.206 28.8869 24.5981 28.6856 25.0059 28.5205C25.2137 28.4111 25.463 28.4111 25.6709 28.5205C26.0635 28.7674 26.4836 28.9693 26.9219 29.1211C28.2365 29.5642 29.66 29.5643 30.9746 29.1211C31.4167 28.9661 31.8414 28.7645 32.2412 28.5205ZM40 26.8301C42.211 26.8129 44.3902 27.3565 46.333 28.4102C46.012 28.5625 45.7043 28.7425 45.4141 28.9473C45.1821 29.0847 44.9598 29.2386 44.749 29.4062C43.2539 28.7458 41.635 28.411 40 28.4258C38.4176 28.4436 36.8552 28.7828 35.4082 29.4219C35.1441 29.2131 34.8692 29.0173 34.585 28.8369C34.3317 28.679 34.094 28.5365 33.8408 28.4102C35.734 27.3902 37.8488 26.8476 40 26.8301ZM29.1855 21.0479H29.6445C30.3526 21.1748 31.0078 21.508 31.5264 22.0059C32.0447 22.5034 32.404 23.1429 32.5586 23.8438C32.7893 24.7859 32.6408 25.7807 32.1465 26.6152C31.6519 27.4497 30.8502 28.0582 29.9121 28.3105C28.9741 28.5628 27.9739 28.4386 27.126 27.9648C26.2783 27.4911 25.6495 26.7053 25.375 25.7754C25.1003 24.8452 25.2015 23.8451 25.6562 22.9883C26.111 22.1314 26.8834 21.4855 27.8086 21.1895C28.0695 21.1232 28.3341 21.0702 28.6006 21.0312H29.1543L29.1855 21.0479ZM51.2881 21.0479H51.7471C52.4511 21.1726 53.1031 21.5004 53.6211 21.9922C54.1393 22.4839 54.5 23.1173 54.6602 23.8125C54.8909 24.7544 54.7434 25.7492 54.249 26.584C53.7544 27.4186 52.952 28.027 52.0137 28.2793C51.0758 28.5314 50.0763 28.4074 49.2285 27.9336C48.3809 27.4599 47.7521 26.6742 47.4775 25.7441C47.2027 24.8141 47.303 23.8129 47.7578 22.9561C48.2126 22.0993 48.986 21.4542 49.9111 21.1582C50.1714 21.0904 50.4356 21.0376 50.7021 21H51.2568L51.2881 21.0479Z" fill="url(#paint0_linear_1_403)"/>
<defs>
<linearGradient id="paint0_linear_1_403" x1="20.0013" y1="72.5159" x2="58.7651" y2="61.0796" gradientUnits="userSpaceOnUse">
<stop stop-color="#0D748B"/>
<stop offset="1" stop-color="#1A0B73"/>
</linearGradient>
</defs>
</svg>
