<svg width="80" height="80" viewBox="0 0 80 80" fill="none" xmlns="http://www.w3.org/2000/svg">
<circle cx="40" cy="40" r="40" fill="white"/>
<circle cx="40" cy="40" r="30" fill="#F0F5FB"/>
<path d="M50.6611 23.9736C51.991 22.6214 55.0649 21.6916 56.3945 23.0439L57.3496 24.0156C58.6792 25.368 57.7657 28.495 56.4365 29.8477L49.9131 35.9756L51.9072 50.3018C51.9904 50.8934 51.6998 51.7804 51.2842 52.2031L50.0381 53.4707C49.5811 53.8931 49.041 53.8092 48.75 53.2598L43.4727 42.5684L34.374 50.0059L35.5371 54.9082C35.5784 55.4998 35.2466 56.3869 34.8311 56.8096L33.585 58.0771C33.1695 58.5419 32.5464 58.4577 32.2139 57.9512L30.3018 51.9502C29.9693 51.4432 29.2631 50.7249 28.7646 50.3867L22.4082 48.0195C21.9097 47.6815 21.8676 47.0477 22.2832 46.625L23.5303 45.3574C23.9456 44.9351 24.7764 44.5965 25.3994 44.6387L30.4688 45.8643L37.6982 36.6943L26.9785 31.2002C26.4383 30.9045 26.3549 30.3124 26.7705 29.8896L28.0166 28.6221C28.4319 28.1997 29.2636 27.9037 29.8867 27.9883L44.6777 30.0596L50.6611 23.9736ZM51.6162 38.8916C52.1147 38.7224 52.6967 38.8489 53.1123 39.2715L53.5283 39.6943C54.1096 40.3283 54.1097 41.3001 53.5283 41.8916L52.1152 42.9482C51.9075 43.117 51.7416 43.0322 51.7002 42.7363L51.6162 42.0186V41.9766L51.2842 39.4834V39.3564C51.2842 39.1451 51.4092 38.9762 51.5752 38.8916H51.6162ZM54.4004 24.7764C53.5695 23.9314 52.6132 23.9317 51.6992 24.8613C51.3673 25.1992 52.5306 25.0731 53.8184 26.3828C55.1473 27.7344 55.1065 29.0018 55.4385 28.665C56.3526 27.7353 56.3944 26.763 55.5635 25.96L54.4004 24.7764ZM38.0713 26.4248C38.6947 25.8332 39.6508 25.8332 40.2324 26.4248L40.6475 26.8477C41.0626 27.2278 41.1874 27.8612 41.0215 28.3682V28.4111C40.9382 28.6223 40.7305 28.7491 40.4814 28.707L37.2402 28.2422C36.9498 28.1999 36.8672 28.0308 37.0332 27.8613L38.0713 26.4248Z" fill="white"/>
<path d="M50.6611 23.9736C51.991 22.6214 55.0649 21.6916 56.3945 23.0439L57.3496 24.0156C58.6792 25.368 57.7657 28.495 56.4365 29.8477L49.9131 35.9756L51.9072 50.3018C51.9904 50.8934 51.6998 51.7804 51.2842 52.2031L50.0381 53.4707C49.5811 53.8931 49.041 53.8092 48.75 53.2598L43.4727 42.5684L34.374 50.0059L35.5371 54.9082C35.5784 55.4998 35.2466 56.3869 34.8311 56.8096L33.585 58.0771C33.1695 58.5419 32.5464 58.4577 32.2139 57.9512L30.3018 51.9502C29.9693 51.4432 29.2631 50.7249 28.7646 50.3867L22.4082 48.0195C21.9097 47.6815 21.8676 47.0477 22.2832 46.625L23.5303 45.3574C23.9456 44.9351 24.7764 44.5965 25.3994 44.6387L30.4688 45.8643L37.6982 36.6943L26.9785 31.2002C26.4383 30.9045 26.3549 30.3124 26.7705 29.8896L28.0166 28.6221C28.4319 28.1997 29.2636 27.9037 29.8867 27.9883L44.6777 30.0596L50.6611 23.9736ZM51.6162 38.8916C52.1147 38.7224 52.6967 38.8489 53.1123 39.2715L53.5283 39.6943C54.1096 40.3283 54.1097 41.3001 53.5283 41.8916L52.1152 42.9482C51.9075 43.117 51.7416 43.0322 51.7002 42.7363L51.6162 42.0186V41.9766L51.2842 39.4834V39.3564C51.2842 39.1451 51.4092 38.9762 51.5752 38.8916H51.6162ZM54.4004 24.7764C53.5695 23.9314 52.6132 23.9317 51.6992 24.8613C51.3673 25.1992 52.5306 25.0731 53.8184 26.3828C55.1473 27.7344 55.1065 29.0018 55.4385 28.665C56.3526 27.7353 56.3944 26.763 55.5635 25.96L54.4004 24.7764ZM38.0713 26.4248C38.6947 25.8332 39.6508 25.8332 40.2324 26.4248L40.6475 26.8477C41.0626 27.2278 41.1874 27.8612 41.0215 28.3682V28.4111C40.9382 28.6223 40.7305 28.7491 40.4814 28.707L37.2402 28.2422C36.9498 28.1999 36.8672 28.0308 37.0332 27.8613L38.0713 26.4248Z" fill="url(#paint0_linear_1_386)"/>
<defs>
<linearGradient id="paint0_linear_1_386" x1="21.0538" y1="71.1874" x2="57.7775" y2="60.353" gradientUnits="userSpaceOnUse">
<stop stop-color="#0D748B"/>
<stop offset="1" stop-color="#1A0B73"/>
</linearGradient>
</defs>
</svg>
