<svg width="36" height="36" viewBox="0 0 36 36" fill="none" xmlns="http://www.w3.org/2000/svg">
<rect width="36" height="36" rx="18" fill="white"/>
<rect width="36" height="36" rx="18" fill="url(#paint0_linear_112_75)"/>
<g clip-path="url(#clip0_112_75)">
<path d="M9 10.4849C9 10.3298 9.06184 10.181 9.17192 10.0712C9.28199 9.96154 9.43129 9.8999 9.58696 9.8999H11.3478C11.4788 9.89994 11.6059 9.9436 11.7091 10.024C11.8122 10.1043 11.8855 10.2167 11.9172 10.3433L12.3926 12.2399H26.0217C26.1109 12.2399 26.1989 12.2602 26.279 12.2992C26.3591 12.3381 26.4293 12.3948 26.4842 12.4648C26.539 12.5349 26.5772 12.6164 26.5957 12.7033C26.6142 12.7903 26.6127 12.8803 26.5911 12.9665L24.8302 19.9865C24.7985 20.1131 24.7253 20.2255 24.6221 20.3059C24.519 20.3862 24.3918 20.4299 24.2609 20.4299H13.6957C13.5647 20.4299 13.4376 20.3862 13.3344 20.3059C13.2312 20.2255 13.158 20.1131 13.1263 19.9865L10.89 11.0699H9.58696C9.43129 11.0699 9.28199 11.0083 9.17192 10.8986C9.06184 10.7889 9 10.6401 9 10.4849ZM12.6861 13.4099L14.1535 19.2599H23.803L25.2704 13.4099H12.6861ZM14.8696 22.7699C14.5582 22.7699 14.2596 22.8932 14.0395 23.1126C13.8193 23.332 13.6957 23.6296 13.6957 23.9399C13.6957 24.2502 13.8193 24.5478 14.0395 24.7672C14.2596 24.9866 14.5582 25.1099 14.8696 25.1099C15.1809 25.1099 15.4795 24.9866 15.6996 24.7672C15.9198 24.5478 16.0435 24.2502 16.0435 23.9399C16.0435 23.6296 15.9198 23.332 15.6996 23.1126C15.4795 22.8932 15.1809 22.7699 14.8696 22.7699ZM12.5217 23.9399C12.5217 23.3193 12.7691 22.7241 13.2094 22.2853C13.6497 21.8464 14.2469 21.5999 14.8696 21.5999C15.4922 21.5999 16.0894 21.8464 16.5297 22.2853C16.97 22.7241 17.2174 23.3193 17.2174 23.9399C17.2174 24.5605 16.97 25.1557 16.5297 25.5945C16.0894 26.0334 15.4922 26.2799 14.8696 26.2799C14.2469 26.2799 13.6497 26.0334 13.2094 25.5945C12.7691 25.1557 12.5217 24.5605 12.5217 23.9399ZM23.087 22.7699C22.7756 22.7699 22.477 22.8932 22.2569 23.1126C22.0367 23.332 21.913 23.6296 21.913 23.9399C21.913 24.2502 22.0367 24.5478 22.2569 24.7672C22.477 24.9866 22.7756 25.1099 23.087 25.1099C23.3983 25.1099 23.6969 24.9866 23.917 24.7672C24.1372 24.5478 24.2609 24.2502 24.2609 23.9399C24.2609 23.6296 24.1372 23.332 23.917 23.1126C23.6969 22.8932 23.3983 22.7699 23.087 22.7699ZM20.7391 23.9399C20.7391 23.3193 20.9865 22.7241 21.4268 22.2853C21.8671 21.8464 22.4643 21.5999 23.087 21.5999C23.7096 21.5999 24.3068 21.8464 24.7471 22.2853C25.1874 22.7241 25.4348 23.3193 25.4348 23.9399C25.4348 24.5605 25.1874 25.1557 24.7471 25.5945C24.3068 26.0334 23.7096 26.2799 23.087 26.2799C22.4643 26.2799 21.8671 26.0334 21.4268 25.5945C20.9865 25.1557 20.7391 24.5605 20.7391 23.9399Z" fill="white"/>
<path d="M9 10.4849C9 10.3298 9.06184 10.181 9.17192 10.0712C9.28199 9.96154 9.43129 9.8999 9.58696 9.8999H11.3478C11.4788 9.89994 11.6059 9.9436 11.7091 10.024C11.8122 10.1043 11.8855 10.2167 11.9172 10.3433L12.3926 12.2399H26.0217C26.1109 12.2399 26.1989 12.2602 26.279 12.2992C26.3591 12.3381 26.4293 12.3948 26.4842 12.4648C26.539 12.5349 26.5772 12.6164 26.5957 12.7033C26.6142 12.7903 26.6127 12.8803 26.5911 12.9665L24.8302 19.9865C24.7985 20.1131 24.7253 20.2255 24.6221 20.3059C24.519 20.3862 24.3918 20.4299 24.2609 20.4299H13.6957C13.5647 20.4299 13.4376 20.3862 13.3344 20.3059C13.2312 20.2255 13.158 20.1131 13.1263 19.9865L10.89 11.0699H9.58696C9.43129 11.0699 9.28199 11.0083 9.17192 10.8986C9.06184 10.7889 9 10.6401 9 10.4849ZM12.6861 13.4099L14.1535 19.2599H23.803L25.2704 13.4099H12.6861ZM14.8696 22.7699C14.5582 22.7699 14.2596 22.8932 14.0395 23.1126C13.8193 23.332 13.6957 23.6296 13.6957 23.9399C13.6957 24.2502 13.8193 24.5478 14.0395 24.7672C14.2596 24.9866 14.5582 25.1099 14.8696 25.1099C15.1809 25.1099 15.4795 24.9866 15.6996 24.7672C15.9198 24.5478 16.0435 24.2502 16.0435 23.9399C16.0435 23.6296 15.9198 23.332 15.6996 23.1126C15.4795 22.8932 15.1809 22.7699 14.8696 22.7699ZM12.5217 23.9399C12.5217 23.3193 12.7691 22.7241 13.2094 22.2853C13.6497 21.8464 14.2469 21.5999 14.8696 21.5999C15.4922 21.5999 16.0894 21.8464 16.5297 22.2853C16.97 22.7241 17.2174 23.3193 17.2174 23.9399C17.2174 24.5605 16.97 25.1557 16.5297 25.5945C16.0894 26.0334 15.4922 26.2799 14.8696 26.2799C14.2469 26.2799 13.6497 26.0334 13.2094 25.5945C12.7691 25.1557 12.5217 24.5605 12.5217 23.9399ZM23.087 22.7699C22.7756 22.7699 22.477 22.8932 22.2569 23.1126C22.0367 23.332 21.913 23.6296 21.913 23.9399C21.913 24.2502 22.0367 24.5478 22.2569 24.7672C22.477 24.9866 22.7756 25.1099 23.087 25.1099C23.3983 25.1099 23.6969 24.9866 23.917 24.7672C24.1372 24.5478 24.2609 24.2502 24.2609 23.9399C24.2609 23.6296 24.1372 23.332 23.917 23.1126C23.6969 22.8932 23.3983 22.7699 23.087 22.7699ZM20.7391 23.9399C20.7391 23.3193 20.9865 22.7241 21.4268 22.2853C21.8671 21.8464 22.4643 21.5999 23.087 21.5999C23.7096 21.5999 24.3068 21.8464 24.7471 22.2853C25.1874 22.7241 25.4348 23.3193 25.4348 23.9399C25.4348 24.5605 25.1874 25.1557 24.7471 25.5945C24.3068 26.0334 23.7096 26.2799 23.087 26.2799C22.4643 26.2799 21.8671 26.0334 21.4268 25.5945C20.9865 25.1557 20.7391 24.5605 20.7391 23.9399Z" fill="white"/>
</g>
<defs>
<linearGradient id="paint0_linear_112_75" x1="-0.946153" y1="48.8045" x2="35.7775" y2="37.9702" gradientUnits="userSpaceOnUse">
<stop stop-color="#0D748B"/>
<stop offset="1" stop-color="#1A0B73"/>
</linearGradient>
<clipPath id="clip0_112_75">
<rect width="18" height="18" fill="white" transform="translate(9 9)"/>
</clipPath>
</defs>
</svg>
