<svg width="216" height="200" viewBox="0 0 216 200" fill="none" xmlns="http://www.w3.org/2000/svg">
<path opacity="0.5" d="M186.207 124.932L192.716 128.716V143.851L186.207 140.068V124.932Z" fill="#5CFFF3"/>
<path opacity="0.2" d="M179.698 128.716L186.207 132.5V140.068L179.698 136.284V128.716Z" fill="#5CFFF3"/>
<path opacity="0.5" d="M173.189 102.162L179.698 105.946V136.284L173.189 132.5V102.162Z" fill="#5CFFF3"/>
<path opacity="0.2" d="M166.68 90.8108L173.189 94.5946V132.5L166.68 128.716V90.8108Z" fill="#5CFFF3"/>
<path opacity="0.5" d="M160.171 94.5946L166.68 98.3784V128.716L160.171 124.932V94.5946Z" fill="#5CFFF3"/>
<path opacity="0.2" d="M153.663 68.1082L160.171 71.8919V124.932L153.663 121.149V68.1082Z" fill="#5CFFF3"/>
<path opacity="0.5" d="M147.154 71.8918L153.663 75.6756V121.149L147.154 117.297V71.8918Z" fill="#5CFFF3"/>
<path opacity="0.2" d="M140.645 75.6757L147.154 79.4594V117.297L140.645 113.513V75.6757Z" fill="#5CFFF3"/>
<path opacity="0.5" d="M134.136 56.7567L140.645 60.5405V113.513L134.136 109.73V56.7567Z" fill="#5CFFF3"/>
<path opacity="0.2" d="M127.627 37.8379L134.136 41.6217V109.73L127.627 105.946V37.8379Z" fill="#5CFFF3"/>
<path opacity="0.5" d="M121.118 41.6216L127.627 45.4054V105.946L121.118 102.162V41.6216Z" fill="#5CFFF3"/>
<path opacity="0.2" d="M114.61 22.7028L121.118 26.4865V102.162L114.61 98.3784V22.7028Z" fill="#5CFFF3"/>
<path opacity="0.5" d="M108.101 18.9189L114.609 22.7027V98.3784L108.101 94.5946V18.9189Z" fill="#5CFFF3"/>
<path opacity="0.2" d="M101.592 0L108.101 3.78378V94.5946L101.592 90.8108V0Z" fill="#5CFFF3"/>
<path opacity="0.4" d="M107.967 200C140.912 200 167.62 184.481 167.62 165.338C167.62 146.194 140.912 130.676 107.967 130.676C75.0209 130.676 48.3132 146.194 48.3132 165.338C48.3132 184.481 75.0209 200 107.967 200Z" fill="#0F054C"/>
<path d="M107.966 186.216C145.47 186.216 175.873 168.55 175.873 146.757C175.873 124.964 145.47 107.297 107.966 107.297C70.4625 107.297 40.0596 124.964 40.0596 146.757C40.0596 168.55 70.4625 186.216 107.966 186.216Z" fill="url(#paint0_linear_1_192)"/>
<path opacity="0.48" d="M175.873 133.716H174.196C171.445 126.689 165.405 120 156.011 114.527C129.506 99.1215 86.5611 99.1215 59.9889 114.527C51.1314 119.662 45.2265 125.946 42.274 132.568H40.1268V141.284C39.59 151.757 46.233 162.365 59.9889 170.338C86.494 185.743 129.439 185.743 156.011 170.338C169.297 162.635 175.873 152.567 175.873 142.432V133.716Z" fill="url(#paint1_linear_1_192)"/>
<path opacity="0.48" d="M175.873 133.716H174.196C171.445 126.689 165.405 120 156.011 114.527C129.506 99.1215 86.5611 99.1215 59.9889 114.527C51.1314 119.662 45.2265 125.946 42.274 132.568H40.1268V141.284C39.59 151.757 46.233 162.365 59.9889 170.338C86.494 185.743 129.439 185.743 156.011 170.338C169.297 162.635 175.873 152.567 175.873 142.432V133.716Z" fill="url(#paint2_linear_1_192)"/>
<path opacity="0.48" d="M175.873 133.716H174.196C171.445 126.689 165.405 120 156.011 114.527C129.506 99.1215 86.5611 99.1215 59.9889 114.527C51.1314 119.662 45.2265 125.946 42.274 132.568H40.1268V141.284C39.59 151.757 46.233 162.365 59.9889 170.338C86.494 185.743 129.439 185.743 156.011 170.338C169.297 162.635 175.873 152.567 175.873 142.432V133.716Z" fill="url(#paint3_linear_1_192)"/>
<path d="M175.873 130.338H174.196C171.445 123.311 165.405 116.622 156.011 111.149C129.506 95.7433 86.5611 95.7433 59.9889 111.149C51.1314 116.284 45.2265 122.568 42.274 129.189H40.1268V137.905C39.59 148.378 46.233 158.986 59.9889 166.959C86.494 182.365 129.439 182.365 156.011 166.959C169.297 159.257 175.873 149.189 175.873 139.054V130.338Z" fill="url(#paint4_linear_1_192)"/>
<path opacity="0.48" d="M174.196 130.338C174.129 130.068 173.994 129.865 173.927 129.595V123.851H170.371V123.446C169.499 122.23 168.492 121.013 167.351 119.865V123.851H165.338V117.905C164.399 117.027 163.392 116.216 162.319 115.338V123.851H160.306V113.851C159.366 113.176 158.293 112.5 157.286 111.892V123.851H155.273V110.676C154.267 110.135 153.26 109.595 152.254 109.054V123.851H150.24V108.108C149.234 107.635 148.227 107.23 147.154 106.757V123.851H145.141V110H142.054V123.851H140.041V113.851H136.954V123.919H134.941V117.703H131.855V123.919H129.909V121.486H126.755V123.919H89.3122V121.486H86.2256V123.919H84.2796V117.703H81.1258V123.919H79.1128V113.851H76.0261V123.919H74.0131V110.068H70.9264V123.919H68.9133V106.824C67.9068 107.23 66.8332 107.703 65.8267 108.176V123.919H63.8136V109.122C62.8071 109.662 61.7335 110.203 60.7941 110.743V123.919H58.781V111.892C57.7074 112.568 56.7009 113.176 55.7614 113.851V123.851H53.7484V115.338C52.6748 116.149 51.6682 117.027 50.7288 117.905V123.919H48.7158V119.932C47.575 121.081 46.5685 122.297 45.6962 123.513V123.986H42.1398V129.257H40.6636V143.919C41.2004 146.554 42.2069 149.189 43.6831 151.689V142.5H45.7633V154.797C46.6356 156.013 47.6421 157.162 48.7829 158.378V142.568H50.7959V160.405C51.7353 161.284 52.7419 162.095 53.8155 162.973V142.635H55.8285V164.459C56.768 165.135 57.8416 165.811 58.8481 166.419V142.568H60.8612V167.568C61.8677 168.108 62.8742 168.649 63.8807 169.189V142.568H65.8938V170.135C66.9003 170.608 67.9068 171.013 68.9804 171.486V142.568H70.9935V172.297C72 172.703 73.0065 173.041 74.0802 173.378V142.568H76.0932V173.986C77.0997 174.324 78.1063 174.595 79.1799 174.865V142.5H81.1929V175.338C82.1995 175.608 83.2731 175.811 84.2796 176.081V142.5H86.2256V176.486C87.2321 176.689 88.3057 176.892 89.3122 177.027V142.5H91.2582V177.365C92.2647 177.5 93.3383 177.635 94.3448 177.77V142.5H96.2908V177.973C97.2973 178.108 98.3709 178.176 99.3775 178.243V142.5H101.323V178.378C102.397 178.446 103.404 178.513 104.477 178.513V142.5H106.423V178.581C107.497 178.581 108.503 178.581 109.577 178.581V142.5H111.523V178.513C112.596 178.513 113.603 178.446 114.677 178.378V142.5H116.623V178.243C117.696 178.176 118.703 178.108 119.709 177.973V142.5H121.655V177.77C122.729 177.635 123.735 177.5 124.742 177.365V142.5H126.688V177.027C127.694 176.824 128.768 176.689 129.774 176.486V142.5H131.72V176.013C132.727 175.811 133.801 175.54 134.807 175.27V142.432H136.82V174.797C137.827 174.527 138.9 174.189 139.907 173.919V142.5H141.92V173.311C142.926 172.973 144 172.568 145.007 172.23V142.568H147.02V171.486C148.026 171.081 149.1 170.608 150.106 170.135V142.568H152.119V169.189C153.126 168.649 154.199 168.108 155.139 167.568V142.568H157.152V166.351C158.226 165.676 159.232 165.068 160.172 164.392V142.568H162.185V162.905C163.258 162.095 164.265 161.216 165.204 160.338V142.568H167.217V158.378C168.358 157.23 169.364 156.013 170.237 154.797V142.568H172.317V151.689C173.793 149.122 174.8 146.486 175.336 143.851V130.473L174.196 130.338Z" fill="url(#paint5_linear_1_192)"/>
<path d="M107.966 169.797C145.47 169.797 175.873 152.131 175.873 130.338C175.873 108.545 145.47 90.8783 107.966 90.8783C70.4625 90.8783 40.0596 108.545 40.0596 130.338C40.0596 152.131 70.4625 169.797 107.966 169.797Z" fill="url(#paint6_linear_1_192)"/>
<path opacity="0.3" d="M108.033 90.8783C92.6672 90.8783 77.301 93.9188 64.753 99.9323L44.4883 144.257C47.7763 149.324 52.9431 154.122 59.9887 158.243C64.3503 160.811 69.1817 162.905 74.3485 164.595L108.033 90.8783Z" fill="#42E8E0"/>
<path opacity="0.3" d="M127.023 92.5L92.1975 168.784C100.518 169.932 109.174 170.135 117.629 169.459L149.704 99.2568C142.792 96.0811 135.075 93.8514 127.023 92.5Z" fill="#42E8E0"/>
<path d="M65.4912 108.041C88.9768 94.3919 127.023 94.3919 150.509 108.041C161.715 114.595 167.553 123.041 168.09 131.554C168.626 122.23 162.789 112.77 150.509 105.676C127.023 92.027 88.9768 92.027 65.4912 105.676C53.2116 112.77 47.3738 122.23 47.9106 131.554C48.3803 122.973 54.2853 114.527 65.4912 108.041Z" fill="url(#paint7_linear_1_192)"/>
<path d="M126.554 122.973C122.93 122.635 119.441 123.243 116.086 124.73C120.112 121.351 119.173 117.905 113.268 114.392C113.133 114.324 112.999 114.257 112.865 114.122C110.852 112.905 108.839 112.027 106.759 111.486C104.544 110.878 102.464 110.54 100.518 110.54C98.5724 110.54 96.6264 110.811 94.5463 111.351C93.4727 111.622 92.399 111.959 91.4596 112.297L87.7019 110.068L82.1325 113.311L85.2192 115.135C84.6824 115.405 84.0784 115.743 83.5416 116.081L81.5286 117.297L78.4419 115.473L72.8725 118.716L75.9591 120.54L72.1344 122.77L70.6581 123.649L70.2555 123.851L63.8809 127.568L69.4503 130.811L75.8249 127.095L116.019 150.473L109.644 154.189L115.214 157.432L121.588 153.716L123.534 152.635L127.359 150.405L130.513 152.23L136.082 148.986L134.069 147.838L132.928 147.162L136.619 145L139.773 146.824L145.342 143.581L143.329 142.432L141.719 141.486C143.933 139.527 145.074 137.635 145.208 135.676C145.342 132.77 142.927 129.797 137.961 126.892C137.827 126.824 137.76 126.757 137.625 126.689C133.868 124.459 130.177 123.311 126.554 122.973ZM89.1782 121.622L90.9899 120.608C95.4186 118.04 99.646 117.905 103.739 120.27C106.088 121.622 107.43 122.905 107.631 124.054C107.832 125.203 106.759 126.486 104.276 127.905L102.129 129.189L89.1782 121.622ZM124.943 142.432L109.577 133.513L111.791 132.23C114.341 130.743 116.69 130.068 118.904 130.203C121.119 130.338 123.668 131.216 126.554 132.905C129.104 134.392 130.513 135.811 130.714 137.095C130.915 138.378 129.775 139.73 127.359 141.149L124.943 142.432Z" fill="url(#paint8_linear_1_192)"/>
<path d="M72.8723 114.122V117.703L75.959 115.946L72.8723 114.122Z" fill="url(#paint9_linear_1_192)"/>
<path d="M82.1326 108.716V112.297L85.2863 110.541L82.1326 108.716Z" fill="url(#paint10_linear_1_192)"/>
<path d="M118.569 115.946V120.203L115.75 118.446L118.569 115.946Z" fill="url(#paint11_linear_1_192)"/>
<path d="M145.141 130.338V135.608L140.98 132.973L145.141 130.338Z" fill="url(#paint12_linear_1_192)"/>
<path d="M126.554 118.446C122.93 118.108 119.441 118.716 116.086 120.203C120.112 116.824 119.173 113.378 113.268 109.865C113.133 109.797 112.999 109.73 112.865 109.595C110.852 108.378 108.839 107.5 106.759 106.959C104.544 106.351 102.464 106.013 100.518 106.013C98.5724 106.013 96.6264 106.284 94.5463 106.824C93.4727 107.095 92.399 107.432 91.4596 107.77L87.7019 105.541L82.1325 108.784L85.2192 110.608C84.6824 110.878 84.0784 111.216 83.5416 111.554L81.5286 112.77L78.4419 110.946L72.8725 114.189L75.9591 116.013L72.1344 118.243L70.6581 119.122L70.2555 119.324L63.8809 123.041L69.4503 126.284L75.8249 122.568L116.019 145.946L109.644 149.662L115.214 152.905L121.588 149.189L123.534 148.108L127.359 145.878L130.513 147.703L136.082 144.459L134.069 143.311L132.928 142.635L136.619 140.473L139.773 142.297L145.342 139.054L143.329 137.905L141.719 136.959C143.933 135 145.074 133.108 145.208 131.149C145.342 128.243 142.927 125.27 137.961 122.365C137.827 122.297 137.76 122.23 137.625 122.162C133.868 119.932 130.177 118.716 126.554 118.446ZM89.1782 117.095L90.9899 116.081C95.4186 113.514 99.646 113.378 103.739 115.743C106.088 117.095 107.43 118.378 107.631 119.527C107.832 120.676 106.759 121.959 104.276 123.378L102.129 124.662L89.1782 117.095ZM124.943 137.905L109.577 128.986L111.791 127.703C114.341 126.216 116.69 125.541 118.904 125.676C121.119 125.811 123.668 126.689 126.554 128.378C129.104 129.865 130.513 131.284 130.714 132.568C130.915 133.851 129.775 135.203 127.359 136.622L124.943 137.905Z" fill="url(#paint13_linear_1_192)"/>
<path d="M145.275 138.986V143.513L139.706 146.757V142.162L145.275 138.986Z" fill="url(#paint14_linear_1_192)"/>
<path d="M136.015 144.324V148.919L130.446 152.095V147.568L136.015 144.324Z" fill="url(#paint15_linear_1_192)"/>
<path d="M115.146 152.838V157.365L109.577 154.122V149.595L115.146 152.838Z" fill="url(#paint16_linear_1_192)"/>
<path d="M63.8137 122.973V127.5L69.3832 130.743V126.216L63.8137 122.973Z" fill="url(#paint17_linear_1_192)"/>
<path d="M75.7577 127.027V122.5L69.3831 126.216V130.743L75.7577 127.027Z" fill="url(#paint18_linear_1_192)"/>
<path d="M75.7578 122.5V127.027L112.06 148.108L115.952 145.878L75.7578 122.5Z" fill="url(#paint19_linear_1_192)"/>
<path d="M108.839 97.4999C106.356 97.4999 103.94 96.9594 102.061 95.8783C100.183 94.7972 99.1089 93.3107 99.1089 91.6891C99.1089 90.0675 100.183 88.581 102.061 87.4999C105.819 85.3378 111.925 85.3378 115.683 87.4999C117.562 88.581 118.635 90.0675 118.635 91.6891C118.635 93.3107 117.562 94.7972 115.683 95.8783C113.737 96.9594 111.254 97.4999 108.839 97.4999ZM108.839 86.6215C106.49 86.6215 104.209 87.1621 102.397 88.1756C100.719 89.1215 99.847 90.4053 99.847 91.6891C99.847 92.9729 100.786 94.2567 102.397 95.2026C105.953 97.2972 111.724 97.2972 115.28 95.2026C116.958 94.2567 117.83 92.9729 117.83 91.6891C117.83 90.4053 116.891 89.1215 115.28 88.1756C113.469 87.0945 111.12 86.6215 108.839 86.6215Z" fill="#42E8E0"/>
<path d="M112.865 93.9865C110.65 95.2702 107.027 95.2702 104.813 93.9865C102.598 92.7027 102.598 90.6081 104.813 89.3243C107.027 88.0405 110.65 88.0405 112.865 89.3243C115.079 90.6081 115.079 92.7027 112.865 93.9865Z" fill="#42E8E0"/>
<path d="M132.324 80.3377L128.365 77.9729L135.142 74.054L139.101 76.3512L132.324 80.3377Z" fill="#42E8E0"/>
<path opacity="0.8" d="M125.144 76.6891L120.112 75.2026L124.473 70.2026L129.506 71.6891L125.144 76.6891Z" fill="#42E8E0"/>
<path opacity="0.6" d="M116.354 74.4594L110.785 73.9189L112.261 68.4459L117.897 68.9189L116.354 74.4594Z" fill="#42E8E0"/>
<path opacity="0.4" d="M106.826 73.9189L101.256 74.4594L99.78 68.9189L105.349 68.4459L106.826 73.9189Z" fill="#42E8E0"/>
<path opacity="0.2" d="M97.4985 75.2026L92.4659 76.6891L88.1042 71.6891L93.1369 70.2026L97.4985 75.2026Z" fill="#42E8E0"/>
<path opacity="0.1" d="M89.3121 77.9729L85.286 80.3377L78.5088 76.3512L82.5349 74.054L89.3121 77.9729Z" fill="#42E8E0"/>
<path opacity="0.2" d="M118.971 86.5539L117.562 85.7431L127.761 79.8647L129.171 80.6756L118.971 86.5539Z" fill="#42E8E0"/>
<path opacity="0.4" d="M115.817 85L114.006 84.4594L120.514 77.027L122.326 77.5675L115.817 85Z" fill="#42E8E0"/>
<path opacity="0.6" d="M111.925 84.054L109.912 83.9189L112.194 75.6757L114.14 75.8108L111.925 84.054Z" fill="#42E8E0"/>
<path opacity="0.8" d="M107.698 83.9189L105.752 84.054L103.47 75.8108L105.484 75.6757L107.698 83.9189Z" fill="#42E8E0"/>
<path d="M103.605 84.4594L101.86 85L95.3513 77.5675L97.096 77.027L103.605 84.4594Z" fill="#42E8E0"/>
<path d="M100.048 85.7431L98.6392 86.5539L88.5068 80.6756L89.916 79.8647L100.048 85.7431Z" fill="#42E8E0"/>
<path d="M97.3643 87.6351L96.4248 88.6486L83.6755 84.8648L84.5479 83.8513L97.3643 87.6351Z" fill="#42E8E0"/>
<path d="M95.754 89.8648L95.4184 91.0135L81.26 89.7297L81.5955 88.5811L95.754 89.8648Z" fill="#42E8E0"/>
<path d="M95.4184 92.2972L95.754 93.4459L81.5955 94.7972L81.26 93.6486L95.4184 92.2972Z" fill="#42E8E0"/>
<path d="M96.4248 94.6621L97.3643 95.7432L84.5479 99.527L83.6755 98.5135L96.4248 94.6621Z" fill="#42E8E0"/>
<path d="M98.6392 96.7567L100.048 97.5675L89.916 103.513L88.5068 102.703L98.6392 96.7567Z" fill="#42E8E0"/>
<path opacity="0.6" d="M148.697 72.4999C163.594 82.9729 164.466 97.9053 151.18 108.919L156.548 113.919C174.8 100.676 174.397 81.6215 155.34 68.6486L148.697 72.4999Z" fill="#42E8E0"/>
<path opacity="0.2" d="M116.891 121.351C101.122 122.77 84.4136 120 72.2682 112.905C69.3829 111.216 66.9672 109.392 64.887 107.5L55.7612 109.324C58.3782 111.959 61.6662 114.527 65.5581 116.757C80.9243 125.676 102.464 128.851 122.192 126.284L116.891 121.351Z" fill="#42E8E0"/>
<path d="M48.3131 96.6891L57.4389 94.8648C55.8284 86.1486 60.794 77.0945 72.2683 70.4053C91.3252 59.3243 121.454 58.7161 141.786 68.5134L148.496 64.6621C124.473 52.7702 88.3727 53.3783 65.6253 66.554C51.4668 74.7972 45.6961 86.0134 48.3131 96.6891Z" fill="#42E8E0"/>
<path d="M103.269 111.554L99.6458 109.459L145.409 82.9053L148.965 84.9323L103.269 111.554Z" fill="#42E8E0"/>
<path opacity="0.8" d="M108.302 114.459L104.745 112.432L124.607 100.878L128.164 102.905L108.302 114.459Z" fill="#42E8E0"/>
<path opacity="0.6" d="M113.737 117.635L110.181 115.54L141.786 97.162L145.342 99.2566L113.737 117.635Z" fill="#42E8E0"/>
<path opacity="0.2" d="M119.038 120.743L115.482 118.649L140.108 104.324L143.664 106.419L119.038 120.743Z" fill="#42E8E0"/>
<defs>
<linearGradient id="paint0_linear_1_192" x1="37.981" y1="111.245" x2="111.241" y2="224.963" gradientUnits="userSpaceOnUse">
<stop stop-color="#42E8E0"/>
<stop offset="0.0157138" stop-color="#40DDDA"/>
<stop offset="0.0920726" stop-color="#3AAEC0"/>
<stop offset="0.173" stop-color="#3484A9"/>
<stop offset="0.2573" stop-color="#2F6195"/>
<stop offset="0.3458" stop-color="#2B4486"/>
<stop offset="0.44" stop-color="#282E79"/>
<stop offset="0.5425" stop-color="#261E71"/>
<stop offset="0.6594" stop-color="#24156C"/>
<stop offset="0.8226" stop-color="#24126A"/>
</linearGradient>
<linearGradient id="paint1_linear_1_192" x1="29.8685" y1="142.453" x2="164.269" y2="142.453" gradientUnits="userSpaceOnUse">
<stop stop-color="#42E8E0"/>
<stop offset="0.1507" stop-color="#43E3E0"/>
<stop offset="0.3285" stop-color="#45D5DF"/>
<stop offset="0.5199" stop-color="#49BDDD"/>
<stop offset="0.7209" stop-color="#4E9CDB"/>
<stop offset="0.9274" stop-color="#5472D8"/>
<stop offset="1" stop-color="#5761D7"/>
</linearGradient>
<linearGradient id="paint2_linear_1_192" x1="29.8685" y1="142.453" x2="164.269" y2="142.453" gradientUnits="userSpaceOnUse">
<stop stop-color="#42E8E0"/>
<stop offset="0.1507" stop-color="#43E3E0"/>
<stop offset="0.3285" stop-color="#45D5DF"/>
<stop offset="0.5199" stop-color="#49BDDD"/>
<stop offset="0.7209" stop-color="#4E9CDB"/>
<stop offset="0.9274" stop-color="#5472D8"/>
<stop offset="1" stop-color="#5761D7"/>
</linearGradient>
<linearGradient id="paint3_linear_1_192" x1="29.8685" y1="142.453" x2="164.269" y2="142.453" gradientUnits="userSpaceOnUse">
<stop stop-color="#42E8E0"/>
<stop offset="0.1507" stop-color="#43E3E0"/>
<stop offset="0.3285" stop-color="#45D5DF"/>
<stop offset="0.5199" stop-color="#49BDDD"/>
<stop offset="0.7209" stop-color="#4E9CDB"/>
<stop offset="0.9274" stop-color="#5472D8"/>
<stop offset="1" stop-color="#5761D7"/>
</linearGradient>
<linearGradient id="paint4_linear_1_192" x1="29.8685" y1="139.071" x2="164.269" y2="139.071" gradientUnits="userSpaceOnUse">
<stop stop-color="#42E8E0"/>
<stop offset="0.0157138" stop-color="#40DDDA"/>
<stop offset="0.0920726" stop-color="#3AAEC0"/>
<stop offset="0.173" stop-color="#3484A9"/>
<stop offset="0.2573" stop-color="#2F6195"/>
<stop offset="0.3458" stop-color="#2B4486"/>
<stop offset="0.44" stop-color="#282E79"/>
<stop offset="0.5425" stop-color="#261E71"/>
<stop offset="0.6594" stop-color="#24156C"/>
<stop offset="0.8226" stop-color="#24126A"/>
</linearGradient>
<linearGradient id="paint5_linear_1_192" x1="40.611" y1="142.651" x2="175.396" y2="142.651" gradientUnits="userSpaceOnUse">
<stop stop-color="#42E8E0"/>
<stop offset="0.1507" stop-color="#43E3E0"/>
<stop offset="0.3285" stop-color="#45D5DF"/>
<stop offset="0.5199" stop-color="#49BDDD"/>
<stop offset="0.7209" stop-color="#4E9CDB"/>
<stop offset="0.9274" stop-color="#5472D8"/>
<stop offset="1" stop-color="#5761D7"/>
</linearGradient>
<linearGradient id="paint6_linear_1_192" x1="37.9809" y1="94.8705" x2="111.241" y2="208.589" gradientUnits="userSpaceOnUse">
<stop stop-color="#42E8E0"/>
<stop offset="0.0157138" stop-color="#40DDDA"/>
<stop offset="0.0920726" stop-color="#3AAEC0"/>
<stop offset="0.173" stop-color="#3484A9"/>
<stop offset="0.2573" stop-color="#2F6195"/>
<stop offset="0.3458" stop-color="#2B4486"/>
<stop offset="0.44" stop-color="#282E79"/>
<stop offset="0.5425" stop-color="#261E71"/>
<stop offset="0.6594" stop-color="#24156C"/>
<stop offset="0.8226" stop-color="#24126A"/>
</linearGradient>
<linearGradient id="paint7_linear_1_192" x1="47.8842" y1="113.481" x2="168.094" y2="113.481" gradientUnits="userSpaceOnUse">
<stop stop-color="#2B237C"/>
<stop offset="1" stop-color="#180D5B"/>
</linearGradient>
<linearGradient id="paint8_linear_1_192" x1="63.8179" y1="133.705" x2="145.253" y2="133.705" gradientUnits="userSpaceOnUse">
<stop stop-color="#2B237C"/>
<stop offset="1" stop-color="#180D5B"/>
</linearGradient>
<linearGradient id="paint9_linear_1_192" x1="74.2224" y1="113.383" x2="74.5136" y2="118.269" gradientUnits="userSpaceOnUse">
<stop stop-color="#42E8E0"/>
<stop offset="0.0157138" stop-color="#40DDDA"/>
<stop offset="0.0920726" stop-color="#3AAEC0"/>
<stop offset="0.173" stop-color="#3484A9"/>
<stop offset="0.2573" stop-color="#2F6195"/>
<stop offset="0.3458" stop-color="#2B4486"/>
<stop offset="0.44" stop-color="#282E79"/>
<stop offset="0.5425" stop-color="#261E71"/>
<stop offset="0.6594" stop-color="#24156C"/>
<stop offset="0.8226" stop-color="#24126A"/>
</linearGradient>
<linearGradient id="paint10_linear_1_192" x1="83.4988" y1="107.998" x2="83.79" y2="112.884" gradientUnits="userSpaceOnUse">
<stop stop-color="#42E8E0"/>
<stop offset="0.0157138" stop-color="#40DDDA"/>
<stop offset="0.0920726" stop-color="#3AAEC0"/>
<stop offset="0.173" stop-color="#3484A9"/>
<stop offset="0.2573" stop-color="#2F6195"/>
<stop offset="0.3458" stop-color="#2B4486"/>
<stop offset="0.44" stop-color="#282E79"/>
<stop offset="0.5425" stop-color="#261E71"/>
<stop offset="0.6594" stop-color="#24156C"/>
<stop offset="0.8226" stop-color="#24126A"/>
</linearGradient>
<linearGradient id="paint11_linear_1_192" x1="117.057" y1="115.227" x2="117.404" y2="121.044" gradientUnits="userSpaceOnUse">
<stop stop-color="#2B237C"/>
<stop offset="1" stop-color="#180D5B"/>
</linearGradient>
<linearGradient id="paint12_linear_1_192" x1="141.22" y1="132.142" x2="146.944" y2="133.333" gradientUnits="userSpaceOnUse">
<stop stop-color="#2B237C"/>
<stop offset="1" stop-color="#180D5B"/>
</linearGradient>
<linearGradient id="paint13_linear_1_192" x1="67.2799" y1="120.62" x2="336.783" y2="176.708" gradientUnits="userSpaceOnUse">
<stop stop-color="#42E8E0"/>
<stop offset="0.0157138" stop-color="#40DDDA"/>
<stop offset="0.0920726" stop-color="#3AAEC0"/>
<stop offset="0.173" stop-color="#3484A9"/>
<stop offset="0.2573" stop-color="#2F6195"/>
<stop offset="0.3458" stop-color="#2B4486"/>
<stop offset="0.44" stop-color="#282E79"/>
<stop offset="0.5425" stop-color="#261E71"/>
<stop offset="0.6594" stop-color="#24156C"/>
<stop offset="0.8226" stop-color="#24126A"/>
</linearGradient>
<linearGradient id="paint14_linear_1_192" x1="139.754" y1="142.273" x2="146.831" y2="143.746" gradientUnits="userSpaceOnUse">
<stop stop-color="#2B237C"/>
<stop offset="1" stop-color="#180D5B"/>
</linearGradient>
<linearGradient id="paint15_linear_1_192" x1="130.492" y1="147.658" x2="137.569" y2="149.131" gradientUnits="userSpaceOnUse">
<stop stop-color="#2B237C"/>
<stop offset="1" stop-color="#180D5B"/>
</linearGradient>
<linearGradient id="paint16_linear_1_192" x1="109.005" y1="152.763" x2="117.715" y2="154.576" gradientUnits="userSpaceOnUse">
<stop stop-color="#2B237C"/>
<stop offset="1" stop-color="#180D5B"/>
</linearGradient>
<linearGradient id="paint17_linear_1_192" x1="66.2774" y1="121.341" x2="66.9359" y2="132.39" gradientUnits="userSpaceOnUse">
<stop stop-color="#42E8E0"/>
<stop offset="0.0157138" stop-color="#40DDDA"/>
<stop offset="0.0920726" stop-color="#3AAEC0"/>
<stop offset="0.173" stop-color="#3484A9"/>
<stop offset="0.2573" stop-color="#2F6195"/>
<stop offset="0.3458" stop-color="#2B4486"/>
<stop offset="0.44" stop-color="#282E79"/>
<stop offset="0.5425" stop-color="#261E71"/>
<stop offset="0.6594" stop-color="#24156C"/>
<stop offset="0.8226" stop-color="#24126A"/>
</linearGradient>
<linearGradient id="paint18_linear_1_192" x1="72.2681" y1="121.261" x2="72.9075" y2="131.992" gradientUnits="userSpaceOnUse">
<stop stop-color="#2B237C"/>
<stop offset="1" stop-color="#180D5B"/>
</linearGradient>
<linearGradient id="paint19_linear_1_192" x1="94.6799" y1="116.26" x2="96.9339" y2="154.085" gradientUnits="userSpaceOnUse">
<stop stop-color="#42E8E0"/>
<stop offset="0.0157138" stop-color="#40DDDA"/>
<stop offset="0.0920726" stop-color="#3AAEC0"/>
<stop offset="0.173" stop-color="#3484A9"/>
<stop offset="0.2573" stop-color="#2F6195"/>
<stop offset="0.3458" stop-color="#2B4486"/>
<stop offset="0.44" stop-color="#282E79"/>
<stop offset="0.5425" stop-color="#261E71"/>
<stop offset="0.6594" stop-color="#24156C"/>
<stop offset="0.8226" stop-color="#24126A"/>
</linearGradient>
</defs>
</svg>
