<svg width="460" height="250" viewBox="0 0 460 250" fill="none" xmlns="http://www.w3.org/2000/svg">
<g clip-path="url(#clip0_1_415)">
<rect width="460" height="250" rx="10" fill="url(#paint0_radial_1_415)"/>
<path opacity="0.8" d="M446.364 -34.5694C445.384 -35.1435 443.669 -35.1435 442.69 -34.5694C441.955 -34.1594 441.71 -33.5033 442.118 -32.9292L385.369 -0.0425949V41.5372L371.57 49.5744V94.7627L324.211 122.237L316.862 117.972L353.361 96.813V72.0455L353.198 71.9635L311.636 47.8521V39.4869L335.152 25.873C336.132 26.2831 337.602 26.2831 338.5 25.709C339.48 25.1349 339.48 24.1508 338.5 23.5767C337.52 23.0026 335.806 23.0026 334.826 23.5767C333.928 24.0688 333.846 24.8889 334.581 25.545L311.065 39.1589V48.2622L311.228 48.3442L352.79 72.4556V96.5669L325.109 112.477V102.144L337.765 94.8447C338.745 95.2548 340.215 95.2548 341.113 94.6807C342.093 94.1066 342.093 93.1225 341.113 92.5484C340.133 91.9743 338.419 91.9743 337.439 92.5484C336.541 93.0405 336.459 93.8606 337.194 94.5167L324.538 101.816V112.805L316.209 117.644L306.329 111.903V93.9426L324.946 83.1171V70.6513L324.783 70.5693L285.589 47.8521C286.324 47.278 286.242 46.4579 285.344 45.8838C284.364 45.3098 282.65 45.3098 281.67 45.8838C280.69 46.4579 280.69 47.442 281.67 48.0161C282.568 48.5082 284.038 48.5902 285.017 48.1802L324.374 70.9793V82.707L306.329 93.2045V80.8207L306.166 80.7387L282.16 66.7968C282.895 66.2227 282.813 65.4026 281.915 64.8285C280.935 64.2544 279.22 64.2544 278.24 64.8285C277.26 65.4026 277.26 66.3867 278.24 66.9608C279.138 67.4529 280.608 67.5349 281.588 67.1248L305.676 81.1488V111.493L298.735 107.474L287.304 114.117L276.934 108.131V93.5325L276.771 93.4505L249.417 77.6223V63.8444C249.988 63.8444 250.56 63.6803 250.968 63.4343C251.948 62.8602 251.948 61.8761 250.968 61.302C249.988 60.7279 248.274 60.7279 247.294 61.302C246.314 61.8761 246.314 62.8602 247.294 63.4343C247.702 63.6803 248.274 63.8444 248.845 63.8444V77.9503L249.009 78.0323L276.362 93.8606V107.803L231.861 81.9689V54.577L256.031 40.5531H278.159H278.24L316.291 18.492C317.27 18.9021 318.74 18.9021 319.638 18.328C320.618 17.7539 320.618 16.7698 319.638 16.1957C318.659 15.6216 316.944 15.6216 315.964 16.1957C315.066 16.6877 314.984 17.5899 315.719 18.164L278.077 39.979H257.092L326.906 -0.534672C327.885 -0.124611 329.355 -0.124611 330.253 -0.698692C331.233 -1.27277 331.233 -2.25691 330.253 -2.83099C329.273 -3.40507 327.559 -3.40507 326.579 -2.83099C325.681 -2.33892 325.599 -1.43679 326.334 -0.862713L231.29 54.331V82.379L231.453 82.461L286.732 114.527L275.627 121.006L181.236 66.2227V33.5821L181.073 33.5001L148.984 14.8835C149.718 14.3094 149.637 13.4893 148.739 12.9152C147.759 12.3411 146.044 12.3411 145.064 12.9152C144.084 13.4893 144.084 14.4734 145.064 15.0475C145.962 15.5396 147.432 15.6216 148.412 15.2115L180.665 33.9102V66.5507L180.828 66.6328L275.137 121.334L264.523 127.485L171.111 73.3577H115.424L80.6399 53.1829V22.1825C80.9665 22.1005 81.3748 22.0185 81.6197 21.8545C82.5996 21.2804 82.5996 20.2962 81.6197 19.7222C80.6399 19.1481 78.9252 19.1481 77.9453 19.7222C76.9655 20.2962 76.9655 21.2804 77.9453 21.8545C78.5169 22.1825 79.2518 22.3465 79.9867 22.2645V53.5109L80.15 53.5929L115.261 73.9318H170.948L249.743 119.612H233.903L207.039 104.03H186.299H186.217L157.475 120.678C156.496 120.268 155.026 120.268 154.128 120.842C153.148 121.416 153.148 122.401 154.128 122.975C155.107 123.549 156.822 123.549 157.802 122.975C158.7 122.483 158.782 121.58 158.047 121.006L186.462 104.522H206.876L233.739 120.104H250.723L263.869 127.731L235.617 144.134L227.534 139.459V127.239L207.12 115.43C207.855 114.856 207.774 114.035 206.876 113.461C205.896 112.887 204.181 112.887 203.201 113.461C202.221 114.035 202.221 115.02 203.201 115.594C204.099 116.086 205.569 116.168 206.549 115.758L226.962 127.567V139.131L205.161 126.583H194.873H194.791L182.461 133.718C181.481 133.308 180.012 133.308 179.113 133.882C178.134 134.456 178.134 135.44 179.113 136.014C180.093 136.589 181.808 136.589 182.788 136.014C183.686 135.522 183.768 134.62 183.033 134.046L194.954 127.157H204.997L234.964 144.544L229.493 147.742L246.886 157.83L238.72 162.586H226.391L217.572 157.501C218.307 156.927 218.144 156.107 217.245 155.615C216.266 155.041 214.551 155.041 213.571 155.615C212.591 156.189 212.591 157.173 213.571 157.748C214.469 158.322 215.939 158.322 216.919 157.912L226.146 163.242H237.577L216.837 175.298L168.009 147.004H132.898H132.816L113.056 158.486C112.076 158.076 110.607 158.076 109.708 158.65C108.729 159.224 108.729 160.208 109.708 160.782C110.688 161.356 112.403 161.356 113.383 160.782C114.281 160.29 114.363 159.388 113.628 158.814L133.061 147.578H167.927L205.569 169.393H189.483L173.806 160.044C174.541 159.47 174.459 158.65 173.561 158.076C172.581 157.501 170.867 157.501 169.887 158.076C168.907 158.65 168.907 159.634 169.887 160.208C170.785 160.7 172.255 160.782 173.234 160.372L189.402 169.721H206.712L216.429 175.38L191.606 189.732H112.321L50.8365 154.139C51.5714 153.565 51.4898 152.745 50.5916 152.171C49.6117 151.597 47.897 151.597 46.9172 152.171C45.9373 152.745 45.9373 153.729 46.9172 154.303C47.8154 154.795 49.2851 154.877 50.265 154.467L112.24 190.388H190.627L180.828 196.129H122.12H122.038L93.1328 212.941C92.153 212.531 90.6832 212.531 89.785 213.105C88.8052 213.679 88.8052 214.663 89.785 215.238C90.7649 215.812 92.4796 215.812 93.4594 215.238C94.3576 214.746 94.4393 213.843 93.7044 213.269L122.283 196.703H180.992H181.073L247.539 158.158L254.888 162.422L184.992 202.936H133.878H133.796L72.0663 238.775H-13.5061L-30 229.18V229.836L-13.5877 239.349H72.2296H72.3113L111.096 216.878V230.164L85.5391 245.008C84.5592 244.598 83.0895 244.598 82.1913 245.172C81.2115 245.746 81.2115 246.73 82.1913 247.304C83.1711 247.878 84.8858 247.878 85.8657 247.304C86.7639 246.812 86.8455 245.91 86.1106 245.336L111.668 230.492V216.632H111.505L134.041 203.592H185.156H185.237L255.459 162.832L263.869 167.671L127.509 246.73V261H128.08V247.058L264.441 167.999L274.811 173.986L204.508 214.746V222.045L192.015 229.262V245.992L167.845 260.016C166.866 259.606 165.396 259.606 164.498 260.18C164.089 260.426 163.926 260.672 163.763 260.918H168.825C168.744 260.754 168.58 260.508 168.417 260.344L192.586 246.32V229.59L204.508 222.701V249.518L211.53 253.619L198.874 260.918H200.017L212.101 253.947L224.186 260.918H225.329L205.079 249.19V215.074L275.382 174.314L284.854 179.809L235.128 208.677C234.148 208.267 232.678 208.267 231.78 208.841C230.8 209.415 230.8 210.399 231.78 210.973C232.76 211.547 234.474 211.547 235.454 210.973C236.352 210.481 236.434 209.661 235.699 209.005L285.426 180.137L294.571 185.385L235.046 219.912H218.879C218.797 219.666 218.552 219.338 218.144 219.174C217.164 218.6 215.449 218.6 214.469 219.174C213.489 219.748 213.489 220.732 214.469 221.306C215.449 221.881 217.164 221.881 218.144 221.306C218.552 221.06 218.797 220.814 218.879 220.568H235.209H235.291L295.142 185.877L298.817 188.01L301.675 186.37L315.964 194.653V206.134L304.206 212.941H285.752H285.671L265.421 224.669C264.441 224.259 262.971 224.259 262.073 224.833C261.093 225.407 261.093 226.391 262.073 226.965C263.053 227.539 264.768 227.539 265.747 226.965C266.646 226.473 266.727 225.571 265.992 224.997L285.916 213.433H303.144L268.524 233.526C267.544 233.034 266.074 233.116 265.094 233.608C264.114 234.182 264.114 235.166 265.094 235.74C266.074 236.315 267.789 236.315 268.769 235.74C269.667 235.248 269.748 234.428 269.095 233.854L312.29 208.759V214.335L286.569 229.262V239.759L265.666 251.897C264.686 251.487 263.216 251.487 262.318 252.061C261.338 252.635 261.338 253.619 262.318 254.193C263.298 254.767 265.013 254.767 265.992 254.193C266.891 253.701 266.972 252.799 266.237 252.225L287.14 240.087V229.59L312.861 214.664V208.431L316.454 206.38V194.161L302.165 185.877L311.555 180.465L340.868 197.523V216.878L320.945 228.441C319.965 227.949 318.495 228.031 317.515 228.523C316.536 229.098 316.536 230.082 317.515 230.656C318.495 231.23 320.21 231.23 321.19 230.656C322.088 230.164 322.17 229.344 321.516 228.769L340.868 217.534V233.198L325.599 242.055V261H326.171V242.383L340.868 233.854V261H341.44V197.195L312.126 180.055L322.66 173.986L361.036 196.211V249.19L379.49 259.852V260.918H380.062V259.524L361.608 248.862V195.883L323.231 173.658L331.07 169.147L382.838 199.163V244.352L411.498 260.918H412.641L383.409 244.024V198.835L331.641 168.819L344.298 161.52L430.442 211.465V233.936L460 251.077V250.421L431.095 233.608V211.137L382.675 183.007H420.97L460 205.642V204.986L421.052 182.433H381.531L344.869 161.192L359.567 152.663L391.085 170.951H441.71L459.918 181.531V180.875L455.917 178.578H459.918V178.004H454.938L441.873 170.459H391.248L382.43 165.375H403.986H404.068L414.846 159.142H459.837L460 159.224V158.568H415.907L428.074 151.515C429.053 151.925 430.523 151.925 431.421 151.351C432.401 150.777 432.401 149.792 431.421 149.218C430.442 148.644 428.727 148.644 427.747 149.218C426.849 149.71 426.767 150.613 427.502 151.187L403.904 164.883H381.531L360.22 152.581L368.059 147.988L362.996 145.036H377.694L396.882 156.189C396.147 156.763 396.229 157.584 397.127 158.158C398.107 158.732 399.822 158.732 400.802 158.158C401.781 157.584 401.781 156.599 400.802 156.025C399.903 155.533 398.434 155.451 397.454 155.861L377.775 144.462H361.935L351.156 138.229L357.77 134.374H369.528L379.817 128.387H387.492L404.884 138.475C404.068 139.049 404.149 139.869 405.129 140.443C406.109 141.017 407.824 141.017 408.804 140.443C409.783 139.869 409.783 138.885 408.804 138.311C407.905 137.819 406.517 137.737 405.537 138.147L387.737 127.813H379.735L369.447 133.8H358.832L379.98 121.498H391.411L415.254 135.276H460V134.702H415.417L391.493 120.678H379.735H379.653L350.503 137.573L342.828 133.144L375.734 114.035H398.923L418.112 125.107H459.837V124.533H418.275L400.148 114.035H459.837V113.461H375.652H375.571L342.338 132.816L333.683 127.813L379.572 101.16H459.918V100.586H401.373L459.918 66.6328V65.9767L400.23 100.586H379.98L423.501 75.326V69.7492L444.323 57.6935C445.302 58.1035 446.772 58.1035 447.67 57.5295C448.65 56.9554 448.65 55.9712 447.67 55.3972C446.691 54.8231 444.976 54.8231 443.996 55.3972C443.098 55.8892 443.016 56.7094 443.751 57.3654L432.401 63.9264V48.6722L459.918 32.762V32.1059L431.83 48.3442V64.2544L422.93 69.4211V74.9979L379.082 100.421L379.245 100.668L333.111 127.403L324.701 122.565L372.06 95.0907V49.9024L459.918 -1.02674V-1.68283L385.941 41.2092V0.367462L442.608 -32.4371L442.69 -32.3551C443.669 -31.781 445.384 -31.781 446.364 -32.3551C447.344 -33.0112 447.344 -33.9954 446.364 -34.5694ZM366.834 147.66L298.817 187.108L230.8 147.66L298.817 108.213L366.834 147.66Z" fill="url(#paint1_radial_1_415)"/>
<path opacity="0.1" d="M459.918 36.4783L447.849 43.5227V66.1305L340.531 128.384L332.376 123.633L387.748 91.5234V85.7895L397.534 80.1375V66.9496L416.535 55.8915C417.35 56.2191 418.41 56.2191 419.144 55.8096C419.96 55.3181 419.96 54.5809 419.144 54.1713C418.329 53.6798 417.024 53.6798 416.29 54.1713C415.556 54.5809 415.474 55.2362 416.045 55.7276L397.044 66.7858V79.9737L387.666 85.3799V64.2465L387.585 64.1646L382.203 61.0519L414.659 42.2121V21.0787L437.737 7.72702C438.553 8.05467 439.613 8.05466 440.347 7.6451C441.162 7.15363 441.162 6.41641 440.347 6.00685C439.531 5.51538 438.227 5.51538 437.493 6.00685C436.759 6.41641 436.677 7.07171 437.248 7.56319L414.17 20.9149V42.0483L381.713 60.8881L328.951 30.0072V6.3345C329.359 6.3345 329.848 6.17068 330.175 6.00685C330.99 5.51538 330.99 4.77817 330.175 4.36861C329.359 3.87713 328.054 3.87713 327.32 4.36861C326.505 4.86008 326.505 5.59729 327.32 6.00685C327.647 6.17068 328.054 6.3345 328.544 6.3345V30.2529L328.625 30.3348L360.348 48.7651H337.188L318.513 37.9527C319.084 37.4612 319.002 36.8059 318.268 36.3963C317.453 35.9049 316.148 35.9049 315.414 36.3963C314.599 36.8878 314.599 37.625 315.414 38.0346C316.148 38.4441 317.29 38.5261 318.024 38.1165L337.025 49.1747H361.081L387.177 64.3284V91.1957L331.887 123.305L324.466 118.964L363.609 96.2743C364.425 96.6019 365.485 96.6019 366.219 96.1924C367.035 95.7009 367.035 94.9637 366.219 94.5541C365.404 94.0626 364.099 94.0626 363.365 94.5541C362.631 94.9637 362.549 95.619 363.12 96.1104L323.977 118.8L316.801 114.623L363.691 87.4277H376.413C376.494 87.6735 376.657 87.8373 376.983 88.0011C377.799 88.4926 379.104 88.4926 379.838 88.0011C380.653 87.5096 380.653 86.7724 379.838 86.3629C379.022 85.8714 377.717 85.8714 376.983 86.3629C376.657 86.5267 376.494 86.7724 376.413 86.9363H363.528H363.446L316.393 114.377L313.539 112.739L313.457 112.821L311.337 114.049L300.083 107.578V98.4859L309.38 93.0797H323.895L339.96 83.8236C340.776 84.1512 341.836 84.1512 342.57 83.7417C343.385 83.2502 343.385 82.513 342.57 82.1034C341.754 81.612 340.45 81.612 339.716 82.1034C338.982 82.513 338.9 83.1683 339.471 83.6598L323.732 92.5882H310.032L337.269 76.7791C338.085 77.1068 339.226 77.1068 339.96 76.6972C340.776 76.2057 340.776 75.4685 339.96 75.059C339.145 74.5675 337.84 74.5675 337.106 75.059C336.372 75.4685 336.291 76.1238 336.862 76.5334L302.856 96.2743V91.9329L323.08 80.2194V71.9463L339.553 62.3625C340.368 62.6902 341.428 62.6902 342.162 62.2806C342.978 61.7892 342.978 61.0519 342.162 60.6424C341.347 60.1509 340.042 60.1509 339.308 60.6424C338.574 61.0519 338.492 61.7073 339.063 62.1987L322.591 71.7825V80.0556L302.366 91.7691V96.6838L299.512 98.3221V107.906L310.766 114.377L303.427 118.636L280.348 105.203V89.967L296.006 80.7928C296.821 81.1205 297.963 81.1205 298.697 80.7109C299.512 80.2194 299.512 79.4822 298.697 79.0727C297.881 78.5812 296.576 78.5812 295.843 79.0727C295.109 79.4822 295.027 80.1375 295.598 80.5471L280.348 89.3936V77.1068L292.418 70.1442V46.963C292.825 46.963 293.315 46.7992 293.641 46.6354C294.456 46.1439 294.456 45.4067 293.641 44.9971C292.825 44.5057 291.52 44.5057 290.787 44.9971C289.971 45.4886 289.971 46.2258 290.787 46.6354C291.113 46.7992 291.52 46.963 292.01 46.963V69.8166L280.43 76.5334V35.741H279.941V105.448L303.019 118.882L294.701 123.715L264.528 106.186V64.4923L250.012 56.0553V40.3281L237.209 32.8741C237.78 32.3826 237.698 31.7273 236.964 31.3178C236.149 30.8263 234.844 30.8263 234.11 31.3178C233.295 31.8092 233.295 32.5465 234.11 32.956C234.844 33.3656 235.986 33.4475 236.72 33.0379L249.523 40.492V56.2191L264.039 64.6561V106.349L294.212 123.879L288.095 127.401L247.321 103.728V68.1783L247.24 68.0964L211.195 47.2088C211.766 46.7173 211.684 46.062 210.95 45.6524C210.135 45.161 208.83 45.161 208.096 45.6524C207.281 46.1439 207.281 46.8811 208.096 47.2907C208.83 47.7002 209.972 47.7822 210.706 47.3726L246.913 68.3422V103.892L246.995 103.974L287.606 127.565L277.657 133.299L209.89 93.9807V76.2877L209.809 76.2057L153.051 43.277C153.622 42.7855 153.54 42.1302 152.806 41.7206C151.991 41.2292 150.686 41.2292 149.952 41.7206C149.136 42.2121 149.136 42.9493 149.952 43.3589C150.686 43.7685 151.828 43.8504 152.562 43.4408L209.401 76.4515V94.1445L209.482 94.2264L247.484 116.261H217.311L182.408 96.0285C182.979 95.5371 182.898 94.8818 182.164 94.4722C181.348 93.9807 180.043 93.9807 179.309 94.4722C178.494 94.9637 178.494 95.7009 179.309 96.1104C180.043 96.52 181.185 96.6019 181.919 96.1924L217.148 116.67H248.218L277.086 133.381L265.506 140.097L240.716 125.681H200.838L155.497 99.3869H130.38L120.105 93.4073C120.676 92.9159 120.594 92.2606 119.86 91.851C119.045 91.3595 117.74 91.3595 117.006 91.851C116.191 92.3425 116.191 93.0797 117.006 93.4892C117.74 93.8988 118.882 93.9807 119.616 93.5712L130.217 99.7146H155.334L189.585 119.537H159.982L145.956 111.756C146.527 111.264 146.445 110.609 145.711 110.199C144.896 109.708 143.591 109.708 142.857 110.199C142.042 110.691 142.042 111.428 142.857 111.838C143.591 112.247 144.733 112.329 145.467 111.92L160.064 120.356H190.563L200.838 126.336H240.716L247.647 130.35H230.767H230.685L222.204 135.265H186.812L176.863 129.449H156.802C156.72 129.203 156.557 129.039 156.231 128.875C155.416 128.384 154.111 128.384 153.377 128.875C152.562 129.367 152.562 130.104 153.377 130.514C154.192 131.005 155.497 131.005 156.231 130.514C156.557 130.35 156.72 130.104 156.802 129.94H176.7L186.649 135.756H221.389L211.847 141.326C211.032 140.998 209.972 140.998 209.238 141.408C208.422 141.899 208.422 142.637 209.238 143.046C210.053 143.538 211.358 143.538 212.092 143.046C212.826 142.637 212.908 141.981 212.337 141.49L230.93 130.677H248.544L265.262 140.425L259.064 144.029L259.39 144.193L263.06 146.323H251.48L236.312 137.558C236.883 137.067 236.801 136.411 236.067 136.002C235.252 135.51 233.947 135.51 233.213 136.002C232.398 136.493 232.398 137.23 233.213 137.64C233.947 138.05 235.089 138.131 235.823 137.722L251.317 146.732H263.794L272.275 151.647L267.056 154.678H257.841H257.759L249.686 159.347H243.651L229.951 151.401C230.604 150.91 230.522 150.254 229.788 149.845C228.973 149.353 227.668 149.353 226.934 149.845C226.118 150.336 226.118 151.074 226.934 151.483C227.668 151.893 228.728 151.975 229.543 151.647L243.57 159.756H249.849H249.931L258.004 155.087H266.322L249.686 164.753H240.716L221.959 153.859H165.446L130.38 133.544C130.951 133.053 130.951 132.398 130.217 131.988C129.402 131.497 128.097 131.497 127.363 131.988C126.547 132.48 126.547 133.217 127.363 133.626C128.097 134.036 129.157 134.118 129.973 133.79L165.365 154.35H221.796L240.553 165.244H249.768H249.849L272.764 151.975L278.799 155.497L252.866 170.487H234.599L219.513 161.722H180.777C180.696 161.476 180.533 161.313 180.207 161.149C179.391 160.657 178.086 160.657 177.352 161.149C176.537 161.64 176.537 162.378 177.352 162.787C178.168 163.279 179.473 163.279 180.207 162.787C180.533 162.623 180.696 162.378 180.777 162.214H219.35L233.621 170.487H179.065H178.983L127.037 200.631C126.221 200.303 125.161 200.303 124.427 200.713C123.612 201.204 123.612 201.941 124.427 202.351C125.243 202.842 126.547 202.842 127.281 202.351C128.015 201.941 128.097 201.286 127.526 200.794L179.228 170.814H252.948H253.029L279.207 155.661L286.057 159.593L249.931 180.562H186.323H186.241L130.543 212.836H65.6306L27.7105 191.293C28.2813 190.801 28.1998 190.146 27.4658 189.736C26.6503 189.245 25.3456 189.245 24.6116 189.736C23.7961 190.228 23.7961 190.965 24.6116 191.374C25.3456 191.784 26.4872 191.866 27.2212 191.456L65.386 213.573H130.543H130.625L186.323 181.299H232.642L164.712 220.781V231.184L137.557 246.911C136.741 246.583 135.681 246.583 134.947 246.993C134.132 247.484 134.132 248.222 134.947 248.631C135.762 249.123 137.067 249.123 137.801 248.631C138.535 248.222 138.617 247.566 138.046 247.075L165.202 231.348V220.945L233.702 181.217H249.604L215.354 201.122V205.463L198.881 215.129C198.066 214.801 197.006 214.801 196.272 215.211C195.456 215.702 195.456 216.44 196.272 216.849C197.087 217.341 198.392 217.341 199.126 216.849C199.86 216.44 199.941 215.784 199.37 215.293L208.259 210.132V222.092L156.72 251.99C155.905 251.662 154.845 251.662 154.111 252.072C153.295 252.563 153.295 253.3 154.111 253.71C154.926 254.201 156.231 254.201 156.965 253.71C157.699 253.3 157.781 252.645 157.21 252.153L208.749 222.255V209.723L215.762 205.627V201.286L250.338 181.217L250.257 181.054L286.546 160.002L293.151 163.852L255.802 185.641V221.191L187.22 261H188.117L244.875 228.071V260.263L243.57 261H244.467L245.282 260.509V227.826L256.128 221.518V185.968L293.396 164.343L299.186 167.702L270.399 184.412V203.907L270.481 203.989L303.182 222.911V229.546L284.67 240.276C283.855 239.949 282.795 239.949 282.061 240.358C281.245 240.85 281.245 241.587 282.061 241.996C282.876 242.488 284.181 242.488 284.915 241.996C285.649 241.587 285.73 240.931 285.16 240.44L303.671 229.709V222.583L303.59 222.501L270.889 203.579V184.576L292.581 171.961V180.071L282.632 185.886C281.816 185.559 280.756 185.559 280.022 185.968C279.207 186.46 279.207 187.197 280.022 187.607C280.838 188.098 282.142 188.098 282.876 187.607C283.61 187.197 283.692 186.542 283.121 186.05L293.07 180.234V171.552L299.675 167.702L307.422 172.207V186.378L292.744 194.897V204.644L292.825 204.726L323.651 222.583C323.08 223.075 323.161 223.73 323.895 224.139C324.711 224.631 326.016 224.631 326.749 224.139C327.565 223.648 327.565 222.911 326.749 222.501C326.016 222.092 324.874 222.01 324.14 222.419L293.151 204.48V195.224L307.341 186.951V196.699L326.342 207.675C325.771 208.167 325.852 208.822 326.586 209.231C327.402 209.723 328.707 209.723 329.441 209.231C330.256 208.74 330.256 208.003 329.441 207.593C328.707 207.184 327.565 207.102 326.831 207.511L307.83 196.535V172.617L313.294 175.811L313.375 175.729L322.264 170.569L330.419 175.32V186.787L352.03 199.32V210.132C351.622 210.132 351.133 210.296 350.806 210.46C349.991 210.952 349.991 211.689 350.806 212.098C351.622 212.59 352.927 212.59 353.661 212.098C354.476 211.607 354.476 210.87 353.661 210.46C353.334 210.296 352.927 210.132 352.437 210.132V199.074L331.072 186.542V175.565L366.138 195.88V217.423L347.137 228.481H329.685H329.604L299.675 245.846C298.86 245.519 297.8 245.519 297.066 245.928C296.25 246.42 296.25 247.157 297.066 247.566C297.881 248.058 299.186 248.058 299.92 247.566C300.654 247.157 300.735 246.502 300.165 246.01L329.848 228.808H346.403L291.439 260.672C290.623 260.345 289.563 260.345 288.829 260.754H292.173L366.708 217.505V195.47L366.627 195.388L323.08 170.159L331.806 165.081L406.096 208.167V233.887L431.458 248.631C430.887 249.123 430.969 249.778 431.703 250.188C432.518 250.679 433.823 250.679 434.557 250.188C435.372 249.696 435.372 248.959 434.557 248.549C433.823 248.14 432.681 248.058 431.947 248.467L406.586 233.723V208.003L406.504 207.921L332.295 164.917L340.613 160.084L414.088 202.678H457.961L460 203.907V203.416L458.043 202.269H414.17L352.111 166.309H364.588L385.791 178.596H402.1H402.182L424.771 165.49C425.587 165.818 426.647 165.818 427.381 165.408C428.196 164.917 428.196 164.18 427.381 163.77C426.565 163.279 425.26 163.279 424.526 163.77C423.792 164.18 423.711 164.835 424.282 165.326L401.937 178.269H385.872L364.67 165.982H351.296L340.939 160.002L363.202 147.06L369.563 150.746V160.412L385.628 169.75C385.057 170.241 385.138 170.896 385.872 171.306C386.688 171.797 387.993 171.797 388.727 171.306C389.542 170.814 389.542 170.077 388.727 169.668C387.993 169.258 386.851 169.176 386.117 169.586L370.052 160.248V151.156L387.177 161.067H395.332H395.413L405.118 155.415C405.933 155.743 406.993 155.743 407.727 155.333C408.543 154.842 408.543 154.104 407.727 153.695C406.912 153.203 405.607 153.203 404.873 153.695C404.139 154.104 404.058 154.76 404.628 155.251L395.25 160.739H387.34L363.691 146.732L368.013 144.275L367.687 144.111L354.313 136.411L360.755 132.725H370.46L377.391 136.739C376.82 137.23 376.902 137.804 377.636 138.213C378.451 138.705 379.756 138.705 380.49 138.213C381.306 137.722 381.306 136.985 380.49 136.575C379.756 136.166 378.614 136.084 377.799 136.493L370.541 132.316H361.489L377.799 122.814L416.29 145.094H443.935H444.016L459.592 136.084C459.674 136.166 459.837 136.166 459.918 136.166V134.036C459.674 134.118 459.511 134.2 459.348 134.282C458.614 134.691 458.532 135.346 459.103 135.838L443.772 144.684H416.371L386.688 127.483H399.409L411.805 134.691C411.234 135.183 411.315 135.838 412.049 136.247C412.865 136.739 414.17 136.739 414.904 136.247C415.719 135.756 415.719 135.019 414.904 134.609C414.17 134.2 413.028 134.118 412.294 134.527L399.572 127.155H385.954L378.288 122.732L397.778 111.428H459.837V110.937H398.512L406.259 106.431H452.416H452.498L459.837 102.172V101.68L452.334 106.022H406.178H406.096L353.742 136.411L347.952 133.053L402.997 101.107H443.201H443.283L459.837 91.5234V90.6223L443.119 100.37H402.916H402.834L347.544 132.398L340.939 128.548L448.257 66.2943V43.6865L459.918 36.9697V36.4783ZM367.116 144.275L313.539 175.32L259.961 144.275L313.539 113.23L367.116 144.275Z" fill="#42E8E0"/>
<g opacity="0.67">
<path d="M301.025 236.686L146.443 147.445L301.025 58.2031L455.526 147.445L301.025 236.686Z" fill="#0F054C"/>
</g>
<g opacity="0.67">
<path d="M301.025 222.9L170.426 147.445L301.025 72.0707L431.624 147.445L301.025 222.9Z" fill="#0F054C"/>
</g>
<g opacity="0.9">
<path d="M301.025 206.83L198.243 147.445L301.025 88.1406L403.727 147.445L301.025 206.83Z" fill="#080344"/>
</g>
<path d="M202.893 141.163C201.751 141.163 200.69 140.837 199.711 140.347L163.493 119.464C162.922 119.138 162.595 118.567 162.595 117.915C162.595 117.262 162.922 116.691 163.493 116.365L228.915 78.5961C228.996 78.5145 229.159 78.5145 229.241 78.5961L229.567 78.7592L268.396 101.192C268.967 101.518 269.294 102.089 269.294 102.742C269.294 103.394 268.967 103.965 268.396 104.292L205.911 140.347C205.095 140.837 204.035 141.163 202.893 141.163ZM229.241 79.2487L163.982 116.936C163.656 117.099 163.411 117.507 163.411 117.915C163.411 118.322 163.656 118.649 163.982 118.893L200.201 139.776C201.914 140.755 204.116 140.755 205.748 139.776L268.233 103.721C268.56 103.558 268.804 103.15 268.804 102.742C268.804 102.334 268.56 102.008 268.233 101.763L229.241 79.2487Z" fill="#42E8E0"/>
<path d="M273.291 90.9137L269.457 92.8714L231.362 70.8466C230.709 70.4387 229.649 70.5203 228.915 70.9282L163.248 108.86C162.595 108.534 159.74 107.147 159.74 107.147L161.127 110.736C161.209 110.899 161.29 111.062 161.535 111.144L201.669 134.311C202.322 134.719 203.382 134.637 204.116 134.229L271.333 95.4002C271.659 95.2371 271.822 94.9924 271.904 94.8292L273.291 90.9137Z" fill="url(#paint2_linear_1_415)"/>
<path d="M272.638 91.5664L203.79 131.374C203.056 131.782 201.914 131.864 201.261 131.456L160.148 107.718C159.495 107.31 159.577 106.657 160.311 106.25L229.159 66.4417C229.893 66.0338 231.035 65.9523 231.688 66.3601L272.801 90.098C273.535 90.4243 273.454 91.0769 272.638 91.5664Z" fill="url(#paint3_linear_1_415)"/>
<path d="M272.638 91.1584L203.79 130.966C203.056 131.374 201.914 131.456 201.261 131.048L160.148 107.31C159.903 107.147 159.822 107.065 159.74 106.902C159.659 107.228 159.74 107.555 160.148 107.718L201.261 131.456C201.914 131.864 203.056 131.782 203.79 131.374L272.638 91.5662C273.128 91.24 273.372 90.9137 273.209 90.5058C273.209 90.7505 272.964 90.9952 272.638 91.1584Z" fill="white"/>
<path d="M182.989 122.727V121.993C182.989 121.912 183.07 121.912 183.07 121.912L185.762 123.462C185.844 123.462 185.844 123.543 185.844 123.625V124.359C185.844 124.44 185.762 124.44 185.762 124.44L183.07 122.891C183.07 122.891 182.989 122.809 182.989 122.727Z" fill="#2842A2"/>
<path d="M186.986 125.011V124.277C186.986 124.196 187.067 124.196 187.067 124.196L189.759 125.746C189.841 125.746 189.841 125.827 189.841 125.909V126.643C189.841 126.725 189.759 126.725 189.759 126.725L187.067 125.175C187.067 125.175 186.986 125.093 186.986 125.011Z" fill="#2842A2"/>
<path d="M183.315 113.102L240.58 80.0645C240.988 79.8197 241.395 79.8197 241.803 80.0645L262.197 91.8926C262.523 92.0558 262.523 92.4636 262.197 92.6268L204.932 125.664C204.524 125.909 204.116 125.909 203.708 125.664L183.315 113.917C182.989 113.673 182.989 113.265 183.315 113.102Z" fill="#ADB1F2"/>
<path d="M183.315 113.836L183.56 113.918L240.58 80.9619C240.988 80.7171 241.396 80.7171 241.804 80.9619L261.952 92.6269L262.197 92.5453C262.523 92.3822 262.523 91.9743 262.197 91.8111L241.804 79.983C241.396 79.7383 240.988 79.7383 240.58 79.983L183.315 113.02C182.989 113.265 182.989 113.673 183.315 113.836Z" fill="#9198DB"/>
<path d="M243.353 83.0014L190.575 113.428L187.965 112.45L241.069 81.7778L243.353 83.0014Z" fill="#24126A"/>
<path d="M248.737 86.1827L202.077 113.102L199.875 111.797L246.535 84.8775L248.737 86.1827Z" fill="#24126A"/>
<path d="M252.245 88.2221L197.346 119.873L195.143 118.649L250.042 86.9169L252.245 88.2221Z" fill="#24126A"/>
<path d="M255.834 90.2617L200.853 121.912L198.651 120.689L253.55 88.9565L255.834 90.2617Z" fill="#24126A"/>
<path d="M259.342 92.3008L204.443 123.951L202.24 122.728L257.139 90.9956L259.342 92.3008Z" fill="#24126A"/>
<path d="M190.575 113.428L188.372 114.734L186.17 113.428L188.372 112.205L190.575 113.428Z" fill="#24126A"/>
<path d="M204.769 111.552L193.838 117.833L191.554 116.61L202.648 110.247L204.769 111.552Z" fill="#24126A"/>
<path d="M203.709 98.2555L219.126 89.364C219.697 89.0377 219.697 88.4667 219.126 88.1404L208.603 82.0224C208.032 81.6961 207.053 81.6961 206.401 82.0224L190.983 90.9139C190.412 91.2402 190.412 91.8112 190.983 92.1375L201.506 98.2555C202.077 98.6634 203.056 98.6634 203.709 98.2555Z" fill="url(#paint4_linear_1_415)"/>
<path d="M190.983 91.4033L206.4 82.5118C206.971 82.1855 207.95 82.1855 208.603 82.5118L219.126 88.6298C219.289 88.7113 219.452 88.8745 219.534 89.0376C219.697 88.7113 219.534 88.385 219.126 88.1403L208.603 82.0223C208.032 81.696 207.053 81.696 206.4 82.0223L190.983 90.9138C190.575 91.1586 190.412 91.4848 190.575 91.8111C190.657 91.648 190.738 91.5664 190.983 91.4033Z" fill="#9198DB"/>
<path d="M273.128 89.9349L264.399 38.2173L265.133 37.891L264.073 37.32C263.828 37.1569 263.584 37.1569 263.257 37.4016L193.675 77.6173C193.104 77.9436 192.696 78.7594 192.778 79.412L201.588 131.456C201.669 131.701 201.751 131.945 201.914 131.945L202.974 132.516L203.138 131.537H203.056L272.23 91.5664C272.801 91.3217 273.209 90.506 273.128 89.9349Z" fill="url(#paint5_linear_1_415)"/>
<path d="M194.083 79.0042L192.941 78.5147C192.778 78.841 192.778 79.0857 192.778 79.412L201.588 131.456C201.669 131.701 201.751 131.945 201.914 131.945L202.974 132.516L203.137 131.538H203.056L206.564 129.498L194.083 79.0042Z" fill="url(#paint6_linear_1_415)"/>
<path d="M273.372 92.3005L203.79 132.516C203.219 132.843 202.811 132.679 202.73 132.108L193.92 80.0645C193.838 79.4935 194.246 78.5962 194.817 78.2699L264.399 38.0541C264.97 37.7278 265.378 37.891 265.46 38.462L274.27 90.5059C274.351 91.1585 273.943 91.9742 273.372 92.3005Z" fill="#453C9E"/>
<path d="M399.24 141.163C398.098 141.163 397.038 140.837 396.059 140.348L333.574 104.292C333.003 103.966 332.676 103.395 332.676 102.742C332.676 102.09 333.003 101.519 333.574 101.192L372.729 78.5964C372.81 78.5148 372.974 78.5148 373.055 78.5964L438.477 116.365C439.048 116.691 439.375 117.262 439.375 117.915C439.375 118.567 439.048 119.138 438.477 119.465L402.34 140.266C401.361 140.837 400.301 141.163 399.24 141.163ZM372.892 79.249L372.729 79.3306L333.9 101.763C333.574 101.926 333.329 102.334 333.329 102.742C333.329 103.15 333.574 103.476 333.9 103.721L396.385 139.777C398.098 140.755 400.301 140.755 401.932 139.777L438.151 118.894C438.477 118.731 438.722 118.323 438.722 117.915C438.722 117.507 438.477 117.181 438.151 116.936L372.892 79.249Z" fill="#42E8E0"/>
<path d="M328.842 90.9139L332.676 92.8717L370.771 70.8468C371.424 70.439 372.484 70.5205 373.218 70.9284L438.885 108.86C439.538 108.534 442.393 107.147 442.393 107.147L441.006 110.736C440.924 110.899 440.843 111.063 440.598 111.144L400.464 134.311C399.811 134.719 398.751 134.637 398.017 134.229L330.8 95.4005C330.474 95.2373 330.311 94.9926 330.229 94.8294L328.842 90.9139Z" fill="url(#paint7_linear_1_415)"/>
<path d="M329.413 91.5665L398.261 131.374C398.996 131.782 400.138 131.864 400.79 131.456L441.903 107.718C442.556 107.31 442.474 106.658 441.74 106.25L372.892 66.4419C372.158 66.034 371.016 65.9524 370.363 66.3603L329.25 90.0982C328.598 90.4245 328.679 91.0771 329.413 91.5665Z" fill="url(#paint8_linear_1_415)"/>
<path d="M329.413 91.1587L398.261 130.967C398.996 131.374 400.138 131.456 400.79 131.048L441.903 107.31C442.148 107.147 442.23 107.066 442.311 106.902C442.393 107.229 442.311 107.555 441.903 107.718L400.79 131.456C400.138 131.864 398.996 131.782 398.261 131.374L329.413 91.5665C328.924 91.2403 328.679 90.914 328.842 90.5061C328.924 90.7508 329.169 90.9955 329.413 91.1587Z" fill="white"/>
<path d="M419.144 122.728V121.993C419.144 121.912 419.063 121.912 419.063 121.912L416.371 123.462C416.289 123.462 416.289 123.543 416.289 123.625V124.359C416.289 124.441 416.371 124.441 416.371 124.441L419.063 122.891C419.063 122.891 419.144 122.809 419.144 122.728Z" fill="#2842A2"/>
<path d="M415.147 125.012V124.278C415.147 124.196 415.065 124.196 415.065 124.196L412.374 125.746C412.292 125.746 412.292 125.828 412.292 125.909V126.643C412.292 126.725 412.374 126.725 412.374 126.725L415.065 125.175C415.065 125.175 415.147 125.093 415.147 125.012Z" fill="#2842A2"/>
<path d="M418.818 113.102L361.553 80.0648C361.145 79.82 360.738 79.82 360.33 80.0648L339.936 91.8929C339.61 92.0561 339.61 92.4639 339.936 92.6271L397.119 125.664C397.527 125.909 397.935 125.909 398.343 125.664L418.736 113.918C419.144 113.673 419.144 113.265 418.818 113.102Z" fill="#ADB1F2"/>
<path d="M418.818 113.836L418.573 113.918L361.553 81.0436C361.145 80.7989 360.738 80.7989 360.33 81.0436L340.181 92.7087L339.936 92.6271C339.61 92.4639 339.61 92.0561 339.936 91.8929L360.33 80.0648C360.738 79.82 361.145 79.82 361.553 80.0648L418.818 113.102C419.144 113.265 419.144 113.673 418.818 113.836Z" fill="#9198DB"/>
<path d="M358.78 83.0012L411.558 113.428L414.169 112.449L360.983 81.7776L358.78 83.0012Z" fill="#24126A"/>
<path d="M353.396 86.1827L400.057 113.102L402.259 111.797L355.599 84.8775L353.396 86.1827Z" fill="#24126A"/>
<path d="M349.889 88.2221L404.788 119.873L406.99 118.649L352.091 86.9169L349.889 88.2221Z" fill="#24126A"/>
<path d="M346.3 90.2614L401.199 121.912L403.401 120.688L348.502 88.9562L346.3 90.2614Z" fill="#24126A"/>
<path d="M342.792 92.3008L397.691 123.951L399.893 122.728L344.994 90.9956L342.792 92.3008Z" fill="#24126A"/>
<path d="M411.558 113.428L413.761 114.734L415.963 113.428L413.761 112.205L411.558 113.428Z" fill="#24126A"/>
<path d="M397.365 111.552L408.295 117.833L410.498 116.61L399.485 110.247L397.365 111.552Z" fill="#24126A"/>
<path d="M398.425 98.2555L383.008 89.364C382.437 89.0377 382.437 88.4667 383.008 88.1404L393.531 82.0224C394.102 81.6961 395.081 81.6961 395.733 82.0224L411.15 90.9139C411.722 91.2402 411.722 91.8112 411.15 92.1375L400.628 98.2555C399.975 98.6634 399.078 98.6634 398.425 98.2555Z" fill="url(#paint9_linear_1_415)"/>
<path d="M411.15 91.4033L395.733 82.5118C395.162 82.1855 394.183 82.1855 393.53 82.5118L383.007 88.6298C382.844 88.7113 382.681 88.8745 382.599 89.0376C382.436 88.7113 382.599 88.385 383.007 88.1403L393.53 82.0223C394.101 81.696 395.08 81.696 395.733 82.0223L411.15 90.9138C411.558 91.1586 411.721 91.4848 411.558 91.8111C411.476 91.648 411.395 91.5664 411.15 91.4033Z" fill="#9198DB"/>
<path d="M329.005 89.9349L337.734 38.2989L337 37.9726L338.06 37.4015C338.305 37.2384 338.55 37.2384 338.876 37.4831L408.458 77.6989C409.029 78.0252 409.437 78.8409 409.355 79.4935L400.545 131.537C400.464 131.782 400.382 132.027 400.219 132.027L399.159 132.598L398.996 131.619H399.077L329.903 91.648C329.332 91.3217 328.842 90.5059 329.005 89.9349Z" fill="url(#paint10_linear_1_415)"/>
<path d="M408.05 79.0042L409.192 78.5147C409.355 78.841 409.355 79.0857 409.355 79.412L400.545 131.456C400.464 131.701 400.382 131.945 400.219 131.945L399.159 132.516L398.995 131.538H399.077L395.569 129.498L408.05 79.0042Z" fill="url(#paint11_linear_1_415)"/>
<path d="M328.761 92.3008L398.343 132.517C398.914 132.843 399.322 132.68 399.403 132.109L408.213 80.0648C408.295 79.4938 407.887 78.5965 407.316 78.2702L337.734 38.0544C337.163 37.7281 336.755 37.8913 336.673 38.4623L327.863 90.5062C327.782 91.1588 328.19 91.9746 328.761 92.3008Z" fill="#453C9E"/>
<path d="M301.026 153.644L236.256 116.202L301.026 78.7595L365.877 116.202L301.026 153.644Z" fill="#BCBEFF"/>
<path d="M301.025 143.366L253.958 116.202L301.025 89.0378L348.175 116.202L301.025 143.366Z" fill="#453C9E"/>
<path d="M301.025 90.8324L346.544 117.099L348.175 116.202L301.025 89.0378L253.958 116.202L255.589 117.099L301.025 90.8324Z" fill="white"/>
<path d="M365.876 116.202V137.411L301.025 174.771V153.644L365.876 116.202Z" fill="url(#paint12_linear_1_415)"/>
<path d="M236.256 116.202V137.411L301.026 174.771V153.644L236.256 116.202Z" fill="#24126A"/>
<g opacity="0.51">
<path d="M240.661 125.746V132.435L296.702 164.738V158.049L240.661 125.746Z" fill="#453C9E"/>
</g>
<path d="M301.026 152.42L237.317 115.549L236.256 116.202L301.026 153.644L365.877 116.202L364.816 115.549L301.026 152.42Z" fill="white"/>
<path d="M356.169 131.048V134.882L310.814 161.067V157.233L356.169 131.048Z" fill="#453C9E"/>
<path opacity="0.51" d="M236.256 116.202V137.411L301.026 174.771V153.644L236.256 116.202Z" fill="#453C9E"/>
<path d="M282.182 152.502L270.436 145.731V147.118L282.182 153.889V152.502Z" fill="#42E8E0"/>
<path d="M268.722 144.753L265.541 142.876V144.263L268.722 146.139V144.753Z" fill="#42E8E0"/>
<path d="M253.794 136.105L247.35 132.353V133.821L253.794 137.574V136.105Z" fill="#42E8E0"/>
<path d="M259.75 139.532L255.018 136.84V138.226L259.75 141V139.532Z" fill="#42E8E0"/>
<path d="M264.154 142.142L260.973 140.266V141.652L264.154 143.529V142.142Z" fill="#42E8E0"/>
<path d="M301.107 98.337L299.068 97.1134L301.107 95.9714L303.146 97.1134L301.107 98.337Z" fill="#42E8E0"/>
<path opacity="0.1" d="M305.267 100.703L303.146 99.5606L305.267 98.337L307.306 99.5606L305.267 100.703Z" fill="#42E8E0"/>
<path opacity="0.4" d="M309.346 103.069L307.307 101.927L309.346 100.703L311.385 101.927L309.346 103.069Z" fill="#42E8E0"/>
<path d="M313.506 105.434L311.385 104.292L313.506 103.068L315.546 104.292L313.506 105.434Z" fill="#42E8E0"/>
<path opacity="0.4" d="M317.585 107.8L315.545 106.658L317.585 105.434L319.624 106.658L317.585 107.8Z" fill="#42E8E0"/>
<path d="M321.663 110.247L319.624 109.023L321.663 107.8L323.784 109.023L321.663 110.247Z" fill="#42E8E0"/>
<path d="M325.824 112.612L323.784 111.389L325.824 110.247L327.863 111.389L325.824 112.612Z" fill="#42E8E0"/>
<path d="M329.902 114.978L327.863 113.754L329.902 112.612L332.023 113.754L329.902 114.978Z" fill="#42E8E0"/>
<path opacity="0.1" d="M334.063 117.344L332.023 116.12L334.063 114.978L336.102 116.12L334.063 117.344Z" fill="#42E8E0"/>
<path d="M297.028 100.703L294.907 99.5606L297.028 98.337L299.067 99.5606L297.028 100.703Z" fill="#42E8E0"/>
<path d="M301.107 103.068L299.067 101.926L301.107 100.703L303.146 101.926L301.107 103.068Z" fill="#42E8E0"/>
<path d="M305.185 105.434L303.146 104.292L305.185 103.068L307.306 104.292L305.185 105.434Z" fill="#42E8E0"/>
<path d="M309.345 107.881L307.306 106.658L309.345 105.434L311.385 106.658L309.345 107.881Z" fill="#42E8E0"/>
<path d="M313.424 110.247L311.385 109.023L313.424 107.881L315.545 109.023L313.424 110.247Z" fill="#42E8E0"/>
<path d="M317.585 112.612L315.545 111.389L317.585 110.247L319.624 111.389L317.585 112.612Z" fill="#42E8E0"/>
<path d="M321.663 114.978L319.624 113.754L321.663 112.612L323.703 113.754L321.663 114.978Z" fill="#42E8E0"/>
<path d="M325.824 117.344L323.703 116.202L325.824 114.978L327.863 116.202L325.824 117.344Z" fill="#42E8E0"/>
<path d="M329.902 119.709L327.863 118.567L329.902 117.344L331.941 118.567L329.902 119.709Z" fill="#42E8E0"/>
<path d="M292.868 103.069L290.829 101.927L292.868 100.703L294.907 101.927L292.868 103.069Z" fill="#42E8E0"/>
<path d="M296.947 105.516L294.907 104.292L296.947 103.068L299.067 104.292L296.947 105.516Z" fill="#42E8E0"/>
<path d="M301.107 107.881L299.068 106.658L301.107 105.516L303.146 106.658L301.107 107.881Z" fill="#42E8E0"/>
<path opacity="0.1" d="M305.186 110.247L303.146 109.024L305.186 107.881L307.225 109.024L305.186 110.247Z" fill="#42E8E0"/>
<path opacity="0.4" d="M309.346 112.612L307.225 111.389L309.346 110.247L311.385 111.389L309.346 112.612Z" fill="#42E8E0"/>
<path opacity="0.4" d="M313.424 114.978L311.385 113.836L313.424 112.613L315.464 113.836L313.424 114.978Z" fill="#42E8E0"/>
<path d="M317.585 117.344L315.464 116.202L317.585 114.978L319.624 116.202L317.585 117.344Z" fill="#42E8E0"/>
<path d="M321.663 119.71L319.624 118.568L321.663 117.344L323.703 118.568L321.663 119.71Z" fill="#42E8E0"/>
<path d="M325.824 122.075L323.703 120.933L325.824 119.71L327.863 120.933L325.824 122.075Z" fill="#42E8E0"/>
<path opacity="0.4" d="M288.708 105.515L286.668 104.292L288.708 103.15L290.829 104.292L288.708 105.515Z" fill="#42E8E0"/>
<path opacity="0.4" d="M292.868 107.881L290.829 106.658L292.868 105.516L294.907 106.658L292.868 107.881Z" fill="#42E8E0"/>
<path opacity="0.1" d="M296.947 110.247L294.907 109.023L296.947 107.881L298.986 109.023L296.947 110.247Z" fill="#42E8E0"/>
<path d="M301.107 112.612L298.986 111.47L301.107 110.247L303.146 111.47L301.107 112.612Z" fill="#42E8E0"/>
<path d="M305.186 114.978L303.146 113.836L305.186 112.613L307.225 113.836L305.186 114.978Z" fill="#42E8E0"/>
<path d="M309.346 117.344L307.225 116.202L309.346 114.978L311.385 116.202L309.346 117.344Z" fill="#42E8E0"/>
<path opacity="0.4" d="M313.425 119.709L311.385 118.567L313.425 117.344L315.464 118.567L313.425 119.709Z" fill="#42E8E0"/>
<path d="M317.503 122.157L315.464 120.933L317.503 119.709L319.624 120.933L317.503 122.157Z" fill="#42E8E0"/>
<path d="M321.664 124.522L319.624 123.299L321.664 122.157L323.703 123.299L321.664 124.522Z" fill="#42E8E0"/>
<path d="M284.629 107.881L282.508 106.658L284.629 105.516L286.668 106.658L284.629 107.881Z" fill="#42E8E0"/>
<path d="M288.708 110.247L286.668 109.105L288.708 107.881L290.747 109.105L288.708 110.247Z" fill="#42E8E0"/>
<path d="M292.868 112.612L290.747 111.47L292.868 110.247L294.907 111.47L292.868 112.612Z" fill="#42E8E0"/>
<path d="M296.947 114.978L294.907 113.836L296.947 112.612L298.986 113.836L296.947 114.978Z" fill="#42E8E0"/>
<path d="M301.025 117.344L298.986 116.202L301.025 114.978L303.146 116.202L301.025 117.344Z" fill="#42E8E0"/>
<path d="M305.186 119.791L303.146 118.567L305.186 117.344L307.225 118.567L305.186 119.791Z" fill="#42E8E0"/>
<path d="M309.264 122.157L307.225 120.933L309.264 119.791L311.385 120.933L309.264 122.157Z" fill="#42E8E0"/>
<path d="M313.424 124.522L311.385 123.298L313.424 122.156L315.464 123.298L313.424 124.522Z" fill="#42E8E0"/>
<path d="M317.503 126.888L315.464 125.664L317.503 124.522L319.543 125.664L317.503 126.888Z" fill="#42E8E0"/>
<path d="M280.469 110.247L278.429 109.105L280.469 107.881L282.508 109.105L280.469 110.247Z" fill="#42E8E0"/>
<path d="M284.547 112.612L282.508 111.47L284.547 110.247L286.668 111.47L284.547 112.612Z" fill="#42E8E0"/>
<path opacity="0.4" d="M288.708 114.978L286.668 113.836L288.708 112.613L290.747 113.836L288.708 114.978Z" fill="#42E8E0"/>
<path d="M292.786 117.426L290.747 116.202L292.786 114.978L294.907 116.202L292.786 117.426Z" fill="#42E8E0"/>
<path opacity="0.1" d="M296.947 119.791L294.907 118.567L296.947 117.425L298.986 118.567L296.947 119.791Z" fill="#42E8E0"/>
<path d="M301.025 122.157L298.986 120.933L301.025 119.791L303.065 120.933L301.025 122.157Z" fill="#42E8E0"/>
<path d="M305.185 124.522L303.064 123.299L305.185 122.157L307.225 123.299L305.185 124.522Z" fill="#42E8E0"/>
<path d="M309.264 126.888L307.225 125.746L309.264 124.522L311.304 125.746L309.264 126.888Z" fill="#42E8E0"/>
<path d="M313.424 129.254L311.303 128.112L313.424 126.888L315.464 128.112L313.424 129.254Z" fill="#42E8E0"/>
<path d="M276.309 112.612L274.269 111.47L276.309 110.247L278.43 111.47L276.309 112.612Z" fill="#42E8E0"/>
<path d="M280.469 115.06L278.43 113.836L280.469 112.612L282.508 113.836L280.469 115.06Z" fill="#42E8E0"/>
<path opacity="0.4" d="M284.548 117.425L282.508 116.201L284.548 115.059L286.587 116.201L284.548 117.425Z" fill="#42E8E0"/>
<path d="M288.708 119.791L286.587 118.567L288.708 117.425L290.747 118.567L288.708 119.791Z" fill="#42E8E0"/>
<path d="M292.786 122.157L290.747 120.933L292.786 119.791L294.826 120.933L292.786 122.157Z" fill="#42E8E0"/>
<path opacity="0.1" d="M296.947 124.522L294.826 123.38L296.947 122.157L298.986 123.38L296.947 124.522Z" fill="#42E8E0"/>
<path opacity="0.4" d="M301.025 126.888L298.986 125.746L301.025 124.522L303.065 125.746L301.025 126.888Z" fill="#42E8E0"/>
<path d="M305.104 129.253L303.065 128.111L305.104 126.888L307.225 128.111L305.104 129.253Z" fill="#42E8E0"/>
<path opacity="0.1" d="M309.264 131.619L307.225 130.477L309.264 129.253L311.304 130.477L309.264 131.619Z" fill="#42E8E0"/>
<path d="M272.23 115.06L270.109 113.836L272.23 112.694L274.269 113.836L272.23 115.06Z" fill="#42E8E0"/>
<path opacity="0.4" d="M276.309 117.425L274.269 116.202L276.309 115.06L278.348 116.202L276.309 117.425Z" fill="#42E8E0"/>
<path d="M280.469 119.791L278.348 118.567L280.469 117.425L282.508 118.567L280.469 119.791Z" fill="#42E8E0"/>
<path d="M284.547 122.157L282.508 121.015L284.547 119.791L286.587 121.015L284.547 122.157Z" fill="#42E8E0"/>
<path d="M288.626 124.522L286.587 123.38L288.626 122.157L290.747 123.38L288.626 124.522Z" fill="#42E8E0"/>
<path d="M292.787 126.888L290.747 125.746L292.787 124.522L294.826 125.746L292.787 126.888Z" fill="#42E8E0"/>
<path d="M296.865 129.253L294.826 128.111L296.865 126.888L298.986 128.111L296.865 129.253Z" fill="#42E8E0"/>
<path opacity="0.4" d="M301.025 131.701L298.986 130.477L301.025 129.254L303.065 130.477L301.025 131.701Z" fill="#42E8E0"/>
<path d="M305.104 134.066L303.065 132.843L305.104 131.701L307.143 132.843L305.104 134.066Z" fill="#42E8E0"/>
<path d="M268.07 117.425L266.03 116.201L268.07 115.059L270.109 116.201L268.07 117.425Z" fill="#42E8E0"/>
<path opacity="0.1" d="M272.148 119.791L270.109 118.567L272.148 117.425L274.269 118.567L272.148 119.791Z" fill="#42E8E0"/>
<path d="M276.309 122.157L274.269 121.015L276.309 119.791L278.348 121.015L276.309 122.157Z" fill="#42E8E0"/>
<path d="M280.387 124.522L278.348 123.38L280.387 122.156L282.508 123.38L280.387 124.522Z" fill="#42E8E0"/>
<path d="M284.547 126.888L282.508 125.746L284.547 124.522L286.587 125.746L284.547 126.888Z" fill="#42E8E0"/>
<path d="M288.626 129.335L286.587 128.111L288.626 126.888L290.665 128.111L288.626 129.335Z" fill="#42E8E0"/>
<path opacity="0.4" d="M292.786 131.701L290.666 130.477L292.786 129.335L294.826 130.477L292.786 131.701Z" fill="#42E8E0"/>
<path d="M296.865 134.066L294.826 132.842L296.865 131.7L298.905 132.842L296.865 134.066Z" fill="#42E8E0"/>
<path d="M301.025 136.432L298.904 135.208L301.025 134.066L303.065 135.208L301.025 136.432Z" fill="#42E8E0"/>
<path d="M301.026 116.854L236.256 79.4937L301.026 42.0514L365.877 79.4937L301.026 116.854Z" fill="#BCBEFF"/>
<path d="M301.025 106.658L253.958 79.4936L301.025 52.248L348.175 79.4936L301.025 106.658Z" fill="#453C9E"/>
<path d="M301.025 54.1242L346.544 80.3909L348.175 79.4936L301.025 52.248L253.958 79.4936L255.589 80.3909L301.025 54.1242Z" fill="white"/>
<path d="M365.876 79.4937V100.703L301.025 138.063V116.854L365.876 79.4937Z" fill="url(#paint13_linear_1_415)"/>
<path d="M236.256 79.4937V100.703L301.026 138.063V116.854L236.256 79.4937Z" fill="#24126A"/>
<g opacity="0.51">
<path d="M240.661 89.038V95.6454L296.702 128.03V121.341L240.661 89.038Z" fill="#453C9E"/>
</g>
<path d="M301.026 115.713L237.317 78.8414L236.256 79.494L301.026 116.855L365.877 79.494L364.816 78.8414L301.026 115.713Z" fill="white"/>
<path d="M356.169 94.3402V98.1742L310.814 124.359V120.525L356.169 94.3402Z" fill="#453C9E"/>
<path opacity="0.51" d="M236.256 79.4937V100.703L301.026 138.063V116.854L236.256 79.4937Z" fill="#453C9E"/>
<path d="M282.182 115.794L270.436 109.024V110.41L282.182 117.181V115.794Z" fill="#42E8E0"/>
<path d="M268.722 108.044L265.541 106.168V107.555L268.722 109.431V108.044Z" fill="#42E8E0"/>
<path d="M253.794 99.3977L247.35 95.6453V97.0321L253.794 100.866V99.3977Z" fill="#42E8E0"/>
<path d="M259.75 102.824L255.018 100.132V101.519L259.75 104.292V102.824Z" fill="#42E8E0"/>
<path d="M264.154 105.434L260.973 103.558V104.945L264.154 106.821V105.434Z" fill="#42E8E0"/>
<path d="M301.107 61.6293L299.068 60.4057L301.107 59.2637L303.146 60.4057L301.107 61.6293Z" fill="#42E8E0"/>
<path opacity="0.1" d="M305.267 63.9946L303.146 62.771L305.267 61.629L307.306 62.771L305.267 63.9946Z" fill="#42E8E0"/>
<path opacity="0.4" d="M309.346 66.3603L307.307 65.2182L309.346 63.9946L311.385 65.2182L309.346 66.3603Z" fill="#42E8E0"/>
<path d="M313.506 68.7259L311.385 67.5838L313.506 66.3602L315.546 67.5838L313.506 68.7259Z" fill="#42E8E0"/>
<path opacity="0.4" d="M317.585 71.0918L315.545 69.9497L317.585 68.7261L319.624 69.9497L317.585 71.0918Z" fill="#42E8E0"/>
<path d="M321.663 73.5388L319.624 72.3152L321.663 71.0916L323.784 72.3152L321.663 73.5388Z" fill="#42E8E0"/>
<path d="M325.824 75.9046L323.784 74.681L325.824 73.5389L327.863 74.681L325.824 75.9046Z" fill="#42E8E0"/>
<path d="M329.902 78.2699L327.863 77.0463L329.902 75.9043L332.023 77.0463L329.902 78.2699Z" fill="#42E8E0"/>
<path opacity="0.1" d="M334.063 80.6356L332.023 79.412L334.063 78.27L336.102 79.412L334.063 80.6356Z" fill="#42E8E0"/>
<path d="M297.028 63.9947L294.907 62.8526L297.028 61.629L299.067 62.8526L297.028 63.9947Z" fill="#42E8E0"/>
<path d="M301.107 66.3604L299.067 65.2184L301.107 63.9948L303.146 65.2184L301.107 66.3604Z" fill="#42E8E0"/>
<path d="M305.185 68.726L303.146 67.584L305.185 66.3604L307.306 67.584L305.185 68.726Z" fill="#42E8E0"/>
<path opacity="0.8" d="M309.345 71.1732L307.306 69.9496L309.345 68.726L311.385 69.9496L309.345 71.1732Z" fill="#FF2C9C"/>
<path d="M313.424 73.5388L311.385 72.3152L313.424 71.1732L315.545 72.3152L313.424 73.5388Z" fill="#42E8E0"/>
<path d="M317.585 75.9047L315.545 74.6811L317.585 73.5391L319.624 74.6811L317.585 75.9047Z" fill="#42E8E0"/>
<path opacity="0.8" d="M321.663 78.2701L319.624 77.0465L321.663 75.9044L323.703 77.0465L321.663 78.2701Z" fill="url(#paint14_radial_1_415)"/>
<path d="M325.824 80.6357L323.703 79.4121L325.824 78.2701L327.863 79.4121L325.824 80.6357Z" fill="#42E8E0"/>
<path opacity="0.8" d="M329.902 83.0016L327.863 81.8596L329.902 80.636L331.941 81.8596L329.902 83.0016Z" fill="#FF2C9C"/>
<path d="M292.868 66.3603L290.829 65.2183L292.868 63.9947L294.907 65.2183L292.868 66.3603Z" fill="#42E8E0"/>
<path opacity="0.8" d="M296.947 68.8075L294.907 67.5839L296.947 66.3603L299.067 67.5839L296.947 68.8075Z" fill="#FF2C9C"/>
<path d="M301.107 71.1731L299.068 69.9495L301.107 68.8074L303.146 69.9495L301.107 71.1731Z" fill="#42E8E0"/>
<path opacity="0.1" d="M305.186 73.5387L303.146 72.3151L305.186 71.1731L307.225 72.3151L305.186 73.5387Z" fill="#42E8E0"/>
<path opacity="0.4" d="M309.346 75.9046L307.225 74.681L309.346 73.539L311.385 74.681L309.346 75.9046Z" fill="#42E8E0"/>
<path opacity="0.4" d="M313.424 78.2702L311.385 77.0466L313.424 75.9046L315.464 77.0466L313.424 78.2702Z" fill="#42E8E0"/>
<path d="M317.585 80.6356L315.464 79.4936L317.585 78.27L319.624 79.4936L317.585 80.6356Z" fill="#42E8E0"/>
<path d="M321.663 83.0016L319.624 81.8595L321.663 80.6359L323.703 81.8595L321.663 83.0016Z" fill="#42E8E0"/>
<path d="M325.824 85.3672L323.703 84.2251L325.824 83.0015L327.863 84.2251L325.824 85.3672Z" fill="#42E8E0"/>
<path opacity="0.4" d="M288.708 68.8075L286.668 67.5839L288.708 66.3603L290.829 67.5839L288.708 68.8075Z" fill="#42E8E0"/>
<path opacity="0.4" d="M292.868 71.1729L290.829 69.9493L292.868 68.8073L294.907 69.9493L292.868 71.1729Z" fill="#42E8E0"/>
<path opacity="0.1" d="M296.947 73.5386L294.907 72.315L296.947 71.173L298.986 72.315L296.947 73.5386Z" fill="#42E8E0"/>
<path d="M301.107 75.9045L298.986 74.6809L301.107 73.5389L303.146 74.6809L301.107 75.9045Z" fill="#42E8E0"/>
<path d="M305.186 78.2699L303.146 77.1278L305.186 75.9042L307.225 77.1278L305.186 78.2699Z" fill="#42E8E0"/>
<path opacity="0.8" d="M309.346 80.6355L307.225 79.4935L309.346 78.2699L311.385 79.4935L309.346 80.6355Z" fill="#FF2C9C"/>
<path opacity="0.4" d="M313.425 83.0014L311.385 81.8594L313.425 80.6358L315.464 81.8594L313.425 83.0014Z" fill="#42E8E0"/>
<path d="M317.503 85.3668L315.464 84.2248L317.503 83.0012L319.624 84.2248L317.503 85.3668Z" fill="#42E8E0"/>
<path d="M321.664 87.814L319.624 86.5904L321.664 85.3668L323.703 86.5904L321.664 87.814Z" fill="#42E8E0"/>
<path opacity="0.8" d="M284.629 71.1731L282.508 69.9495L284.629 68.8074L286.668 69.9495L284.629 71.1731Z" fill="#FF2C9C"/>
<path d="M288.708 73.5387L286.668 72.3151L288.708 71.1731L290.747 72.3151L288.708 73.5387Z" fill="#42E8E0"/>
<path d="M292.868 75.9046L290.747 74.7626L292.868 73.539L294.907 74.7626L292.868 75.9046Z" fill="#42E8E0"/>
<path d="M296.947 78.27L294.907 77.128L296.947 75.9044L298.986 77.128L296.947 78.27Z" fill="#42E8E0"/>
<path opacity="0.8" d="M301.025 80.6356L298.986 79.4936L301.025 78.27L303.146 79.4936L301.025 80.6356Z" fill="#FF2C9C"/>
<path opacity="0.8" d="M305.186 83.0016L303.146 81.8595L305.186 80.6359L307.225 81.8595L305.186 83.0016Z" fill="#FF2C9C"/>
<path d="M309.264 85.4485L307.225 84.2249L309.264 83.0013L311.385 84.2249L309.264 85.4485Z" fill="#42E8E0"/>
<path d="M313.424 87.8143L311.385 86.5907L313.424 85.4487L315.464 86.5907L313.424 87.8143Z" fill="#42E8E0"/>
<path d="M317.503 90.1799L315.464 88.9563L317.503 87.8143L319.543 88.9563L317.503 90.1799Z" fill="#42E8E0"/>
<path d="M280.469 73.5387L278.429 72.3967L280.469 71.1731L282.508 72.3967L280.469 73.5387Z" fill="#42E8E0"/>
<path d="M284.547 75.9046L282.508 74.7625L284.547 73.5389L286.668 74.7625L284.547 75.9046Z" fill="#42E8E0"/>
<path opacity="0.4" d="M288.708 78.2702L286.668 77.1281L288.708 75.9045L290.747 77.1281L288.708 78.2702Z" fill="#42E8E0"/>
<path opacity="0.8" d="M292.786 80.6356L290.747 79.4936L292.786 78.27L294.907 79.4936L292.786 80.6356Z" fill="#FF2C9C"/>
<path opacity="0.1" d="M296.947 83.0831L294.907 81.8595L296.947 80.6359L298.986 81.8595L296.947 83.0831Z" fill="#42E8E0"/>
<path d="M301.025 85.4486L298.986 84.225L301.025 83.0829L303.065 84.225L301.025 85.4486Z" fill="#42E8E0"/>
<path d="M305.185 87.8146L303.064 86.591L305.185 85.4489L307.225 86.591L305.185 87.8146Z" fill="#42E8E0"/>
<path opacity="0.8" d="M309.264 90.1799L307.225 88.9563L309.264 87.8143L311.304 88.9563L309.264 90.1799Z" fill="#FF2C9C"/>
<path d="M313.424 92.5455L311.303 91.4035L313.424 90.1799L315.464 91.4035L313.424 92.5455Z" fill="#42E8E0"/>
<path d="M276.309 75.9046L274.269 74.7626L276.309 73.539L278.43 74.7626L276.309 75.9046Z" fill="#42E8E0"/>
<path d="M280.469 78.2701L278.43 77.1281L280.469 75.9045L282.508 77.1281L280.469 78.2701Z" fill="#42E8E0"/>
<path opacity="0.4" d="M284.548 80.7173L282.508 79.4937L284.548 78.2701L286.587 79.4937L284.548 80.7173Z" fill="#42E8E0"/>
<path d="M288.708 83.0832L286.587 81.8596L288.708 80.7175L290.747 81.8596L288.708 83.0832Z" fill="#42E8E0"/>
<path d="M292.786 85.4485L290.747 84.2249L292.786 83.0829L294.826 84.2249L292.786 85.4485Z" fill="#42E8E0"/>
<path opacity="0.1" d="M296.947 87.8147L294.826 86.5911L296.947 85.4491L298.986 86.5911L296.947 87.8147Z" fill="#42E8E0"/>
<path opacity="0.4" d="M301.025 90.1801L298.986 89.0381L301.025 87.8145L303.065 89.0381L301.025 90.1801Z" fill="#42E8E0"/>
<path d="M305.104 92.5455L303.065 91.4034L305.104 90.1798L307.225 91.4034L305.104 92.5455Z" fill="#42E8E0"/>
<path opacity="0.1" d="M309.264 94.9113L307.225 93.7693L309.264 92.5457L311.304 93.7693L309.264 94.9113Z" fill="#42E8E0"/>
<path d="M272.23 78.3516L270.109 77.128L272.23 75.9044L274.269 77.128L272.23 78.3516Z" fill="#42E8E0"/>
<path opacity="0.4" d="M276.309 80.7174L274.269 79.4938L276.309 78.3517L278.348 79.4938L276.309 80.7174Z" fill="#42E8E0"/>
<path d="M280.469 83.0827L278.348 81.8591L280.469 80.7171L282.508 81.8591L280.469 83.0827Z" fill="#42E8E0"/>
<path d="M284.547 85.4484L282.508 84.2248L284.547 83.0828L286.587 84.2248L284.547 85.4484Z" fill="#42E8E0"/>
<path d="M288.626 87.8143L286.587 86.6723L288.626 85.4487L290.747 86.6723L288.626 87.8143Z" fill="#42E8E0"/>
<path d="M292.787 90.18L290.747 89.0379L292.787 87.8143L294.826 89.0379L292.787 90.18Z" fill="#42E8E0"/>
<path d="M296.865 92.5453L294.826 91.4033L296.865 90.1797L298.986 91.4033L296.865 92.5453Z" fill="#42E8E0"/>
<path opacity="0.4" d="M301.025 94.9109L298.986 93.7689L301.025 92.5453L303.065 93.7689L301.025 94.9109Z" fill="#42E8E0"/>
<path d="M305.104 97.3584L303.065 96.1348L305.104 94.9112L307.143 96.1348L305.104 97.3584Z" fill="#42E8E0"/>
<path d="M268.07 80.7174L266.03 79.4938L268.07 78.3517L270.109 79.4938L268.07 80.7174Z" fill="#42E8E0"/>
<path opacity="0.1" d="M272.148 83.0826L270.109 81.859L272.148 80.717L274.269 81.859L272.148 83.0826Z" fill="#42E8E0"/>
<path opacity="0.8" d="M276.309 85.4483L274.269 84.3062L276.309 83.0826L278.348 84.3062L276.309 85.4483Z" fill="#FF2C9C"/>
<path d="M280.387 87.8142L278.348 86.6722L280.387 85.4485L282.508 86.6722L280.387 87.8142Z" fill="#42E8E0"/>
<path d="M284.547 90.1798L282.508 89.0378L284.547 87.8142L286.587 89.0378L284.547 90.1798Z" fill="#42E8E0"/>
<path d="M288.626 92.5452L286.587 91.4032L288.626 90.1796L290.665 91.4032L288.626 92.5452Z" fill="#42E8E0"/>
<path opacity="0.4" d="M292.786 94.9924L290.666 93.7688L292.786 92.5452L294.826 93.7688L292.786 94.9924Z" fill="#42E8E0"/>
<path opacity="0.8" d="M296.865 97.3579L294.826 96.1343L296.865 94.9923L298.905 96.1343L296.865 97.3579Z" fill="#FF2C9C"/>
<path d="M301.025 99.7238L298.904 98.5002L301.025 97.3582L303.065 98.5002L301.025 99.7238Z" fill="#42E8E0"/>
<path d="M370.771 231.057C369.629 231.057 368.569 230.731 367.59 230.241L330.8 208.951C330.229 208.624 329.903 208.053 329.903 207.319C329.903 206.585 330.229 206.096 330.8 205.688L397.446 167.185C397.527 167.104 397.69 167.104 397.772 167.185L437.58 190.189C438.151 190.515 438.477 191.086 438.477 191.82C438.477 192.473 438.151 193.044 437.58 193.452L373.953 230.16C373.055 230.731 371.913 231.057 370.771 231.057ZM397.609 168.001L331.208 206.34C330.882 206.504 330.637 206.911 330.637 207.319C330.637 207.727 330.882 208.053 331.208 208.298L367.998 229.589C369.711 230.568 371.913 230.568 373.626 229.589L437.254 192.881C437.58 192.718 437.825 192.31 437.825 191.902C437.825 191.494 437.58 191.168 437.254 190.923L397.609 168.001Z" fill="#42E8E0"/>
<path d="M397.69 152.42L388.799 99.8868L389.533 99.5605L388.472 98.9079C388.228 98.7447 387.983 98.7447 387.657 98.9895L316.851 139.858C316.28 140.184 315.79 141.081 315.953 141.652L324.845 194.675C324.927 194.92 325.008 195.165 325.253 195.246L326.313 195.817L326.476 194.838H326.395L396.793 154.215C397.364 153.888 397.772 152.991 397.69 152.42Z" fill="url(#paint15_linear_1_415)"/>
<path d="M317.177 141.326L316.035 140.837C315.872 141.163 315.872 141.489 315.872 141.734L324.763 194.757C324.845 195.002 324.926 195.246 325.171 195.328L326.232 195.899L326.395 194.92H326.313L329.902 192.881L317.177 141.326Z" fill="url(#paint16_linear_1_415)"/>
<path d="M397.853 154.867L327.047 195.736C326.476 196.062 326.068 195.899 325.905 195.328L317.014 142.305C316.932 141.734 317.34 140.837 317.911 140.51L388.717 99.642C389.288 99.3157 389.696 99.4789 389.859 100.05L398.751 153.073C398.914 153.644 398.424 154.459 397.853 154.867Z" fill="#24126A"/>
<g opacity="0.51">
<path d="M387.82 102.986L319.543 142.386L328.026 192.309L396.222 152.909L387.82 102.986Z" fill="#453C9E"/>
</g>
<path d="M442.392 179.91L438.558 181.95L399.811 159.598C399.158 159.191 398.016 159.272 397.282 159.68L330.473 198.264C329.821 197.938 326.884 196.47 326.884 196.47L328.271 200.141C328.352 200.304 328.434 200.467 328.679 200.548L369.465 224.123C370.118 224.531 371.26 224.449 371.994 224.042L440.353 184.56C440.679 184.397 440.842 184.152 440.924 183.989L442.392 179.91Z" fill="url(#paint17_linear_1_415)"/>
<path d="M441.821 180.563L371.75 221.024C371.016 221.432 369.792 221.513 369.139 221.105L327.292 196.959C326.64 196.552 326.721 195.899 327.455 195.491L397.527 155.031C398.261 154.623 399.485 154.541 400.137 154.949L441.985 179.095C442.637 179.421 442.556 180.074 441.821 180.563Z" fill="url(#paint18_linear_1_415)"/>
<path d="M441.821 180.155L371.75 220.616C371.015 221.024 369.792 221.105 369.139 220.697L327.292 196.551C327.047 196.388 326.966 196.307 326.884 196.062C326.803 196.388 326.884 196.715 327.292 196.878L369.139 221.024C369.792 221.431 370.934 221.35 371.75 220.942L441.821 180.481C442.311 180.155 442.555 179.747 442.392 179.421C442.311 179.747 442.148 179.992 441.821 180.155Z" fill="white"/>
<path d="M350.541 212.295V211.561C350.541 211.48 350.622 211.48 350.622 211.48L353.314 213.03C353.396 213.03 353.396 213.111 353.396 213.193V213.927C353.396 214.008 353.314 214.008 353.314 214.008L350.622 212.459C350.622 212.459 350.541 212.377 350.541 212.295Z" fill="#2842A2"/>
<path d="M354.619 214.579V213.845C354.619 213.763 354.701 213.763 354.701 213.763L357.393 215.313C357.474 215.313 357.474 215.395 357.474 215.476V216.211C357.474 216.292 357.393 216.292 357.393 216.292L354.701 214.742C354.619 214.742 354.619 214.661 354.619 214.579Z" fill="#2842A2"/>
<path d="M338.141 194.757L396.385 161.149C396.793 160.904 397.282 160.904 397.608 161.149L418.328 173.14C418.654 173.303 418.654 173.711 418.328 173.874L360.085 207.483C359.677 207.727 359.187 207.727 358.861 207.483L338.06 195.491C337.897 195.328 337.897 194.92 338.141 194.757Z" fill="#ADB1F2"/>
<path d="M338.141 195.491L338.386 195.573L396.466 162.046C396.874 161.801 397.364 161.801 397.69 162.046L418.246 173.956L418.491 173.874C418.817 173.711 418.817 173.303 418.491 173.14L397.771 161.149C397.364 160.904 396.874 160.904 396.548 161.149L338.304 194.757C337.896 194.92 337.896 195.328 338.141 195.491Z" fill="#9198DB"/>
<path d="M399.24 164.167L348.664 193.37L346.38 192.065L397.037 162.861L399.24 164.167Z" fill="#24126A"/>
<path d="M404.787 167.348L357.311 194.757L355.027 193.452L402.503 166.043L404.787 167.348Z" fill="#24126A"/>
<path d="M408.376 169.388L352.498 201.691L350.214 200.386L406.092 168.083L408.376 169.388Z" fill="#24126A"/>
<path d="M411.965 171.427L356.087 203.73L353.803 202.425L409.681 170.203L411.965 171.427Z" fill="#24126A"/>
<path d="M415.554 173.548L359.676 205.769L357.392 204.464L413.27 172.243L415.554 173.548Z" fill="#24126A"/>
<path d="M345.564 195.083L343.362 196.388L341.078 195.083L343.362 193.778L345.564 195.083Z" fill="#24126A"/>
<path d="M353.559 196.878L348.827 199.57L346.625 198.265L351.274 195.573L353.559 196.878Z" fill="#24126A"/>
<path d="M398.669 202.833L414.413 193.778C415.065 193.452 415.065 192.881 414.413 192.473L403.645 186.273C402.992 185.947 402.013 185.947 401.442 186.273L385.699 195.328C385.046 195.654 385.046 196.225 385.699 196.633L396.466 202.833C397.037 203.24 398.016 203.24 398.669 202.833Z" fill="url(#paint19_linear_1_415)"/>
<path d="M385.699 195.899L401.442 186.844C402.095 186.518 403.074 186.518 403.645 186.844L414.413 193.044C414.576 193.125 414.739 193.289 414.82 193.452C414.984 193.125 414.82 192.799 414.413 192.554L403.645 186.355C402.992 186.029 402.013 186.029 401.442 186.355L385.699 195.41C385.291 195.654 385.128 195.98 385.291 196.307C385.372 196.144 385.536 195.98 385.699 195.899Z" fill="#9198DB"/>
<g opacity="0.11">
<path d="M397.609 154.949L327.537 195.409C326.803 195.817 325.579 195.899 324.927 195.491L283.079 171.345C282.427 170.937 282.508 170.285 283.243 169.877L353.314 129.416C354.048 129.009 355.272 128.927 355.925 129.335L397.772 153.481C398.506 153.807 398.425 154.46 397.609 154.949Z" fill="url(#paint20_linear_1_415)"/>
<path d="M327.292 162.209L343.036 153.154C343.689 152.828 343.689 152.257 343.036 151.849L332.268 145.65C331.616 145.323 330.637 145.323 330.066 145.65L314.322 154.704C313.67 155.031 313.67 155.602 314.322 156.009L325.09 162.209C325.742 162.535 326.721 162.535 327.292 162.209Z" fill="url(#paint21_linear_1_415)"/>
<path d="M314.322 155.194L330.066 146.139C330.718 145.813 331.697 145.813 332.268 146.139L343.036 152.339C343.199 152.42 343.362 152.583 343.444 152.746C343.607 152.42 343.444 152.094 343.036 151.849L332.268 145.65C331.616 145.323 330.637 145.323 330.066 145.65L314.322 154.704C313.914 154.949 313.751 155.275 313.914 155.602C314.077 155.438 314.159 155.357 314.322 155.194Z" fill="#9198DB"/>
<path d="M307.47 176.321L365.714 142.713C366.121 142.468 366.611 142.468 366.937 142.713L387.657 154.704C387.983 154.867 387.983 155.275 387.657 155.438L329.495 189.128C329.087 189.373 328.598 189.373 328.271 189.128L307.47 177.137C307.144 176.974 307.144 176.566 307.47 176.321Z" fill="#ADB1F2"/>
<path d="M307.47 177.137L307.715 177.219L365.795 143.692C366.203 143.447 366.693 143.447 367.019 143.692L387.575 155.602L387.82 155.52C388.146 155.357 388.146 154.949 387.82 154.786L367.1 142.795C366.692 142.55 366.203 142.55 365.877 142.795L307.633 176.403C307.144 176.566 307.144 176.974 307.47 177.137Z" fill="#9198DB"/>
<path d="M382.273 153.888L331.534 183.173L333.492 184.397L384.313 155.112L382.273 153.888Z" fill="#24126A"/>
<path d="M376.89 150.789L328.68 178.687L330.719 179.829L378.929 152.012L376.89 150.789Z" fill="#24126A"/>
<path d="M325.09 180.726L320.604 183.336L322.561 184.478L327.129 181.95L325.09 180.726Z" fill="#24126A"/>
<path d="M329.087 184.642L325.906 186.436L327.945 187.578L331.045 185.784L329.087 184.642Z" fill="#24126A"/>
<path d="M373.545 148.912L317.259 181.379L319.217 182.602L375.584 150.054L373.545 148.912Z" fill="#24126A"/>
<path d="M370.2 146.954L313.915 179.502L315.872 180.644L372.24 148.096L370.2 146.954Z" fill="#24126A"/>
<path d="M366.856 144.997L310.489 177.545L312.528 178.687L368.895 146.22L366.856 144.997Z" fill="#24126A"/>
</g>
<path d="M345.239 173.303L350.786 170.122L350.949 171.019L345.402 174.282L345.239 173.303Z" fill="#42E8E0"/>
<path d="M351.683 169.551L354.701 167.837L354.864 168.816L351.846 170.529L351.683 169.551Z" fill="#42E8E0"/>
<path d="M359.351 165.146L361.553 163.922L361.716 164.82L359.514 166.125L359.351 165.146Z" fill="#42E8E0"/>
<path d="M357.801 166.043L358.535 165.635L358.698 166.614L357.964 167.022L357.801 166.043Z" fill="#42E8E0"/>
<path d="M355.598 167.348L356.904 166.532L357.067 167.511L355.762 168.245L355.598 167.348Z" fill="#42E8E0"/>
<path d="M349.643 165.961L351.846 164.656L352.009 165.635L349.806 166.94L349.643 165.961Z" fill="#42E8E0"/>
<path d="M344.504 168.898L348.828 166.451L348.991 167.43L344.668 169.877L344.504 168.898Z" fill="#42E8E0"/>
<path d="M350.623 153.399L354.946 150.87L355.028 151.849L350.786 154.296L350.623 153.399Z" fill="#42E8E0"/>
<path d="M348.42 154.623L349.807 153.807L349.97 154.786L348.583 155.602L348.42 154.623Z" fill="#42E8E0"/>
<path d="M351.356 157.722L355.598 155.275L355.761 156.254L351.52 158.701L351.356 157.722Z" fill="#42E8E0"/>
<path d="M349.154 159.028L350.541 158.212L350.704 159.191L349.317 160.007L349.154 159.028Z" fill="#42E8E0"/>
<path d="M347.523 134.392L339.447 139.042L339.284 138.145L347.359 133.495L347.523 134.392Z" fill="#42E8E0"/>
<path d="M350.296 132.761L348.338 133.903L348.175 133.005L350.133 131.863L350.296 132.761Z" fill="#42E8E0"/>
<path d="M364.408 131.864L356.414 136.513L356.251 135.535L364.245 130.885L364.408 131.864Z" fill="#42E8E0"/>
<path d="M367.263 130.232L365.305 131.374L365.142 130.395L367.1 129.253L367.263 130.232Z" fill="#42E8E0"/>
<path d="M341.975 140.021L339.855 141.245L339.691 140.266L341.812 139.042L341.975 140.021Z" fill="#42E8E0"/>
<path d="M355.272 137.166L353.069 138.39L352.906 137.492L355.109 136.187L355.272 137.166Z" fill="#42E8E0"/>
<path d="M347.115 137.084L342.873 139.531L342.71 138.553L346.952 136.105L347.115 137.084Z" fill="#42E8E0"/>
<path d="M349.317 135.779L347.93 136.595L347.767 135.616L349.154 134.8L349.317 135.779Z" fill="#42E8E0"/>
<path d="M354.456 132.842L350.214 135.289L350.051 134.311L354.293 131.863L354.456 132.842Z" fill="#42E8E0"/>
<path d="M356.659 131.538L355.272 132.353L355.109 131.374L356.496 130.559L356.659 131.538Z" fill="#42E8E0"/>
<path d="M354.864 134.963L352.662 136.187L352.499 135.29L354.701 133.985L354.864 134.963Z" fill="#42E8E0"/>
<path d="M360.003 132.027L355.762 134.474L355.598 133.495L359.84 131.048L360.003 132.027Z" fill="#42E8E0"/>
<path d="M362.206 130.722L360.819 131.537L360.656 130.558L362.043 129.824L362.206 130.722Z" fill="#42E8E0"/>
<path d="M344.668 140.837L340.181 143.447L340.018 142.468L344.504 139.939L344.668 140.837Z" fill="#42E8E0"/>
<path d="M348.746 138.553L345.483 140.429L345.32 139.45L348.583 137.574L348.746 138.553Z" fill="#42E8E0"/>
<path d="M351.764 136.758L349.562 138.063L349.399 137.085L351.601 135.861L351.764 136.758Z" fill="#42E8E0"/>
<path d="M372.892 126.969L368.405 129.58L368.242 128.601L372.729 126.072L372.892 126.969Z" fill="#42E8E0"/>
<path d="M376.889 124.685L373.708 126.48L373.544 125.582L376.726 123.706L376.889 124.685Z" fill="#42E8E0"/>
<path d="M379.907 122.891L377.786 124.196L377.623 123.217L379.744 121.912L379.907 122.891Z" fill="#42E8E0"/>
<path d="M371.097 155.928L375.584 153.399L375.747 154.378L371.261 156.907L371.097 155.928Z" fill="#42E8E0"/>
<path d="M367.019 158.294L370.281 156.418L370.445 157.396L367.182 159.273L367.019 158.294Z" fill="#42E8E0"/>
<path d="M364 160.088L366.203 158.783L366.366 159.762L364.163 160.985L364 160.088Z" fill="#42E8E0"/>
<path d="M369.629 159.191L374.115 156.662L374.279 157.641L369.792 160.17L369.629 159.191Z" fill="#42E8E0"/>
<path d="M365.55 161.557L368.813 159.68L368.976 160.659L365.713 162.535L365.55 161.557Z" fill="#42E8E0"/>
<path d="M362.532 163.351L364.734 162.046L364.898 163.025L362.695 164.248L362.532 163.351Z" fill="#42E8E0"/>
<path d="M351.683 155.194L353.151 154.297L353.314 155.275L351.846 156.091L351.683 155.194Z" fill="#42E8E0"/>
<path d="M348.828 156.825L350.785 155.683L350.949 156.58L348.991 157.804L348.828 156.825Z" fill="#42E8E0"/>
<path d="M345.075 143.039L340.589 145.649L340.426 144.671L344.912 142.06L345.075 143.039Z" fill="#42E8E0"/>
<path d="M349.073 140.673L345.891 142.55L345.728 141.571L348.991 139.776L349.073 140.673Z" fill="#42E8E0"/>
<path d="M352.172 138.96L349.97 140.184L349.807 139.287L352.009 137.982L352.172 138.96Z" fill="#42E8E0"/>
<path d="M342.465 146.955L340.997 147.852L340.834 146.873L342.302 145.976L342.465 146.955Z" fill="#42E8E0"/>
<path d="M345.32 145.323L343.281 146.465L343.117 145.486L345.157 144.344L345.32 145.323Z" fill="#42E8E0"/>
<path d="M349.317 142.958L346.136 144.834L345.973 143.855L349.154 141.979L349.317 142.958Z" fill="#42E8E0"/>
<path d="M353.722 161.23L355.191 160.333L355.354 161.312L353.885 162.209L353.722 161.23Z" fill="#42E8E0"/>
<path d="M350.867 162.862L352.825 161.72L352.988 162.699L351.03 163.841L350.867 162.862Z" fill="#42E8E0"/>
<path d="M346.788 165.227L350.051 163.351L350.214 164.33L346.951 166.125L346.788 165.227Z" fill="#42E8E0"/>
<path d="M356.006 157.641L359.188 155.765L359.351 156.744L356.169 158.62L356.006 157.641Z" fill="#42E8E0"/>
<path d="M350.704 160.496L355.027 158.049L355.19 158.946L350.867 161.475L350.704 160.496Z" fill="#42E8E0"/>
<path d="M348.583 161.801L349.888 160.985L350.051 161.964L348.746 162.698L348.583 161.801Z" fill="#42E8E0"/>
<path d="M346.462 163.025L347.767 162.209L347.93 163.188L346.625 163.922L346.462 163.025Z" fill="#42E8E0"/>
<path d="M346.707 150.626L351.03 148.178L351.193 149.076L346.87 151.604L346.707 150.626Z" fill="#42E8E0"/>
<path d="M344.504 151.849L345.891 151.115L346.054 152.094L344.667 152.828L344.504 151.849Z" fill="#42E8E0"/>
<path d="M347.033 148.015L348.501 147.2L348.664 148.097L347.196 148.994L347.033 148.015Z" fill="#42E8E0"/>
<path d="M352.335 149.81L353.804 148.913L353.967 149.892L352.498 150.789L352.335 149.81Z" fill="#42E8E0"/>
<path d="M354.456 148.586L358.127 146.465L358.29 147.444L354.619 149.483L354.456 148.586Z" fill="#42E8E0"/>
<path d="M358.698 146.139L360.9 144.834L361.064 145.813L358.861 147.036L358.698 146.139Z" fill="#42E8E0"/>
<path d="M344.178 149.647L346.217 148.505L346.38 149.484L344.341 150.626L344.178 149.647Z" fill="#42E8E0"/>
<path d="M344.014 147.444L345.483 146.547L345.646 147.526L344.178 148.423L344.014 147.444Z" fill="#42E8E0"/>
<path d="M341.159 149.076L343.199 147.934L343.362 148.912L341.323 150.054L341.159 149.076Z" fill="#42E8E0"/>
<path d="M350.133 151.034L351.52 150.299L351.683 151.197L350.296 152.013L350.133 151.034Z" fill="#42E8E0"/>
<path d="M348.012 152.257L349.398 151.523L349.562 152.42L348.175 153.236L348.012 152.257Z" fill="#42E8E0"/>
<path d="M358.453 163.269L363.021 160.659L363.185 161.556L358.617 164.248L358.453 163.269Z" fill="#42E8E0"/>
<path d="M353.233 166.288L357.556 163.759L357.719 164.738L353.396 167.267L353.233 166.288Z" fill="#42E8E0"/>
<path d="M351.03 167.511L352.417 166.777L352.58 167.756L351.193 168.49L351.03 167.511Z" fill="#42E8E0"/>
<path d="M348.991 168.735L350.296 168.001L350.459 168.898L349.154 169.714L348.991 168.735Z" fill="#42E8E0"/>
<path d="M347.849 169.388L344.912 171.101L345.075 172.08L348.012 170.366L347.849 169.388Z" fill="#42E8E0"/>
<g opacity="0.8">
<path d="M231.28 231.139C230.138 231.139 228.996 230.812 228.017 230.241L164.39 193.533C163.737 193.207 163.411 192.554 163.411 191.82C163.411 191.086 163.819 190.433 164.39 190.107L204.443 166.94L204.687 167.103L271.333 205.606C271.986 205.932 272.312 206.585 272.312 207.319C272.312 208.053 271.904 208.706 271.333 209.032L234.543 230.323C233.564 230.812 232.422 231.139 231.28 231.139ZM228.507 229.426C230.22 230.404 232.341 230.404 234.054 229.426L270.844 208.135C271.17 207.972 271.333 207.645 271.333 207.238C271.333 206.911 271.17 206.585 270.844 206.422L204.443 168.082H204.361L164.798 190.923C164.472 191.086 164.308 191.412 164.308 191.82C164.308 192.146 164.472 192.473 164.798 192.636L228.507 229.426Z" fill="url(#paint22_linear_1_415)"/>
</g>
<path d="M204.442 152.42L213.334 99.8868L212.6 99.5605L213.66 98.908C213.905 98.7448 214.15 98.7448 214.476 98.9895L285.282 139.858C285.853 140.184 286.342 141.081 286.179 141.653L277.287 194.675C277.206 194.92 277.124 195.165 276.88 195.246L275.819 195.817L275.656 194.838H275.738L205.34 154.215C204.769 153.889 204.361 152.991 204.442 152.42Z" fill="url(#paint23_linear_1_415)"/>
<path d="M284.874 141.326L286.016 140.837C286.179 141.163 286.179 141.489 286.179 141.734L277.287 194.757C277.206 195.002 277.124 195.246 276.879 195.328L275.819 195.899L275.656 194.92H275.737L272.148 192.881L284.874 141.326Z" fill="url(#paint24_linear_1_415)"/>
<path d="M204.279 154.867L275.085 195.736C275.656 196.062 276.064 195.899 276.227 195.328L285.118 142.305C285.2 141.734 284.792 140.837 284.221 140.51L213.415 99.6421C212.844 99.3158 212.436 99.4789 212.273 100.05L203.382 153.073C203.219 153.644 203.626 154.46 204.279 154.867Z" fill="#24126A"/>
<g opacity="0.51">
<path d="M214.312 102.986L282.59 142.386L274.106 192.31L205.91 152.909L214.312 102.986Z" fill="#453C9E"/>
</g>
<path d="M159.74 179.91L163.574 181.95L202.322 159.599C202.974 159.191 204.116 159.272 204.85 159.68L271.659 198.264C272.312 197.938 275.248 196.47 275.248 196.47L273.862 200.141C273.78 200.304 273.699 200.467 273.454 200.549L232.667 224.205C232.014 224.613 230.872 224.531 230.138 224.123L161.698 184.56C161.372 184.397 161.209 184.152 161.127 183.989L159.74 179.91Z" fill="url(#paint25_linear_1_415)"/>
<path d="M160.311 180.563L230.383 221.024C231.117 221.432 232.341 221.513 232.993 221.105L274.841 196.96C275.493 196.552 275.412 195.899 274.677 195.491L204.606 155.031C203.872 154.623 202.648 154.541 201.995 154.949L160.148 179.095C159.495 179.421 159.577 180.074 160.311 180.563Z" fill="url(#paint26_linear_1_415)"/>
<path d="M160.311 180.155L230.383 220.616C231.117 221.024 232.341 221.105 232.993 220.697L274.841 196.552C275.085 196.388 275.167 196.307 275.248 196.062C275.33 196.388 275.248 196.715 274.841 196.878L232.993 221.024C232.341 221.432 231.199 221.35 230.383 220.942L160.311 180.482C159.822 180.155 159.577 179.747 159.74 179.421C159.822 179.747 159.985 179.992 160.311 180.155Z" fill="white"/>
<path d="M251.592 212.295V211.561C251.592 211.48 251.511 211.48 251.511 211.48L248.819 213.03C248.737 213.03 248.737 213.111 248.737 213.193V213.927C248.737 214.009 248.819 214.009 248.819 214.009L251.511 212.459C251.511 212.459 251.592 212.377 251.592 212.295Z" fill="#2842A2"/>
<path d="M247.513 214.579V213.845C247.513 213.764 247.432 213.764 247.432 213.764L244.74 215.313C244.658 215.313 244.658 215.395 244.658 215.477V216.211C244.658 216.292 244.74 216.292 244.74 216.292L247.432 214.742C247.432 214.742 247.513 214.661 247.513 214.579Z" fill="#2842A2"/>
<path d="M263.91 194.757L205.666 161.149C205.258 160.904 204.769 160.904 204.443 161.149L183.723 173.059C183.397 173.222 183.397 173.63 183.723 173.793L241.967 207.401C242.374 207.646 242.864 207.646 243.19 207.401L263.991 195.41C264.236 195.328 264.236 194.92 263.91 194.757Z" fill="#ADB1F2"/>
<path d="M263.91 195.491L263.665 195.573L205.585 162.046C205.177 161.801 204.687 161.801 204.361 162.046L183.804 173.956L183.56 173.874C183.233 173.711 183.233 173.303 183.56 173.14L204.279 161.149C204.687 160.904 205.177 160.904 205.503 161.149L263.746 194.757C264.236 194.92 264.236 195.328 263.91 195.491Z" fill="#9198DB"/>
<path d="M207.706 166.94L257.058 195.409L259.178 194.023L209.99 165.635L207.706 166.94Z" fill="#24126A"/>
<path d="M204.524 171.427L249.308 197.286L250.858 195.573L206.808 170.203L204.524 171.427Z" fill="#24126A"/>
<path d="M193.757 169.388L249.634 201.691L251.919 200.386L196.041 168.082L193.757 169.388Z" fill="#24126A"/>
<path d="M190.167 171.427L246.045 203.73L248.329 202.425L192.451 170.203L190.167 171.427Z" fill="#24126A"/>
<path d="M186.578 173.548L242.456 205.769L244.74 204.464L188.862 172.242L186.578 173.548Z" fill="#24126A"/>
<path d="M256.568 195.083L258.771 196.388L261.055 195.083L258.771 193.778L256.568 195.083Z" fill="#24126A"/>
<path d="M248.574 196.878L253.224 199.57L255.508 198.265L250.858 195.573L248.574 196.878Z" fill="#24126A"/>
<path d="M203.464 202.833L187.72 193.778C187.067 193.452 187.067 192.881 187.72 192.473L198.488 186.273C199.14 185.947 200.119 185.947 200.69 186.273L216.434 195.328C217.086 195.654 217.086 196.225 216.434 196.633L205.666 202.833C205.095 203.241 204.035 203.241 203.464 202.833Z" fill="url(#paint27_linear_1_415)"/>
<path d="M216.434 195.899L200.69 186.844C200.038 186.518 199.059 186.518 198.488 186.844L187.72 193.044C187.557 193.126 187.394 193.289 187.312 193.452C187.149 193.126 187.312 192.799 187.72 192.555L198.488 186.355C199.14 186.029 200.119 186.029 200.69 186.355L216.434 195.41C216.842 195.654 217.005 195.981 216.842 196.307C216.76 196.144 216.597 195.981 216.434 195.899Z" fill="#9198DB"/>
<g opacity="0.11">
<path d="M204.524 154.949L274.596 195.41C275.33 195.817 276.554 195.899 277.206 195.491L319.053 171.345C319.706 170.937 319.624 170.285 318.89 169.877L248.819 129.417C248.084 129.009 246.861 128.927 246.208 129.335L204.361 153.481C203.627 153.807 203.708 154.46 204.524 154.949Z" fill="url(#paint28_linear_1_415)"/>
<path d="M274.841 162.209L259.097 153.154C258.444 152.828 258.444 152.257 259.097 151.849L269.865 145.65C270.517 145.323 271.496 145.323 272.067 145.65L287.811 154.704C288.463 155.031 288.463 155.602 287.811 156.009L277.043 162.209C276.39 162.535 275.412 162.535 274.841 162.209Z" fill="url(#paint29_linear_1_415)"/>
<path d="M287.729 155.194L271.985 146.139C271.333 145.813 270.354 145.813 269.783 146.139L259.015 152.339C258.852 152.42 258.689 152.583 258.607 152.747C258.444 152.42 258.607 152.094 259.015 151.849L269.783 145.65C270.435 145.323 271.414 145.323 271.985 145.65L287.729 154.704C288.137 154.949 288.3 155.275 288.137 155.602C288.055 155.438 287.974 155.357 287.729 155.194Z" fill="#9198DB"/>
<path d="M294.663 176.321L236.419 142.713C236.012 142.468 235.522 142.468 235.196 142.713L214.476 154.704C214.15 154.867 214.15 155.275 214.476 155.438L272.638 189.128C273.046 189.373 273.535 189.373 273.862 189.128L294.663 177.137C294.989 176.974 294.989 176.566 294.663 176.321Z" fill="#ADB1F2"/>
<path d="M294.663 177.137L294.418 177.219L236.338 143.692C235.93 143.447 235.44 143.447 235.114 143.692L214.558 155.602L214.313 155.52C213.987 155.357 213.987 154.949 214.313 154.786L235.033 142.795C235.44 142.55 235.93 142.55 236.256 142.795L294.5 176.403C294.989 176.566 294.989 176.974 294.663 177.137Z" fill="#9198DB"/>
<path d="M219.86 153.888L270.599 183.173L268.56 184.397L217.821 155.112L219.86 153.888Z" fill="#24126A"/>
<path d="M225.163 150.789L273.454 178.687L271.415 179.829L223.205 152.012L225.163 150.789Z" fill="#24126A"/>
<path d="M277.043 180.726L281.53 183.337L279.491 184.479L275.004 181.95L277.043 180.726Z" fill="#24126A"/>
<path d="M273.046 184.642L276.228 186.436L274.188 187.578L271.007 185.784L273.046 184.642Z" fill="#24126A"/>
<path d="M228.507 148.912L284.874 181.379L282.916 182.602L226.549 150.054L228.507 148.912Z" fill="#24126A"/>
<path d="M231.933 146.954L288.219 179.502L286.261 180.644L229.894 148.097L231.933 146.954Z" fill="#24126A"/>
<path d="M235.277 144.997L291.563 177.545L289.605 178.687L233.238 146.22L235.277 144.997Z" fill="#24126A"/>
</g>
<path d="M229.567 121.504L235.114 124.685L235.277 123.706L229.73 120.525L229.567 121.504Z" fill="#42E8E0"/>
<path d="M236.011 125.175L239.03 126.969L239.193 125.99L236.175 124.196L236.011 125.175Z" fill="#42E8E0"/>
<path d="M243.68 129.661L245.882 130.885L246.045 129.906L243.843 128.682L243.68 129.661Z" fill="#42E8E0"/>
<path d="M242.13 128.682L242.864 129.172L243.027 128.193L242.293 127.785L242.13 128.682Z" fill="#42E8E0"/>
<path d="M239.927 127.459L241.232 128.193L241.396 127.296L240.09 126.48L239.927 127.459Z" fill="#42E8E0"/>
<path d="M233.972 128.845L236.093 130.069L236.256 129.09L234.135 127.866L233.972 128.845Z" fill="#42E8E0"/>
<path d="M228.833 125.909L233.075 128.356L233.238 127.377L228.996 124.93L228.833 125.909Z" fill="#42E8E0"/>
<path d="M234.951 141.408L239.193 143.855L239.356 142.958L235.115 140.429L234.951 141.408Z" fill="#42E8E0"/>
<path d="M232.749 140.184L234.136 140.918L234.299 139.939L232.912 139.205L232.749 140.184Z" fill="#42E8E0"/>
<path d="M235.685 137.003L239.927 139.532L240.09 138.553L235.848 136.106L235.685 137.003Z" fill="#42E8E0"/>
<path d="M233.483 135.779L234.788 136.513L234.951 135.616L233.646 134.8L233.483 135.779Z" fill="#42E8E0"/>
<path d="M231.77 160.333L223.775 155.683L223.612 156.662L231.607 161.312L231.77 160.333Z" fill="#42E8E0"/>
<path d="M234.625 161.964L232.667 160.822L232.504 161.801L234.462 162.943L234.625 161.964Z" fill="#42E8E0"/>
<path d="M248.737 162.943L240.743 158.294L240.58 159.273L248.574 163.841L248.737 162.943Z" fill="#42E8E0"/>
<path d="M251.592 164.575L249.634 163.433L249.471 164.33L251.429 165.554L251.592 164.575Z" fill="#42E8E0"/>
<path d="M226.304 154.786L224.102 153.481L223.939 154.459L226.141 155.765L226.304 154.786Z" fill="#42E8E0"/>
<path d="M239.601 157.641L237.398 156.336L237.235 157.315L239.438 158.538L239.601 157.641Z" fill="#42E8E0"/>
<path d="M231.444 157.723L227.202 155.276L227.039 156.254L231.28 158.702L231.444 157.723Z" fill="#42E8E0"/>
<path d="M233.646 159.028L232.259 158.212L232.096 159.191L233.483 159.925L233.646 159.028Z" fill="#42E8E0"/>
<path d="M238.785 161.964L234.543 159.517L234.38 160.496L238.622 162.943L238.785 161.964Z" fill="#42E8E0"/>
<path d="M240.988 163.269L239.601 162.454L239.438 163.433L240.825 164.167L240.988 163.269Z" fill="#42E8E0"/>
<path d="M239.193 159.843L236.991 158.538L236.827 159.517L239.03 160.741L239.193 159.843Z" fill="#42E8E0"/>
<path d="M244.332 162.78L240.009 160.333L239.846 161.23L244.169 163.677L244.332 162.78Z" fill="#42E8E0"/>
<path d="M246.535 164.004L245.148 163.269L244.985 164.167L246.371 164.982L246.535 164.004Z" fill="#42E8E0"/>
<path d="M228.996 153.889L224.51 151.36L224.347 152.257L228.833 154.867L228.996 153.889Z" fill="#42E8E0"/>
<path d="M232.993 156.254L229.812 154.378L229.649 155.357L232.83 157.233L232.993 156.254Z" fill="#42E8E0"/>
<path d="M236.093 157.967L233.891 156.744L233.728 157.722L235.93 158.946L236.093 157.967Z" fill="#42E8E0"/>
<path d="M257.139 167.756L252.734 165.227L252.571 166.125L256.976 168.735L257.139 167.756Z" fill="#42E8E0"/>
<path d="M261.218 170.122L258.036 168.245L257.873 169.224L261.055 171.101L261.218 170.122Z" fill="#42E8E0"/>
<path d="M264.236 171.835L262.115 170.611L261.952 171.59L264.073 172.814L264.236 171.835Z" fill="#42E8E0"/>
<path d="M255.426 138.798L259.913 141.408L260.076 140.429L255.589 137.9L255.426 138.798Z" fill="#42E8E0"/>
<path d="M251.347 136.432L254.61 138.308L254.774 137.411L251.511 135.535L251.347 136.432Z" fill="#42E8E0"/>
<path d="M248.329 134.719L250.532 135.942L250.695 135.045L248.492 133.74L248.329 134.719Z" fill="#42E8E0"/>
<path d="M253.958 135.534L258.444 138.145L258.607 137.166L254.121 134.556L253.958 135.534Z" fill="#42E8E0"/>
<path d="M249.879 133.169L253.142 135.045L253.305 134.066L250.042 132.271L249.879 133.169Z" fill="#42E8E0"/>
<path d="M246.861 131.456L249.063 132.679L249.226 131.782L247.024 130.477L246.861 131.456Z" fill="#42E8E0"/>
<path d="M235.93 139.613L237.48 140.51L237.643 139.532L236.093 138.634L235.93 139.613Z" fill="#42E8E0"/>
<path d="M233.156 137.982L235.114 139.124L235.277 138.145L233.32 137.003L233.156 137.982Z" fill="#42E8E0"/>
<path d="M229.404 151.686L224.918 149.157L224.754 150.136L229.241 152.665L229.404 151.686Z" fill="#42E8E0"/>
<path d="M233.401 154.052L230.22 152.176L230.057 153.154L233.238 155.031L233.401 154.052Z" fill="#42E8E0"/>
<path d="M236.42 155.846L234.299 154.541L234.135 155.52L236.256 156.743L236.42 155.846Z" fill="#42E8E0"/>
<path d="M226.794 147.852L225.244 146.954L225.081 147.933L226.63 148.749L226.794 147.852Z" fill="#42E8E0"/>
<path d="M229.649 149.484L227.609 148.342L227.446 149.239L229.486 150.381L229.649 149.484Z" fill="#42E8E0"/>
<path d="M233.646 151.768L230.464 149.973L230.301 150.871L233.483 152.747L233.646 151.768Z" fill="#42E8E0"/>
<path d="M237.969 133.577L239.519 134.393L239.683 133.495L238.133 132.598L237.969 133.577Z" fill="#42E8E0"/>
<path d="M235.196 131.945L237.154 133.087L237.317 132.108L235.359 130.966L235.196 131.945Z" fill="#42E8E0"/>
<path d="M231.117 129.58L234.299 131.456L234.462 130.477L231.28 128.601L231.117 129.58Z" fill="#42E8E0"/>
<path d="M240.335 137.084L243.516 138.961L243.679 137.982L240.498 136.187L240.335 137.084Z" fill="#42E8E0"/>
<path d="M235.033 134.229L239.356 136.758L239.519 135.779L235.196 133.332L235.033 134.229Z" fill="#42E8E0"/>
<path d="M232.83 133.006L234.217 133.74L234.38 132.843L232.993 132.027L232.83 133.006Z" fill="#42E8E0"/>
<path d="M230.791 131.782L232.096 132.598L232.259 131.619L230.954 130.803L230.791 131.782Z" fill="#42E8E0"/>
<path d="M231.036 144.181L235.277 146.629L235.441 145.65L231.199 143.203L231.036 144.181Z" fill="#42E8E0"/>
<path d="M228.833 142.876L230.22 143.692L230.383 142.713L228.996 141.897L228.833 142.876Z" fill="#42E8E0"/>
<path d="M231.362 146.71L232.83 147.608L232.993 146.629L231.525 145.813L231.362 146.71Z" fill="#42E8E0"/>
<path d="M236.664 144.997L238.132 145.813L238.295 144.916L236.827 144.018L236.664 144.997Z" fill="#42E8E0"/>
<path d="M238.785 146.221L242.374 148.26L242.537 147.363L238.948 145.242L238.785 146.221Z" fill="#42E8E0"/>
<path d="M243.027 148.668L245.229 149.891L245.392 148.913L243.19 147.689L243.027 148.668Z" fill="#42E8E0"/>
<path d="M228.507 145.079L230.464 146.221L230.628 145.323L228.67 144.1L228.507 145.079Z" fill="#42E8E0"/>
<path d="M228.344 147.363L229.812 148.178L229.975 147.281L228.507 146.384L228.344 147.363Z" fill="#42E8E0"/>
<path d="M225.488 145.731L227.446 146.873L227.609 145.894L225.651 144.752L225.488 145.731Z" fill="#42E8E0"/>
<path d="M234.461 143.692L235.848 144.508L236.011 143.529L234.625 142.794L234.461 143.692Z" fill="#42E8E0"/>
<path d="M232.341 142.468L233.727 143.284L233.89 142.305L232.504 141.571L232.341 142.468Z" fill="#42E8E0"/>
<path d="M242.782 131.456L247.35 134.148L247.514 133.169L242.945 130.559L242.782 131.456Z" fill="#42E8E0"/>
<path d="M237.562 128.519L241.885 130.966L242.048 130.069L237.725 127.54L237.562 128.519Z" fill="#42E8E0"/>
<path d="M235.359 127.214L236.746 128.03L236.909 127.051L235.522 126.317L235.359 127.214Z" fill="#42E8E0"/>
<path d="M233.32 125.991L234.625 126.806L234.788 125.827L233.401 125.093L233.32 125.991Z" fill="#42E8E0"/>
<path d="M232.096 125.338L229.241 123.706L229.404 122.727L232.259 124.359L232.096 125.338Z" fill="#42E8E0"/>
<path d="M202.893 164.167L205.095 165.39L207.379 164.167L205.095 162.862L202.893 164.167Z" fill="#24126A"/>
<path d="M197.346 167.348L201.995 170.04L204.279 168.735L199.63 166.043L197.346 167.348Z" fill="#24126A"/>
<path opacity="0.5" d="M348.175 79.4937V-56H253.958V79.4937L301.026 106.658L348.175 79.4937Z" fill="url(#paint30_linear_1_415)"/>
</g>
<defs>
<radialGradient id="paint0_radial_1_415" cx="0" cy="0" r="1" gradientUnits="userSpaceOnUse" gradientTransform="translate(277.022 134.583) rotate(180) scale(243.709 198.676)">
<stop stop-color="#42E8E0"/>
<stop offset="0.0311047" stop-color="#42E8E0"/>
<stop offset="0.1763" stop-color="#308BA7"/>
<stop offset="0.3263" stop-color="#265587"/>
<stop offset="0.4803" stop-color="#201A6C"/>
<stop offset="0.6397" stop-color="#160E5A"/>
<stop offset="0.8079" stop-color="#11074F"/>
<stop offset="1" stop-color="#0F054C"/>
</radialGradient>
<radialGradient id="paint1_radial_1_415" cx="0" cy="0" r="1" gradientUnits="userSpaceOnUse" gradientTransform="translate(470.533 9.62976) rotate(180) scale(358.736 360.311)">
<stop stop-color="#FF2C9C"/>
<stop offset="0.0300632" stop-color="#F62F9F"/>
<stop offset="0.2023" stop-color="#C63EB0"/>
<stop offset="0.3737" stop-color="#9E4BBE"/>
<stop offset="0.5413" stop-color="#7F54C9"/>
<stop offset="0.7039" stop-color="#695BD1"/>
<stop offset="0.8594" stop-color="#5C60D5"/>
<stop offset="1" stop-color="#5761D7"/>
</radialGradient>
<linearGradient id="paint2_linear_1_415" x1="159.716" y1="102.67" x2="273.254" y2="102.67" gradientUnits="userSpaceOnUse">
<stop stop-color="#5761D7"/>
<stop offset="0.1779" stop-color="#5C66D9"/>
<stop offset="0.3876" stop-color="#6A73DF"/>
<stop offset="0.6134" stop-color="#8289E8"/>
<stop offset="0.849" stop-color="#A3A7F5"/>
<stop offset="1" stop-color="#BCBEFF"/>
</linearGradient>
<linearGradient id="paint3_linear_1_415" x1="197.865" y1="98.8842" x2="311.464" y2="98.8842" gradientUnits="userSpaceOnUse">
<stop stop-color="#C0BFF6"/>
<stop offset="0.2938" stop-color="#C5C4F7"/>
<stop offset="0.6399" stop-color="#D3D2F9"/>
<stop offset="1" stop-color="#E9E9FD"/>
</linearGradient>
<linearGradient id="paint4_linear_1_415" x1="190.495" y1="90.1429" x2="219.573" y2="90.1429" gradientUnits="userSpaceOnUse">
<stop stop-color="#C0BFF6"/>
<stop offset="0.2938" stop-color="#C5C4F7"/>
<stop offset="0.6399" stop-color="#D3D2F9"/>
<stop offset="1" stop-color="#E9E9FD"/>
</linearGradient>
<linearGradient id="paint5_linear_1_415" x1="192.768" y1="84.9028" x2="273.16" y2="84.9028" gradientUnits="userSpaceOnUse">
<stop stop-color="#C0BFF6"/>
<stop offset="0.2938" stop-color="#C5C4F7"/>
<stop offset="0.6399" stop-color="#D3D2F9"/>
<stop offset="1" stop-color="#E9E9FD"/>
</linearGradient>
<linearGradient id="paint6_linear_1_415" x1="192.769" y1="105.52" x2="206.573" y2="105.52" gradientUnits="userSpaceOnUse">
<stop stop-color="#5761D7"/>
<stop offset="0.1779" stop-color="#5C66D9"/>
<stop offset="0.3876" stop-color="#6A73DF"/>
<stop offset="0.6134" stop-color="#8289E8"/>
<stop offset="0.849" stop-color="#A3A7F5"/>
<stop offset="1" stop-color="#BCBEFF"/>
</linearGradient>
<linearGradient id="paint7_linear_1_415" x1="442.403" y1="102.67" x2="328.865" y2="102.67" gradientUnits="userSpaceOnUse">
<stop stop-color="#5761D7"/>
<stop offset="0.1779" stop-color="#5C66D9"/>
<stop offset="0.3876" stop-color="#6A73DF"/>
<stop offset="0.6134" stop-color="#8289E8"/>
<stop offset="0.849" stop-color="#A3A7F5"/>
<stop offset="1" stop-color="#BCBEFF"/>
</linearGradient>
<linearGradient id="paint8_linear_1_415" x1="404.254" y1="98.8843" x2="290.655" y2="98.8843" gradientUnits="userSpaceOnUse">
<stop stop-color="#C0BFF6"/>
<stop offset="0.2938" stop-color="#C5C4F7"/>
<stop offset="0.6399" stop-color="#D3D2F9"/>
<stop offset="1" stop-color="#E9E9FD"/>
</linearGradient>
<linearGradient id="paint9_linear_1_415" x1="411.625" y1="90.1429" x2="382.547" y2="90.1429" gradientUnits="userSpaceOnUse">
<stop stop-color="#C0BFF6"/>
<stop offset="0.2938" stop-color="#C5C4F7"/>
<stop offset="0.6399" stop-color="#D3D2F9"/>
<stop offset="1" stop-color="#E9E9FD"/>
</linearGradient>
<linearGradient id="paint10_linear_1_415" x1="409.351" y1="84.9027" x2="328.96" y2="84.9027" gradientUnits="userSpaceOnUse">
<stop stop-color="#C0BFF6"/>
<stop offset="0.2938" stop-color="#C5C4F7"/>
<stop offset="0.6399" stop-color="#D3D2F9"/>
<stop offset="1" stop-color="#E9E9FD"/>
</linearGradient>
<linearGradient id="paint11_linear_1_415" x1="409.35" y1="105.52" x2="395.546" y2="105.52" gradientUnits="userSpaceOnUse">
<stop stop-color="#5761D7"/>
<stop offset="0.1779" stop-color="#5C66D9"/>
<stop offset="0.3876" stop-color="#6A73DF"/>
<stop offset="0.6134" stop-color="#8289E8"/>
<stop offset="0.849" stop-color="#A3A7F5"/>
<stop offset="1" stop-color="#BCBEFF"/>
</linearGradient>
<linearGradient id="paint12_linear_1_415" x1="333.458" y1="161.716" x2="333.458" y2="117.437" gradientUnits="userSpaceOnUse">
<stop stop-color="#C0BFF6"/>
<stop offset="0.2938" stop-color="#C5C4F7"/>
<stop offset="0.6399" stop-color="#D3D2F9"/>
<stop offset="1" stop-color="#E9E9FD"/>
</linearGradient>
<linearGradient id="paint13_linear_1_415" x1="333.458" y1="125.001" x2="333.458" y2="80.7213" gradientUnits="userSpaceOnUse">
<stop stop-color="#C0BFF6"/>
<stop offset="0.2938" stop-color="#C5C4F7"/>
<stop offset="0.6399" stop-color="#D3D2F9"/>
<stop offset="1" stop-color="#E9E9FD"/>
</linearGradient>
<radialGradient id="paint14_radial_1_415" cx="0" cy="0" r="1" gradientUnits="userSpaceOnUse" gradientTransform="translate(321.685 77.0729) scale(1.67993 1.67993)">
<stop stop-color="#FF2C9C"/>
<stop offset="0.0300632" stop-color="#F62F9F"/>
<stop offset="0.2023" stop-color="#C63EB0"/>
<stop offset="0.3737" stop-color="#9E4BBE"/>
<stop offset="0.5413" stop-color="#7F54C9"/>
<stop offset="0.7039" stop-color="#695BD1"/>
<stop offset="0.8594" stop-color="#5C60D5"/>
<stop offset="1" stop-color="#5761D7"/>
</radialGradient>
<linearGradient id="paint15_linear_1_415" x1="315.883" y1="147.308" x2="397.695" y2="147.308" gradientUnits="userSpaceOnUse">
<stop stop-color="#C0BFF6"/>
<stop offset="0.2938" stop-color="#C5C4F7"/>
<stop offset="0.6399" stop-color="#D3D2F9"/>
<stop offset="1" stop-color="#E9E9FD"/>
</linearGradient>
<linearGradient id="paint16_linear_1_415" x1="315.883" y1="168.29" x2="329.932" y2="168.29" gradientUnits="userSpaceOnUse">
<stop stop-color="#5761D7"/>
<stop offset="0.1779" stop-color="#5C66D9"/>
<stop offset="0.3876" stop-color="#6A73DF"/>
<stop offset="0.6134" stop-color="#8289E8"/>
<stop offset="0.849" stop-color="#A3A7F5"/>
<stop offset="1" stop-color="#BCBEFF"/>
</linearGradient>
<linearGradient id="paint17_linear_1_415" x1="326.844" y1="191.875" x2="442.39" y2="191.875" gradientUnits="userSpaceOnUse">
<stop stop-color="#5761D7"/>
<stop offset="0.1779" stop-color="#5C66D9"/>
<stop offset="0.3876" stop-color="#6A73DF"/>
<stop offset="0.6134" stop-color="#8289E8"/>
<stop offset="0.849" stop-color="#A3A7F5"/>
<stop offset="1" stop-color="#BCBEFF"/>
</linearGradient>
<linearGradient id="paint18_linear_1_415" x1="365.668" y1="188.022" x2="481.275" y2="188.022" gradientUnits="userSpaceOnUse">
<stop stop-color="#C0BFF6"/>
<stop offset="0.2938" stop-color="#C5C4F7"/>
<stop offset="0.6399" stop-color="#D3D2F9"/>
<stop offset="1" stop-color="#E9E9FD"/>
</linearGradient>
<linearGradient id="paint19_linear_1_415" x1="385.246" y1="194.585" x2="414.838" y2="194.585" gradientUnits="userSpaceOnUse">
<stop stop-color="#C0BFF6"/>
<stop offset="0.2938" stop-color="#C5C4F7"/>
<stop offset="0.6399" stop-color="#D3D2F9"/>
<stop offset="1" stop-color="#E9E9FD"/>
</linearGradient>
<linearGradient id="paint20_linear_1_415" x1="321.499" y1="162.398" x2="437.107" y2="162.398" gradientUnits="userSpaceOnUse">
<stop stop-color="#C0BFF6"/>
<stop offset="0.2938" stop-color="#C5C4F7"/>
<stop offset="0.6399" stop-color="#D3D2F9"/>
<stop offset="1" stop-color="#E9E9FD"/>
</linearGradient>
<linearGradient id="paint21_linear_1_415" x1="313.891" y1="153.911" x2="343.483" y2="153.911" gradientUnits="userSpaceOnUse">
<stop stop-color="#C0BFF6"/>
<stop offset="0.2938" stop-color="#C5C4F7"/>
<stop offset="0.6399" stop-color="#D3D2F9"/>
<stop offset="1" stop-color="#E9E9FD"/>
</linearGradient>
<linearGradient id="paint22_linear_1_415" x1="163.457" y1="199.077" x2="272.371" y2="199.077" gradientUnits="userSpaceOnUse">
<stop stop-color="#5761D7"/>
<stop offset="0.1406" stop-color="#5C60D5"/>
<stop offset="0.2961" stop-color="#695BD1"/>
<stop offset="0.4587" stop-color="#7F54C9"/>
<stop offset="0.6263" stop-color="#9E4BBE"/>
<stop offset="0.7977" stop-color="#C63EB0"/>
<stop offset="0.9699" stop-color="#F62F9F"/>
<stop offset="1" stop-color="#FF2C9C"/>
</linearGradient>
<linearGradient id="paint23_linear_1_415" x1="286.236" y1="147.308" x2="204.424" y2="147.308" gradientUnits="userSpaceOnUse">
<stop stop-color="#C0BFF6"/>
<stop offset="0.2938" stop-color="#C5C4F7"/>
<stop offset="0.6399" stop-color="#D3D2F9"/>
<stop offset="1" stop-color="#E9E9FD"/>
</linearGradient>
<linearGradient id="paint24_linear_1_415" x1="286.235" y1="168.29" x2="272.187" y2="168.29" gradientUnits="userSpaceOnUse">
<stop stop-color="#5761D7"/>
<stop offset="0.1779" stop-color="#5C66D9"/>
<stop offset="0.3876" stop-color="#6A73DF"/>
<stop offset="0.6134" stop-color="#8289E8"/>
<stop offset="0.849" stop-color="#A3A7F5"/>
<stop offset="1" stop-color="#BCBEFF"/>
</linearGradient>
<linearGradient id="paint25_linear_1_415" x1="275.275" y1="191.875" x2="159.729" y2="191.875" gradientUnits="userSpaceOnUse">
<stop stop-color="#5761D7"/>
<stop offset="0.1779" stop-color="#5C66D9"/>
<stop offset="0.3876" stop-color="#6A73DF"/>
<stop offset="0.6134" stop-color="#8289E8"/>
<stop offset="0.849" stop-color="#A3A7F5"/>
<stop offset="1" stop-color="#BCBEFF"/>
</linearGradient>
<linearGradient id="paint26_linear_1_415" x1="236.451" y1="188.022" x2="120.844" y2="188.022" gradientUnits="userSpaceOnUse">
<stop stop-color="#C0BFF6"/>
<stop offset="0.2938" stop-color="#C5C4F7"/>
<stop offset="0.6399" stop-color="#D3D2F9"/>
<stop offset="1" stop-color="#E9E9FD"/>
</linearGradient>
<linearGradient id="paint27_linear_1_415" x1="216.873" y1="194.585" x2="187.281" y2="194.585" gradientUnits="userSpaceOnUse">
<stop stop-color="#C0BFF6"/>
<stop offset="0.2938" stop-color="#C5C4F7"/>
<stop offset="0.6399" stop-color="#D3D2F9"/>
<stop offset="1" stop-color="#E9E9FD"/>
</linearGradient>
<linearGradient id="paint28_linear_1_415" x1="280.62" y1="162.398" x2="165.013" y2="162.398" gradientUnits="userSpaceOnUse">
<stop stop-color="#C0BFF6"/>
<stop offset="0.2938" stop-color="#C5C4F7"/>
<stop offset="0.6399" stop-color="#D3D2F9"/>
<stop offset="1" stop-color="#E9E9FD"/>
</linearGradient>
<linearGradient id="paint29_linear_1_415" x1="288.229" y1="153.912" x2="258.637" y2="153.912" gradientUnits="userSpaceOnUse">
<stop stop-color="#C0BFF6"/>
<stop offset="0.2938" stop-color="#C5C4F7"/>
<stop offset="0.6399" stop-color="#D3D2F9"/>
<stop offset="1" stop-color="#E9E9FD"/>
</linearGradient>
<linearGradient id="paint30_linear_1_415" x1="301.06" y1="106.673" x2="301.06" y2="-56" gradientUnits="userSpaceOnUse">
<stop stop-color="#42E8E0"/>
<stop offset="0.1055" stop-color="#37B6BF"/>
<stop offset="0.2197" stop-color="#2C87A1"/>
<stop offset="0.338" stop-color="#235F87" stop-opacity="0.91"/>
<stop offset="0.4587" stop-color="#1C3F72" stop-opacity="0.74"/>
<stop offset="0.5824" stop-color="#162561" stop-opacity="0.69"/>
<stop offset="0.7105" stop-color="#121355" stop-opacity="0.6"/>
<stop offset="0.8458" stop-color="#10084E" stop-opacity="0"/>
<stop offset="1" stop-color="#0F054C" stop-opacity="0"/>
</linearGradient>
<clipPath id="clip0_1_415">
<rect width="460" height="250" rx="10" fill="white"/>
</clipPath>
</defs>
</svg>
