<svg width="18" height="18" viewBox="0 0 18 18" fill="none" xmlns="http://www.w3.org/2000/svg">
<circle cx="9" cy="9" r="9" fill="#18154B"/>
<path d="M9.23864 13.0994C8.9143 13.0947 8.5947 13.0355 8.27983 12.9219C7.96733 12.8082 7.68324 12.6188 7.42756 12.3537C7.17188 12.0885 6.96709 11.7322 6.81321 11.2848C6.6617 10.8374 6.58594 10.2786 6.58594 9.60866C6.58594 8.97419 6.64867 8.41075 6.77415 7.91832C6.90199 7.4259 7.08546 7.01042 7.32457 6.67188C7.56368 6.33097 7.85251 6.07173 8.19105 5.89418C8.52959 5.71662 8.90956 5.62784 9.33097 5.62784C9.7642 5.62784 10.1489 5.71307 10.4851 5.88352C10.8213 6.05398 11.0935 6.28954 11.3018 6.5902C11.5125 6.89086 11.6463 7.23295 11.7031 7.61648H10.62C10.5466 7.31345 10.401 7.06605 10.1832 6.87429C9.96544 6.68253 9.68134 6.58665 9.33097 6.58665C8.7983 6.58665 8.38281 6.81866 8.08452 7.28267C7.78859 7.74669 7.63944 8.39181 7.63707 9.21804H7.69034C7.81581 9.01207 7.9697 8.83688 8.15199 8.69247C8.33665 8.54569 8.54261 8.43324 8.76989 8.35511C8.99953 8.27462 9.241 8.23438 9.49432 8.23438C9.91572 8.23438 10.2969 8.33736 10.6378 8.54332C10.9811 8.74692 11.2545 9.02865 11.4581 9.38849C11.6617 9.74834 11.7635 10.1603 11.7635 10.6243C11.7635 11.0883 11.6581 11.5085 11.4474 11.8849C11.2391 12.2614 10.9455 12.5597 10.5668 12.7798C10.188 12.9976 9.74527 13.1042 9.23864 13.0994ZM9.23509 12.1761C9.51444 12.1761 9.7642 12.1075 9.98438 11.9702C10.2045 11.8329 10.3786 11.6482 10.5064 11.4162C10.6342 11.1842 10.6982 10.925 10.6982 10.6385C10.6982 10.3591 10.6354 10.1046 10.5099 9.875C10.3868 9.64536 10.2164 9.46307 9.99858 9.32812C9.78314 9.19318 9.53693 9.12571 9.25994 9.12571C9.04924 9.12571 8.85393 9.16596 8.67401 9.24645C8.49645 9.32694 8.3402 9.43821 8.20526 9.58026C8.07031 9.7223 7.96378 9.88565 7.88565 10.0703C7.8099 10.2526 7.77202 10.4455 7.77202 10.6491C7.77202 10.9214 7.83475 11.1735 7.96023 11.4055C8.08807 11.6375 8.26207 11.8246 8.48224 11.9666C8.70478 12.1063 8.95573 12.1761 9.23509 12.1761Z" fill="white"/>
</svg>
