<svg width="18" height="18" viewBox="0 0 18 18" fill="none" xmlns="http://www.w3.org/2000/svg">
<circle cx="9" cy="9" r="9" fill="#18154B"/>
<path d="M9.23153 13.0994C8.74384 13.0994 8.30824 13.0154 7.92472 12.8473C7.54356 12.6792 7.24171 12.446 7.01918 12.1477C6.79901 11.8471 6.68063 11.4991 6.66406 11.1037H7.77912C7.79332 11.3191 7.86553 11.5062 7.99574 11.6648C8.12831 11.821 8.30114 11.9418 8.5142 12.027C8.72727 12.1122 8.96402 12.1548 9.22443 12.1548C9.51089 12.1548 9.7642 12.1051 9.98438 12.0057C10.2069 11.9062 10.3809 11.7678 10.5064 11.5902C10.6319 11.4103 10.6946 11.2031 10.6946 10.9688C10.6946 10.7249 10.6319 10.5107 10.5064 10.326C10.3833 10.139 10.2022 9.99219 9.96307 9.88565C9.72633 9.77912 9.43987 9.72585 9.10369 9.72585H8.48935V8.83097H9.10369C9.37358 8.83097 9.61032 8.78243 9.81392 8.68537C10.0199 8.5883 10.1809 8.45336 10.2969 8.28054C10.4129 8.10535 10.4709 7.90057 10.4709 7.66619C10.4709 7.44129 10.42 7.24598 10.3182 7.08026C10.2188 6.91217 10.0767 6.78078 9.89205 6.68608C9.70975 6.59138 9.49432 6.54403 9.24574 6.54403C9.009 6.54403 8.78764 6.58783 8.58168 6.67543C8.37808 6.76065 8.21236 6.88376 8.08452 7.04474C7.95668 7.20336 7.88802 7.39394 7.87855 7.61648H6.81676C6.8286 7.22348 6.9446 6.87784 7.16477 6.57955C7.38731 6.28125 7.68087 6.04806 8.04545 5.87997C8.41004 5.71188 8.81487 5.62784 9.25994 5.62784C9.72633 5.62784 10.1288 5.71899 10.4673 5.90128C10.8082 6.0812 11.071 6.3215 11.2557 6.62216C11.4427 6.92282 11.535 7.25189 11.5327 7.60938C11.535 8.01657 11.4214 8.36222 11.1918 8.64631C10.9645 8.9304 10.6615 9.12098 10.2827 9.21804V9.27486C10.7656 9.34825 11.1397 9.54001 11.4048 9.85014C11.6723 10.1603 11.8049 10.545 11.8026 11.0043C11.8049 11.4044 11.6937 11.763 11.4688 12.0803C11.2462 12.3975 10.942 12.6473 10.5561 12.8295C10.1702 13.0095 9.72869 13.0994 9.23153 13.0994Z" fill="white"/>
</svg>
