<svg width="40" height="40" viewBox="0 0 40 40" fill="none" xmlns="http://www.w3.org/2000/svg">
<rect width="40" height="40" rx="20" fill="#F0F5FB"/>
<g clip-path="url(#clip0_1_959)">
<path d="M18.3718 10.403C22.7728 10.403 26.3406 13.9707 26.3406 18.3717C26.3406 20.2477 25.6899 21.9703 24.6052 23.3317L29.5837 28.3112C29.9352 28.6626 29.9352 29.2322 29.5837 29.5836C29.2323 29.9351 28.6628 29.9351 28.3113 29.5836L23.3318 24.6051C21.9704 25.6898 20.2478 26.3405 18.3718 26.3405C13.9708 26.3405 10.4031 22.7727 10.4031 18.3717C10.4031 13.9707 13.9708 10.403 18.3718 10.403ZM18.3718 12.2028C14.9649 12.2028 12.2029 14.9648 12.2029 18.3717C12.2029 21.7786 14.9649 24.5406 18.3718 24.5406C21.7787 24.5406 24.5408 21.7786 24.5408 18.3717C24.5408 14.9648 21.7787 12.2028 18.3718 12.2028Z" fill="white"/>
<path d="M18.3718 10.403C22.7728 10.403 26.3406 13.9707 26.3406 18.3717C26.3406 20.2477 25.6899 21.9703 24.6052 23.3317L29.5837 28.3112C29.9352 28.6626 29.9352 29.2322 29.5837 29.5836C29.2323 29.9351 28.6628 29.9351 28.3113 29.5836L23.3318 24.6051C21.9704 25.6898 20.2478 26.3405 18.3718 26.3405C13.9708 26.3405 10.4031 22.7727 10.4031 18.3717C10.4031 13.9707 13.9708 10.403 18.3718 10.403ZM18.3718 12.2028C14.9649 12.2028 12.2029 14.9648 12.2029 18.3717C12.2029 21.7786 14.9649 24.5406 18.3718 24.5406C21.7787 24.5406 24.5408 21.7786 24.5408 18.3717C24.5408 14.9648 21.7787 12.2028 18.3718 12.2028Z" fill="url(#paint0_linear_1_959)"/>
</g>
<defs>
<linearGradient id="paint0_linear_1_959" x1="9.89204" y1="36.7634" x2="29.7273" y2="30.9115" gradientUnits="userSpaceOnUse">
<stop stop-color="#0D748B"/>
<stop offset="1" stop-color="#1A0B73"/>
</linearGradient>
<clipPath id="clip0_1_959">
<rect width="20" height="20" fill="white" transform="translate(10 10)"/>
</clipPath>
</defs>
</svg>
