<svg width="20" height="18" viewBox="0 0 20 18" fill="none" xmlns="http://www.w3.org/2000/svg">
<path d="M17.6545 2.25466C17.1984 1.797 16.6565 1.43388 16.0598 1.18611C15.4631 0.938334 14.8233 0.810791 14.1772 0.810791C13.5311 0.810791 12.8914 0.938334 12.2947 1.18611C11.6979 1.43388 11.156 1.797 10.6999 2.25466L9.99995 2.96375L9.29995 2.25466C8.84387 1.797 8.30195 1.43388 7.70524 1.18611C7.10853 0.938334 6.46878 0.810791 5.82267 0.810791C5.17657 0.810791 4.53682 0.938334 3.94011 1.18611C3.3434 1.43388 2.80147 1.797 2.3454 2.25466C0.418127 4.18193 0.299945 7.43648 2.72722 9.90921L9.99995 17.1819L17.2727 9.90921C19.6999 7.43648 19.5818 4.18193 17.6545 2.25466Z" stroke="white" stroke-width="1.5" stroke-linecap="round" stroke-linejoin="round"/>
<path d="M17.6545 2.25466C17.1984 1.797 16.6565 1.43388 16.0598 1.18611C15.4631 0.938334 14.8233 0.810791 14.1772 0.810791C13.5311 0.810791 12.8914 0.938334 12.2947 1.18611C11.6979 1.43388 11.156 1.797 10.6999 2.25466L9.99995 2.96375L9.29995 2.25466C8.84387 1.797 8.30195 1.43388 7.70524 1.18611C7.10853 0.938334 6.46878 0.810791 5.82267 0.810791C5.17657 0.810791 4.53682 0.938334 3.94011 1.18611C3.3434 1.43388 2.80147 1.797 2.3454 2.25466C0.418127 4.18193 0.299945 7.43648 2.72722 9.90921L9.99995 17.1819L17.2727 9.90921C19.6999 7.43648 19.5818 4.18193 17.6545 2.25466Z" stroke="url(#paint0_linear_1_136)" stroke-width="1.5" stroke-linecap="round" stroke-linejoin="round"/>
<defs>
<linearGradient id="paint0_linear_1_136" x1="0.423623" y1="23.0049" x2="18.6422" y2="17.0308" gradientUnits="userSpaceOnUse">
<stop stop-color="#0D748B"/>
<stop offset="1" stop-color="#1A0B73"/>
</linearGradient>
</defs>
</svg>
